{
.appVersion = "3315";
.formatVersion = 3;
DisplayStrings = (
a
);
axes = (
{
name = Weight;
tag = wght;
}
);
customParameters = (
{
name = openTypeHeadFlags;
value = (
0,
3,
4
);
},
{
name = panose;
value = (
2,
0,
0,
0,
0,
0,
0,
0,
0,
0
);
},
{
name = fsType;
value = (
);
},
{
name = "Use Typo Metrics";
value = 1;
}
);
date = "2011-02-14 09:09:14 +0000";
familyName = "Josefin Slab";
featurePrefixes = (
{
automatic = 1;
code = "languagesystem DFLT dflt;
";
name = Languagesystems;
}
);
features = (
{
automatic = 1;
code = "feature sups;
feature frac;
feature ordn;
";
tag = aalt;
},
{
automatic = 1;
code = "sub one by onesuperior;
sub two by twosuperior;
sub three by threesuperior;
sub four by foursuperior;
";
tag = sups;
},
{
automatic = 1;
code = "sub one slash four by onequarter;
sub one slash two by onehalf;
sub three slash four by threequarters;
";
tag = frac;
},
{
automatic = 1;
code = "sub [zero one two three four five six seven eight nine] [A a]' by ordfeminine;
sub [zero one two three four five six seven eight nine] [O o]' by ordmasculine;
";
tag = ordn;
}
);
fontMaster = (
{
axesValues = (
100
);
customParameters = (
{
name = subscriptXOffset;
value = 0;
},
{
name = subscriptXSize;
value = 700;
},
{
name = subscriptYOffset;
value = 140;
},
{
name = subscriptYSize;
value = 650;
},
{
name = superscriptXOffset;
value = 0;
},
{
name = superscriptXSize;
value = 700;
},
{
name = superscriptYOffset;
value = 477;
},
{
name = superscriptYSize;
value = 650;
},
{
name = typoAscender;
value = 750;
},
{
name = typoDescender;
value = -250;
},
{
name = typoLineGap;
value = 0;
},
{
name = hheaAscender;
value = 750;
},
{
name = hheaDescender;
value = -250;
},
{
name = hheaLineGap;
value = 0;
},
{
name = winAscent;
value = 932;
},
{
name = winDescent;
value = 250;
},
{
name = strikeoutPosition;
value = 250;
},
{
name = strikeoutSize;
value = 50;
},
{
name = underlineThickness;
value = 50;
},
{
name = underlinePosition;
value = -75;
},
{
name = openTypeHheaCaretSlopeRise;

glyphs = (
{
glyphname = A;
lastChange = "2024-08-09 09:08:37 +0000";
layers = (
{
layerId = m001;
shapes = (
{
closed = 1;
nodes = (
(35,0,l),
(35,79,l),
(117,79,l),
(186,244,o),
(325,567,o),
(394,732,q),
(463,567,o),
(602,244,o),
(671,79,q),
(753,79,l),
(753,0,l),
(531,0,l),
(531,79,l),
(587,79,l),
(566,129,o),
(525,227,o),
(504,277,q),
(284,277,l),
(256,211,o),
(228,145,o),
(200,79,q),
(257,79,l),
(257,0,l)
);
},
{
closed = 1;
nodes = (
(365,476,o),
(332.272,390.888,o),
(318,356,q),
(470,356,l),
(403,515,l),
(393,548,l),
(388.637,532.293,o,{
name = inserted;
}),
(384,518,o),
(383,515,q)
);
}
);
width = 788;
},
{
layerId = "51A9AA91-C68C-460C-8D6F-B89E075DCADB";
shapes = (
{
closed = 1;
nodes = (
(35,0,l),
(35,14,l),
(109,14,l),
(185,194,o),
(338,551,o),
(414,732,q),
(490,551,o),
(642,194,o),
(718,14,q),
(793,14,l),
(793,0,l),
(619,0,l),
(619,14,l),
(703,14,l),
(671,89,o),
(607,240,o),
(575,316,q),
(253,316,l),
(221,240,o),
(157,89,o),
(125,14,q),
(209,14,l),
(209,0,l)
);
},
{
closed = 1;
nodes = (
(371,587,o),
(296,417,o),
(259,330,q),
(569,330,l),
(423,675,l),
(414,700,l),
(412.585,697.17,o,{
name = inserted;
}),
(408.408,685.225,o),
(405,675,qs)
);
}
);
width = 828;
}
);
unicode = 65;
},
{
glyphname = AE;
lastChange = "2024-08-09 09:08:37 +0000";
layers = (
{
layerId = m001;
shapes = (
{
closed = 1;
nodes = (
(35,0,l),
(35,79,l),
(115,79,l),
(181,235,o),
(312,544,o),
(378,700,q),
(728,700,l),
(728,546,l),
(649,546,l),
(649,621,l),
(475,621,l),
(475,392,l),
(689,392,l),
(689,313,l),
(475,313,l),
(475,79,l),
(663,79,l),
(663,154,l),
(742,154,l),
(742,0,l),
(392,0,l),
(392,264,l),
(277,264,l),
(257,217,o),
(218,126,o),
(198,79,q),
(257,79,l),
(257,0,l)
);
},
{
closed = 1;
nodes = (
(378,496,o),
(331,394,o),
(310,343,q),
(392,343,l),
(392,548,l)
);
}
);
width = 777;
},
{
layerId = "51A9AA91-C68C-460C-8D6F-B89E075DCADB";
shapes = (
{
closed = 1;
nodes = (
(35,0,l),
(35,14,l),
(112,14,l),
(185,186,o),
(329,527,o),
(402,700,q),
(726,700,l),
(726,546,l),
(712,546,l),
(712,686,l),
(416,686,l),
(416,360,l),
(687,360,l),
(687,346,l),
(416,346,l),
(416,14,l),
(726,14,l),
(726,154,l),
(740,154,l),
(740,0,l),
(402,0,l),
(402,316,l),
(255,316,l),
(223,240,o),
(159,89,o),
(127,14,q),
(209,14,l),
(209,0,l)
);
},
{
closed = 1;
nodes = (
(370,580,o),
(296,415,o),
(261,330,q),
(402,330,l),
(402,666,l)
);
}
);
width = 775;
}
);
unicode = 198;
},
{
glyphname = B;
lastChange = "2024-08-09 09:08:37 +0000";
layers = (
{
layerId = m001;
shapes = (
{
closed = 1;
nodes = (
(35,0,l),
(35,79,l),
(80,79,l),
(80,621,l),
(35,621,l),
(35,700,l),
(263,700,ls),
(312,700,o),
(393,680,o),
(421.5,659,qs,{
name = inserted;
}),
(450,638,o),
(482,571,o),
(482,525,qs),
(482,463,o),
(423,369,o),
(363,352,q),
(391,346,o),
(444,318,o),
(463.5,296,qs,{
name = inserted;
}),
(483,274,o),
(507,216,o),
(507,180,qs),
(507,135,o),
(469,68,o),
(437.5,45.5,qs,{
name = inserted;
}),
(406,23,o),
(324,0,o),
(281,0,qs)
);
},
{
closed = 1;
nodes = (
(163,79,l),
(274,79,ls),
(305,79,o),
(359,93,o),
(379.5,107.5,qs,{
name = inserted;
}),
(400,122,o),
(424,164,o),
(424,193,qs),
(424,224,o),
(396,270,o),
(373.5,284.5,qs,{
name = inserted;
}),
(351,299,o),
(291,313,o),
(260,313,qs),
(163,313,l)
);
},
{
closed = 1;
nodes = (
(163,392,l),
(271,392,ls),
(330,392,o),
(399,458,o),
(399,512,qs),
(399,543,o),
(378,586,o),
(359,599,qs),
(342,610,o),
(296,621,o),
(269,621,qs),
(163,621,l)
);
}
);
width = 542;
},
{
layerId = "51A9AA91-C68C-460C-8D6F-B89E075DCADB";
shapes = (
{
closed = 1;
nodes = (
(35,0,l),
(35,14,l),
(106,14,l),
(106,686,l),
(35,686,l),
(35,700,l),
(251,700,ls),
(296,700,o),
(371,680,o),
(398,659,qs,{
name = inserted;
}),
(425,638,o),
(454,571,o),
(454,525,qs),
(454,463,o),
(392,369,o),
(327,352,q),
(357,346,o),
(413,318,o),
(434.5,296,qs,{
name = inserted;
}),
(456,274,o),
(481,216,o),
(481,180,qs),
(481,135,o),
(445,68,o),
(415.5,45.5,qs,{
name = inserted;
}),
(386,23,o),
(310,0,o),
(269,0,qs)
);
},
{
closed = 1;
nodes = (
(120,14,l),
(268,14,ls),
(308,14,o),
(381,34,o),
(408,54.5,qs,{
name = inserted;
}),
(435,75,o),
(467,136,o),
(467,177,qs),
(467,220,o),
(430,284,o),
(399.5,304,qs,{
name = inserted;
}),
(369,324,o),
(291,344,o),
(249,344,qs),
(120,344,l)
);
},
{
closed = 1;
nodes = (
(120,358,l),
(267,358,ls),
(347,358,o),
(440,452,o),
(440,528,qs),
(440,570,o),
(414,630,o),
(390.5,649,qs,{
name = inserted;
}),
(367,668,o),
(302,686,o),
(263,686,qs),
(120,686,l)
);
}
);
width = 516;
}
);
unicode = 66;
},
{
glyphname = C;
lastChange = "2024-08-09 09:08:37 +0000";
layers = (
{
layerId = m001;
shapes = (
{
closed = 1;
nodes = (
(534,19,o),
(443,-8,o),
(392,-8,qs),
(318,-8,o),
(188,48,o),
(139.5,96.5,qs,{
name = inserted;
}),
(91,145,o),
(35,275,o),
(35,349,qs),
(35,423,o),
(91,554,o),
(139.5,602.5,qs,{
name = inserted;
}),
(188,651,o),
(318,708,o),
(392,708,qs),
(443,708,o),
(534,682,o),
(575,658,q),
(575,546,l),
(496,546,l),
(496,607,l),
(471,618,o,{
name = inserted;
}),
(419,629,o),
(392,629,qs),
(335,629,o),
(236,585,o),
(198.5,546.5,qs,{
name = inserted;
}),
(161,508,o),
(118,406,o),
(118,349,qs),
(118,292,o),
(161,190,o),
(198.5,152.5,qs,{
name = inserted;
}),
(236,115,o),
(335,71,o),
(392,71,qs),
(429,71,o,{
name = inserted;
}),
(497.5,89.5,o),
(529,108,q),
(574,42,l)
);
}
);
width = 610;
},
{
layerId = "51A9AA91-C68C-460C-8D6F-B89E075DCADB";
shapes = (
{
closed = 1;
nodes = (
(534,19,o),
(443,-8,o),
(392,-8,qs),
(318,-8,o),
(188,48,o),
(139.5,96.5,qs,{
name = inserted;
}),
(91,145,o),
(35,275,o),
(35,349,qs),
(35,423,o),
(91,554,o),
(139.5,602.5,qs,{
name = inserted;
}),
(188,651,o),
(318,708,o),
(392,708,qs),
(443,708,o),
(534,682,o),
(575,658,q),
(575,546,l),
(561,546,l),
(561,649,l),
(523,671,o),
(437,694,o),
(392,694,qs),
(321,694,o),
(196,639,o),
(149.5,592,qs,{
name = inserted;
}),
(103,545,o),
(49,419,o),
(49,348,qs),
(49,277,o),
(103,153,o),
(149,106.5,qs,{
name = inserted;
}),
(195,60,o),
(319,6,o),
(389,6,qs),
(437,6,o),
(526,31,o),
(565,54,q),
(574,42,l)
);
}
);
width = 610;
}
);
unicode = 67;
},
{
glyphname = Ccedilla;
lastChange = "2024-08-09 09:08:37 +0000";
layers = (
{
layerId = m001;
shapes = (
{
closed = 1;
nodes = (
(486,-185,o),
(432.152,-250,o),
(381,-250,qs),
(347,-250,o),
(290,-213,o),
(277,-175,q),
(323,-151,l),
(328,-167,o),
(354,-188,o),
(374,-188,qs),
(398,-188,o),
(424,-156,o),
(424,-132,qs),
(424,-112,o),
(402,-89,o),
(389.5,-80,qs,{
name = inserted;
}),
(377,-71,o),
(355,-51,o),
(355,-34,qs),
(355,-6,l),
(287,1,o),
(171,61,o),
(127.5,108.5,qs,{
name = inserted;
}),
(84,156,o),
(35,280,o),
(35,349,qs),
(35,423,o),
(91,554,o),
(139.5,602.5,qs,{
name = inserted;
}),
(188,651,o),
(318,708,o),
(392,708,qs),
(443,708,o),
(534,682,o),
(575,658,q),
(575,436,l),
(496,436,l),
(496,607,l),
(471,618,o,{
name = inserted;
}),
(419,629,o),
(392,629,qs),
(335,629,o),
(236,585,o),
(198.5,546.5,qs,{
name = inserted;
}),
(161,508,o),
(118,406,o),
(118,349,qs),
(118,292,o),
(161,190,o),
(198.5,152.5,qs,{
name = inserted;
}),
(236,115,o),
(335,71,o),
(392,71,qs),
(429,71,o,{
name = inserted;
}),
(497.5,89.5,o),
(529,108,q),
(574,42,l),
(536,20,o),
(452,-6,o),
(406,-8,q),
(406,-14.5,o,{
name = inserted;
}),
(406.5,-21.5,o),
(407,-22,q),
(412,-41,o),
(437,-53,o),
(448,-61,qs),
(469,-77,o),
(486,-117,o),
(486,-142,qs)
);
}
);
width = 572;
},
{
layerId = "51A9AA91-C68C-460C-8D6F-B89E075DCADB";
shapes = (
{
closed = 1;
nodes = (
(475,-178,o),
(424,-223,o),
(391,-223,qs),
(365,-223,o),
(320,-194,o),
(310,-165,q),
(325,-161,l),
(331,-182,o),
(366,-209,o),
(391,-209,qs),
(422,-209,o),
(461,-168,o),
(461,-137,qs),
(461,-109,o),
(435,-79,o),
(419.5,-68.5,qs,{
name = inserted;
}),
(404,-58,o),
(378,-36,o),
(378,-16,qs),
(378,-7,l),
(306,-4,o),
(181,53,o),
(134.5,101,qs,{
name = inserted;
}),
(88,149,o),
(35,277,o),
(35,349,qs),
(35,423,o),
(91,554,o),
(139.5,602.5,qs,{
name = inserted;
}),
(188,651,o),
(318,708,o),
(392,708,qs),
(443,708,o),
(534,682,o),
(575,658,q),
(575,484,l),
(561,484,l),
(561,649,l),
(523,671,o),
(437,694,o),
(392,694,qs),
(321,694,o),
(196,639,o),
(149.5,592,qs,{
name = inserted;
}),
(103,545,o),
(49,419,o),
(49,348,qs),
(49,277,o),
(103,153,o),
(149,106.5,qs,{
name = inserted;
}),
(195,60,o),
(319,6,o),
(389,6,qs),
(437,6,o),
(526,31,o),
(565,54,q),
(574,42,l),
(534,19,o),
(443,-8,o),
(392,-8,q),
(392,-12.5,o,{
name = inserted;
}),
(393,-19,o),
(394,-21,q),
(399,-38,o),
(422,-54,o),
(433,-61,qs),
(456,-76,o),
(475,-113,o),
(475,-127,qs)
);
}
);
width = 610;
}
);
unicode = 199;
},
{
glyphname = D;
lastChange = "2024-08-09 09:08:37 +0000";
layers = (
{
layerId = m001;
shapes = (
{
closed = 1;
nodes = (
(35,0,l),
(35,80,l),
(82,80,l),
(82,621,l),
(35,621,l),
(35,700,l),
(245,700,ls),
(317,700,o),
(445,651,o),
(493,605,qs,{
name = inserted;
}),
(541,559,o),
(597,430,o),
(597,349,qs),
(597,290,o),
(556,166,o),
(510,115.5,qs,{
name = inserted;
}),
(464,65,o),
(317,0,o),
(211,0,qs)
);
},
{
closed = 1;
nodes = (
(165,80,l),
(235,80,ls),
(294,80,o),
(396,118,o),
(433.5,153.5,qs,{
name = inserted;
}),
(471,189,o),
(514,288,o),
(514,350,qs),
(514,412,o),
(471,512,o),
(433.5,547.5,qs,{
name = inserted;
}),
(396,583,o),
(294,621,o),
(235,621,qs),
(165,621,l)
);
}
);
width = 632;
},
{
layerId = "51A9AA91-C68C-460C-8D6F-B89E075DCADB";
shapes = (
{
closed = 1;
nodes = (
(35,0,l),
(35,14,l),
(108,14,l),
(108,686,l),
(35,686,l),
(35,700,l),
(245,700,ls),
(317,700,o),
(445,651,o),
(493,605.5,qs,{
name = inserted;
}),
(541,560,o),
(597,430,o),
(597,350,qs),
(597,291,o),
(556,167,o),
(510,116,qs,{
name = inserted;
}),
(464,65,o),
(317,0,o),
(211,0,qs)
);
},
{
closed = 1;
nodes = (
(122,14,l),
(220,14,ls),
(319,14,o),
(458,77,o),
(501.5,125.5,qs,{
name = inserted;
}),
(545,174,o),
(584,293,o),
(584,350,qs),
(584,427,o),
(531,552,o),
(485,595.5,qs,{
name = inserted;
}),
(439,639,o),
(318,686,o),
(251,686,qs),
(122,686,l)
);
}
);
width = 632;
}
);
unicode = 68;
},
{
glyphname = Eth;
lastChange = "2024-08-09 09:08:37 +0000";
layers = (
{
layerId = m001;
shapes = (
{
closed = 1;
nodes = (
(35,0,l),
(35,79,l),
(82,79,l),
(82,309,l),
(44,309,l),
(44,390,l),
(82,390,l),
(82,621,l),
(35,621,l),
(35,700,l),
(245,700,ls),
(317,700,o),
(445,651,o),
(493,605,qs,{
name = inserted;
}),
(541,559,o),
(597,430,o),
(597,349,qs),
(597,290,o),
(556,166,o),
(510,115.5,qs,{
name = inserted;
}),
(464,65,o),
(317,0,o),
(211,0,qs)
);
},
{
closed = 1;
nodes = (
(165,79,l),
(235,79,ls),
(294,79,o),
(396,118,o),
(433.5,153,qs,{
name = inserted;
}),
(471,188,o),
(514,288,o),
(514,350,qs),
(514,412,o),
(471,512,o),
(433.5,547.5,qs,{
name = inserted;
}),
(396,583,o),
(294,621,o),
(235,621,qs),
(165,621,l),
(165,390,l),
(346,390,l),
(346,309,l),
(165,309,l)
);
}
);
width = 632;
},
{
layerId = "51A9AA91-C68C-460C-8D6F-B89E075DCADB";
shapes = (
{
closed = 1;
nodes = (
(35,0,l),
(35,14,l),
(108,14,l),
(108,346,l),
(44,346,l),
(44,360,l),
(108,360,l),
(108,686,l),
(35,686,l),
(35,700,l),
(245,700,ls),
(317,700,o),
(445,651,o),
(493,605.5,qs,{
name = inserted;
}),
(541,560,o),
(597,430,o),
(597,350,qs),
(597,291,o),
(556,167,o),
(510,116,qs,{
name = inserted;
}),
(464,65,o),
(317,0,o),
(211,0,qs)
);
},
{
closed = 1;
nodes = (
(122,15,l),
(220,15,ls),
(319,15,o),
(458,77,o),
(501.5,126,qs,{
name = inserted;
}),
(545,175,o),
(584,293,o),
(584,350,qs),
(584,427,o),
(531,552,o),
(485,595.5,qs,{
name = inserted;
}),
(439,639,o),
(318,686,o),
(251,686,qs),
(122,686,l),
(122,360,l),
(346,360,l),
(346,346,l),
(122,346,l)
);
}
);
width = 632;
}
);
unicode = 208;
},
{
glyphname = E;
lastChange = "2024-08-09 09:08:37 +0000";
layers = (
{
layerId = m001;
shapes = (
{
closed = 1;
nodes = (
(35,0,l),
(35,79,l),
(91,79,l),
(91,621,l),
(35,621,l),
(35,700,l),
(522,700,l),
(522,546,l),
(443,546,l),
(443,621,l),
(174,621,l),
(174,392,l),
(483,392,l),
(483,313,l),
(174,313,l),
(174,79,l),
(457,79,l),
(457,154,l),
(536,154,l),
(536,0,l)
);
}
);
width = 571;
},
{
layerId = "51A9AA91-C68C-460C-8D6F-B89E075DCADB";
shapes = (
{
closed = 1;
nodes = (
(35,0,l),
(35,14,l),
(117,14,l),
(117,686,l),
(35,686,l),
(35,700,l),
(522,700,l),
(522,546,l),
(508,546,l),
(508,686,l),
(131,686,l),
(131,360,l),
(483,360,l),
(483,346,l),
(131,346,l),
(131,14,l),
(522,14,l),
(522,154,l),
(536,154,l),
(536,0,l)
);
}
);
width = 571;
}
);
unicode = 69;
},
{
glyphname = F;
lastChange = "2024-08-09 09:08:37 +0000";
layers = (
{
layerId = m001;
shapes = (
{
closed = 1;
nodes = (
(35,0,l),
(35,79,l),
(91,79,l),
(91,621,l),
(35,621,l),
(35,700,l),
(522,700,l),
(522,546,l),
(443,546,l),
(443,621,l),
(174,621,l),
(174,392,l),
(483,392,l),
(483,313,l),
(174,313,l),
(174,79,l),
(277,79,l),
(277,0,l)
);
}
);
width = 557;
},
{
layerId = "51A9AA91-C68C-460C-8D6F-B89E075DCADB";
shapes = (
{
closed = 1;
nodes = (
(35,0,l),
(35,14,l),
(117,14,l),
(117,686,l),
(35,686,l),
(35,700,l),
(522,700,l),
(522,546,l),
(508,546,l),
(508,686,l),
(131,686,l),
(131,360,l),
(483,360,l),
(483,346,l),
(131,346,l),
(131,14,l),
(209,14,l),
(209,0,l)
);
}
);
width = 557;
}
);
unicode = 70;
},
{
glyphname = G;
lastChange = "2024-08-09 09:08:37 +0000";
layers = (
{
layerId = m001;
shapes = (
{
closed = 1;
nodes = (
(534,17,o),
(443,-10,o),
(392,-10,qs),
(318,-10,o),
(188,46,o),
(139.5,94.5,qs,{
name = inserted;
}),
(91,143,o),
(35,273,o),
(35,347,qs),
(35,421,o),
(91,552,o),
(139.5,600.5,qs,{
name = inserted;
}),
(188,649,o),
(318,706,o),
(392,706,qs),
(443,706,o),
(534,680,o),
(575,656,q),
(529,589,l),
(498,607,o),
(430,627,o),
(392,627,qs),
(335,627,o),
(236,583,o),
(198.5,544.5,qs,{
name = inserted;
}),
(161,506,o),
(118,404,o),
(118,347,qs),
(118,290,o),
(161,188,o),
(198.5,150.5,qs,{
name = inserted;
}),
(236,113,o),
(335,69,o),
(392,69,qs),
(418,69,o,{
name = inserted;
}),
(467.5,78,o),
(491,87,q),
(491,219,l),
(388,219,l),
(388,298,l),
(574,298,l),
(574,40,l)
);
}
);
width = 609;
},
{
layerId = "51A9AA91-C68C-460C-8D6F-B89E075DCADB";
shapes = (
{
closed = 1;
nodes = (
(534,17,o),
(443,-10,o),
(392,-10,qs),
(318,-10,o),
(188,46,o),
(139.5,94.5,qs,{
name = inserted;
}),
(91,143,o),
(35,273,o),
(35,347,qs),
(35,421,o),
(91,552,o),
(139.5,600.5,qs,{
name = inserted;
}),
(188,649,o),
(318,706,o),
(392,706,qs),
(443,706,o),
(534,680,o),
(575,656,q),
(567,644,l),
(529,667,o),
(440,692,o),
(392,692,qs),
(321,692,o),
(196,637,o),
(149.5,590,qs,{
name = inserted;
}),
(103,543,o),
(49,417,o),
(49,346,qs),
(49,275,o),
(103,151,o),
(149,104.5,qs,{
name = inserted;
}),
(195,58,o),
(319,4,o),
(389,4,qs),
(436,4,o),
(522,27,o),
(560,49,q),
(560,284,l),
(388,284,l),
(388,298,l),
(574,298,l),
(574,40,l)
);
}
);
width = 609;
}
);
unicode = 71;
},
{
glyphname = H;
lastChange = "2024-08-09 09:08:37 +0000";
layers = (
{
layerId = m001;
shapes = (
{
closed = 1;
nodes = (
(35,0,l),
(35,79,l),
(114,79,l),
(114,621,l),
(35,621,l),
(35,700,l),
(277,700,l),
(277,621,l),
(197,621,l),
(197,392,l),
(575,392,l),
(575,621,l),
(495,621,l),
(495,700,l),
(737,700,l),
(737,621,l),
(658,621,l),
(658,79,l),
(737,79,l),
(737,0,l),
(495,0,l),
(495,79,l),
(575,79,l),
(575,313,l),
(197,313,l),
(197,79,l),
(277,79,l),
(277,0,l)
);
}
);
width = 772;
},
{
layerId = "51A9AA91-C68C-460C-8D6F-B89E075DCADB";
shapes = (
{
closed = 1;
nodes = (
(35,0,l),
(35,14,l),
(112,14,l),
(112,686,l),
(35,686,l),
(35,700,l),
(209,700,l),
(209,686,l),
(126,686,l),
(126,360,l),
(590,360,l),
(590,686,l),
(507,686,l),
(507,700,l),
(681,700,l),
(681,686,l),
(604,686,l),
(604,14,l),
(681,14,l),
(681,0,l),
(507,0,l),
(507,14,l),
(590,14,l),
(590,346,l),
(126,346,l),
(126,14,l),
(209,14,l),
(209,0,l)
);
}
);
width = 716;
}
);
unicode = 72;
},
{
glyphname = I;
lastChange = "2024-08-09 09:08:37 +0000";
layers = (
{
layerId = m001;
shapes = (
{
closed = 1;
nodes = (
(35,0,l),
(35,79,l),
(114,79,l),
(114,621,l),
(35,621,l),
(35,700,l),
(277,700,l),
(277,621,l),
(197,621,l),
(197,79,l),
(277,79,l),
(277,0,l)
);
}
);
width = 312;
},
{
layerId = "51A9AA91-C68C-460C-8D6F-B89E075DCADB";
shapes = (
{
closed = 1;
nodes = (
(35,0,l),
(35,14,l),
(112,14,l),
(112,686,l),
(35,686,l),
(35,700,l),
(209,700,l),
(209,686,l),
(126,686,l),
(126,14,l),
(209,14,l),
(209,0,l)
);
}
);
width = 244;
}
);
unicode = 73;
},
{
glyphname = J;
lastChange = "2024-08-09 09:08:37 +0000";
layers = (
{
layerId = m001;
shapes = (
{
closed = 1;
nodes = (
(175,-111,o),
(86,-143,o),
(35,-144,q),
(35,-65,l),
(69,-63,o),
(128,-41,o),
(149,-21,qs),
(169,-2,o),
(193,56,o),
(193,93,qs),
(193,621,l),
(35,621,l),
(35,700,l),
(276,700,l),
(276,90,ls),
(276,34,o),
(239,-52,o),
(207,-82,qs,{
name = inserted;
})
);
}
);
width = 311;
},
{
layerId = "51A9AA91-C68C-460C-8D6F-B89E075DCADB";
shapes = (
{
closed = 1;
nodes = (
(140,-109,o),
(73,-141,o),
(35,-142,q),
(35,-128,l),
(72,-126,o),
(134,-95,o),
(157,-66.5,qs,{
name = inserted;
}),
(180,-38,o),
(206,42,o),
(206,93,qs),
(206,686,l),
(35,686,l),
(35,700,l),
(220,700,l),
(220,90,ls),
(220,34,o),
(191,-51,o),
(165.5,-80,qs,{
name = inserted;
})
);
}
);
width = 255;
}
);
unicode = 74;
},
{
glyphname = K;
lastChange = "2024-08-09 09:08:37 +0000";
layers = (
{
layerId = m001;
shapes = (
{
closed = 1;
nodes = (
(35,0,l),
(35,79,l),
(112,79,l),
(112,621,l),
(35,621,l),
(35,700,l),
(257,700,l),
(257,621,l),
(195,621,l),
(195,426,ls),
(195,418,o),
(193,402,o),
(192,394,q),
(211,417,l),
(425,621,l),
(388,621,l),
(388,700,l),
(610,700,l),
(610,621,l),
(527,621,l),
(312,416,l),
(379,331,o),
(512,164,o),
(579,79,q),
(651,79,l),
(651,0,l),
(429,0,l),
(429,79,l),
(481,79,l),
(424,150,o),
(313,291,o),
(257,363,q),
(195,304,l),
(195,79,l),
(277,79,l),
(277,0,l)
);
}
);
width = 686;
},
{
layerId = "51A9AA91-C68C-460C-8D6F-B89E075DCADB";
shapes = (
{
closed = 1;
nodes = (
(35,0,l),
(35,14,l),
(112,14,l),
(112,686,l),
(35,686,l),
(35,700,l),
(209,700,l),
(209,686,l),
(126,686,l),
(126,360,ls),
(126,352,o),
(125,339,o),
(125,331,q),
(143,351,l),
(493,686,l),
(429,686,l),
(429,700,l),
(603,700,l),
(603,686,l),
(515,686,l),
(240,424,l),
(321,321,o),
(482,117,o),
(563,14,q),
(651,14,l),
(651,0,l),
(477,0,l),
(477,14,l),
(543,14,l),
(465,114,o),
(308,314,o),
(229,414,q),
(126,316,l),
(126,14,l),
(209,14,l),
(209,0,l)
);
}
);
width = 686;
}
);
unicode = 75;
},
{
glyphname = L;
lastChange = "2024-08-09 09:08:37 +0000";
layers = (
{
layerId = m001;
shapes = (
{
closed = 1;
nodes = (
(35,0,l),
(35,79,l),
(91,79,l),
(91,621,l),
(35,621,l),
(35,700,l),
(257,700,l),
(257,621,l),
(174,621,l),
(174,79,l),
(457,79,l),
(457,154,l),
(536,154,l),
(536,0,l)
);
}
);
width = 571;
},
{
layerId = "51A9AA91-C68C-460C-8D6F-B89E075DCADB";
shapes = (
{
closed = 1;
nodes = (
(35,0,l),
(35,14,l),
(112,14,l),
(112,686,l),
(35,686,l),
(35,700,l),
(209,700,l),
(209,686,l),
(126,686,l),
(126,14,l),
(517,14,l),
(517,154,l),
(531,154,l),
(531,0,l)
);
}
);
width = 566;
}
);
unicode = 76;
},
{
glyphname = M;
lastChange = "2024-08-09 09:08:37 +0000";
layers = (
{
layerId = m001;
shapes = (
{
closed = 1;
nodes = (
(35,0,l),
(35,79,l),
(122,79,l),
(122,621,l),
(35,621,l),
(35,700,l),
(147,700,l),
(233,589,o),
(402,368,o),
(488,257,q),
(574,368,o),
(743,589,o),
(829,700,q),
(941,700,l),
(941,621,l),
(854,621,l),
(854,79,l),
(941,79,l),
(941,0,l),
(699,0,l),
(699,79,l),
(771,79,l),
(771,470,l),
(772,478,o),
(773,494,o),
(774,502,q),
(766,491,o),
(750,467,o),
(742,456,qs),
(488,125,l),
(223,472,ls),
(216,481,o),
(207,493,o),
(202,502,q),
(203,494,o),
(205,478,o),
(205,470,qs),
(205,79,l),
(277,79,l),
(277,0,l)
);
}
);
width = 976;
},
{
layerId = "51A9AA91-C68C-460C-8D6F-B89E075DCADB";
shapes = (
{
closed = 1;
nodes = (
(35,0,l),
(35,14,l),
(112,14,l),
(112,686,l),
(35,686,l),
(35,700,l),
(135,700,l),
(224.76,583.04,o),
(411.581,338.396,o),
(478,253,q),
(564,364,o),
(735,589,o),
(821,700,q),
(921,700,l),
(921,686,l),
(844,686,l),
(844,14,l),
(926,14,l),
(926,0,l),
(752,0,l),
(752,14,l),
(830,14,l),
(830,645,l),
(830,660,o),
(831,675,o),
(831,690,q),
(823,679,o),
(814,667,o),
(806,656,qs),
(478,228,l),
(143,665,l),
(137,673,o),
(131,681,o),
(125,690,q),
(125,679,o),
(126,656,o),
(126,645,qs),
(126,14,l),
(209,14,l),
(209,0,l)
);
}
);
width = 961;
}
);
unicode = 77;
},
{
glyphname = N;
lastChange = "2024-08-09 09:08:37 +0000";
layers = (
{
layerId = m001;
shapes = (
{
closed = 1;
nodes = (
(733,-32,l),
(221,512,l),
(202,538,l),
(205,506,l),
(205,79,l),
(277,79,l),
(277,0,l),
(35,0,l),
(35,79,l),
(122,79,l),
(122,621,l),
(35,621,l),
(35,700,l),
(151,700,l),
(634,177,l),
(653,151,l),
(650,183,l),
(650,621,l),
(578,621,l),
(578,700,l),
(820,700,l),
(820,621,l),
(733,621,l)
);
}
);
width = 855;
},
{
layerId = "51A9AA91-C68C-460C-8D6F-B89E075DCADB";
shapes = (
{
closed = 1;
nodes = (
(723,-32,l),
(142,670,l),
(124,690,l),
(126,664,l),
(126,14,l),
(209,14,l),
(209,0,l),
(35,0,l),
(35,14,l),
(112,14,l),
(112,686,l),
(35,686,l),
(35,700,l),
(138,700,l),
(693,28,l),
(712,2,l),
(709,34,l),
(709,686,l),
(631,686,l),
(631,700,l),
(805,700,l),
(805,686,l),
(723,686,l)
);
}
);
width = 840;
}
);
unicode = 78;
},
{
glyphname = O;
lastChange = "2024-08-09 09:08:37 +0000";
layers = (
{
layerId = m001;
shapes = (
{
closed = 1;
nodes = (
(596,48,o),
(465,-8,o),
(392,-8,qs),
(318,-8,o),
(188,48,o),
(139.5,96.5,qs,{
name = inserted;
}),
(91,145,o),
(35,275,o),
(35,349,qs),
(35,422,o),
(91,553,o),
(139.5,602,qs,{
name = inserted;
}),
(188,651,o),
(318,708,o),
(392,708,qs),
(465,708,o),
(596,651,o),
(645,602,qs,{
name = inserted;
}),
(694,553,o),
(751,422,o),
(751,349,qs),
(751,275,o),
(694,145,o),
(645,96.5,qs,{
name = inserted;
})
);
},
{
closed = 1;
nodes = (
(236,115,o),
(336,71,o),
(393,71,qs),
(450,71,o),
(550,115,o),
(587.5,152.5,qs,{
name = inserted;
}),
(625,190,o),
(668,291,o),
(668,349,qs),
(668,407,o),
(625,508,o),
(587.5,546,qs,{
name = inserted;
}),
(550,584,o),
(450,628,o),
(393,628,qs),
(336,628,o),
(236,584,o),
(198.5,546,qs,{
name = inserted;
}),
(161,508,o),
(118,407,o),
(118,349,qs),
(118,291,o),
(161,190,o),
(198.5,152.5,qs,{
name = inserted;
})
);
}
);
width = 786;
},
{
layerId = "51A9AA91-C68C-460C-8D6F-B89E075DCADB";
shapes = (
{
closed = 1;
nodes = (
(597,48,o),
(466,-8,o),
(392,-8,qs),
(318,-8,o),
(188,48,o),
(139.5,96.5,qs,{
name = inserted;
}),
(91,145,o),
(35,275,o),
(35,349,qs),
(35,423,o),
(91,554,o),
(139.5,602.5,qs,{
name = inserted;
}),
(188,651,o),
(318,708,o),
(392,708,qs),
(466,708,o),
(597,651,o),
(645.5,602.5,qs,{
name = inserted;
}),
(694,554,o),
(751,423,o),
(751,349,qs),
(751,275,o),
(694,145,o),
(645.5,96.5,qs,{
name = inserted;
})
);
},
{
closed = 1;
nodes = (
(195,60,o),
(319,6,o),
(389,6,qs),
(460,6,o),
(587,60,o),
(634.5,106.5,qs,{
name = inserted;
}),
(682,153,o),
(737,278,o),
(737,349,qs),
(737,420,o),
(682,545,o),
(635,592,qs,{
name = inserted;
}),
(588,639,o),
(463,694,o),
(392,694,qs),
(321,694,o),
(196,639,o),
(149.5,592,qs,{
name = inserted;
}),
(103,545,o),
(49,419,o),
(49,348,qs),
(49,277,o),
(103,153,o),
(149,106.5,qs,{
name = inserted;
})
);
}
);
width = 786;
}
);
unicode = 79;
},
{
glyphname = Oslash;
lastChange = "2024-08-09 09:08:37 +0000";
layers = (
{
layerId = m001;
shapes = (
{
closed = 1;
nodes = (
(118,296,o),
(154,203,o),
(186,166,q),
(276,271,o),
(453,477,o),
(543,582,q),
(510,604,o),
(434,629,o),
(392,629,qs),
(335,629,o),
(236,585,o),
(198.5,546.5,qs,{
name = inserted;
}),
(161,508,o),
(118,406,o),
(118,349,qs)
);
},
{
closed = 1;
nodes = (
(276,94,o),
(350,71,o),
(392,71,qs),
(449,71,o),
(549,115,o),
(586.5,152.5,qs,{
name = inserted;
}),
(624,190,o),
(668,292,o),
(668,349,qs),
(668,401,o),
(632,494,o),
(600,531,q),
(510,426,o),
(334,220,o),
(244,115,q)
);
},
{
closed = 1;
nodes = (
(176,36,o),
(146,0,o),
(131,-17,q),
(117,-4,o),
(87,21,o),
(73,34,q),
(88,51,o),
(117,86,o),
(132,103,q),
(87,151,o),
(35,277,o),
(35,349,qs),
(35,423,o),
(91,554,o),
(139.5,602.5,qs,{
name = inserted;
}),
(188,651,o),
(318,708,o),
(392,708,qs),
(449,708,o),
(552,674,o),
(596,644,q),
(612,663,o),
(644,700,o),
(660,719,q),
(674,706,o),
(704,681,o),
(718,668,q),
(702,649,o),
(670,613,o),
(654,594,q),
(699,546,o),
(751,420,o),
(751,349,qs),
(751,275,o),
(694,145,o),
(645.5,96.5,qs,{
name = inserted;
}),
(597,48,o),
(466,-8,o),
(392,-8,qs),
(335,-8,o),
(234,24,o),
(191,53,q)
);
}
);
width = 786;
},
{
layerId = "51A9AA91-C68C-460C-8D6F-B89E075DCADB";
shapes = (
{
closed = 1;
nodes = (
(49,272,o),
(109,142,o),
(160,95,q),
(271,228,o),
(490,489,o),
(601,622,q),
(557,656,o),
(451,694,o),
(392,694,qs),
(321,694,o),
(196,639,o),
(149.5,592,qs,{
name = inserted;
}),
(103,545,o),
(49,419,o),
(49,348,qs)
);
},
{
closed = 1;
nodes = (
(214,49,o),
(326,6,o),
(389,6,qs),
(460,6,o),
(587,60,o),
(634.5,106.5,qs,{
name = inserted;
}),
(682,153,o),
(737,278,o),
(737,349,qs),
(737,429,o),
(668,567,o),
(610,615,q),
(463,439,o),
(316,263,o),
(169,87,q)
);
},
{
closed = 1;
nodes = (
(143,56,o),
(108,13,o),
(90,-8,q),
(88,-6,o),
(83,-2,o),
(81,0,q),
(99,21,o),
(134,64,o),
(152,85,q),
(98,134,o),
(35,270,o),
(35,349,qs),
(35,423,o),
(91,554,o),
(139.5,602.5,qs,{
name = inserted;
}),
(188,651,o),
(318,708,o),
(392,708,qs),
(454,708,o),
(565,668,o),
(611,633,q),
(627,652,o),
(657,689,o),
(673,708,q),
(675,706,o),
(680,702,o),
(682,700,q),
(666,681,o),
(636,645,o),
(620,626,q),
(680,576,o),
(751,433,o),
(751,349,qs),
(751,275,o),
(694,145,o),
(645.5,96.5,qs,{
name = inserted;
}),
(597,48,o),
(466,-8,o),
(392,-8,qs),
(326,-8,o),
(208,37,o),
(161,77,q)
);
}
);
width = 786;
}
);
unicode = 216;
},
{
glyphname = OE;
lastChange = "2024-08-09 09:08:37 +0000";
layers = (
{
background = {
shapes = (
{
closed = 1;
nodes = (
(849,621,l),
(580,621,l),
(580,392,l),
(889,392,l),
(889,313,l),
(580,313,l),
(580,79,l),
(863,79,l),
(863,154,l),
(942,154,l),
(942,0,l),
(507,0,l),
(480,-4,o),
(441,-8,o),
(404,-8,qs),
(315,-8,o),
(187,42,o),
(138,92,qs,{
name = inserted;
}),
(90,141,o),
(35,275,o),
(35,349,qs),
(35,423,o),
(92,555,o),
(141,604,qs),
(194,656,o),
(322,704,o),
(400,704,qs),
(423,704,o),
(471,703,o),
(497,700,q),
(928,700,l),
(928,546,l),
(849,546,l)
);
},
{
closed = 1;
nodes = (
(118,291,o),
(159,185,o),
(197,148,qs,{
name = inserted;
}),
(234,110,o),
(336,71,o),
(402,71,qs),
(449,71,o),
(481,74,o),
(497,79,q),
(497,620,l),
(466,624,o),
(433,629,o),
(402,629,qs),
(343,629,o),
(245,592,o),
(204,554,qs),
(164,516,o),
(118,409,o),
(118,349,qs)
);
}
);
};
layerId = m001;
shapes = (
{
closed = 1;
nodes = (
(849,621,l),
(580,621,l),
(580,392,l),
(889,392,l),
(889,313,l),
(580,313,l),
(580,79,l),
(863,79,l),
(863,154,l),
(942,154,l),
(942,0,l),
(507,0,l),
(480,-4,o),
(441,-8,o),
(404,-8,qs),
(315,-8,o),
(187,42,o),
(138,92,qs,{
name = inserted;
}),
(90,141,o),
(35,275,o),
(35,349,qs),
(35,423,o),
(92,555,o),
(141,604,qs),
(194,656,o),
(322,704,o),
(400,704,qs),
(423,704,o),
(471,703,o),
(497,700,q),
(928,700,l),
(928,546,l),
(849,546,l)
);
},
{
closed = 1;
nodes = (
(118,291,o),
(159,185,o),
(197,148,qs,{
name = inserted;
}),
(234,110,o),
(336,71,o),
(402,71,qs),
(449,71,o),
(481,74,o),
(497,79,q),
(497,620,l),
(466,624,o),
(433,629,o),
(402,629,qs),
(343,629,o),
(245,592,o),
(204,554,qs),
(164,516,o),
(118,409,o),
(118,349,qs)
);
}
);
width = 977;
},
{
layerId = "51A9AA91-C68C-460C-8D6F-B89E075DCADB";
shapes = (
{
closed = 1;
nodes = (
(831,686,l),
(507,686,l),
(507,360,l),
(806,360,l),
(806,346,l),
(507,346,l),
(507,14,l),
(845,14,l),
(845,89,l),
(859,89,l),
(859,0,l),
(494,0,l),
(475,-4,o,{
name = inserted;
}),
(437,-8,o),
(418,-8,q),
(344,-8,o),
(214,48,o),
(166,97,qs,{
name = inserted;
}),
(117,145,o),
(61,275,o),
(61,349,q),
(61,423,o),
(117,554,o),
(166,603,qs,{
name = inserted;
}),
(214,651,o),
(344,708,o),
(418,708,q),
(437,708,o,{
name = inserted;
}),
(474,704,o),
(493,700,q),
(845,701,l),
(845,612,l),
(831,612,l)
);
},
{
closed = 1;
nodes = (
(75,277,o),
(129,153,o),
(175,107,qs,{
name = inserted;
}),
(221,60,o),
(345,6,o),
(415,6,q),
(435,6,o,{
name = inserted;
}),
(474,10,o),
(493,14,q),
(493,686,l),
(474,690,o,{
name = inserted;
}),
(437,694,o),
(418,694,q),
(347,694,o),
(222,639,o),
(176,592,qs,{
name = inserted;
}),
(129,545,o),
(75,419,o),
(75,348,q)
);
}
);
width = 917;
}
);
unicode = 338;
},
{
glyphname = P;
lastChange = "2024-08-09 09:08:37 +0000";
layers = (
{
layerId = m001;
shapes = (
{
closed = 1;
nodes = (
(35,0,l),
(35,79,l),
(80,79,l),
(80,621,l),
(35,621,l),
(35,700,l),
(245,700,ls),
(279,700,o),
(362,679,o),
(398,656,qs,{
name = inserted;
}),
(434,633,o),
(482,561,o),
(482,510,qs),
(482,419,o),
(374,312,o),
(272,312,qs),
(163,312,l),
(163,79,l),
(277,79,l),
(277,0,l)
);
},
{
closed = 1;
nodes = (
(163,392,l),
(250,392,ls),
(294,392,o),
(351,415,o),
(368,432,qs,{
name = inserted;
}),
(385,449,o),
(399,491,o),
(399,510,qs),
(399,532,o),
(376,572,o),
(356.5,587.5,qs,{
name = inserted;
}),
(337,603,o),
(282,621,o),
(251,621,qs),
(163,621,l)
);
}
);
width = 517;
},
{
layerId = "51A9AA91-C68C-460C-8D6F-B89E075DCADB";
shapes = (
{
closed = 1;
nodes = (
(35,0,l),
(35,14,l),
(106,14,l),
(106,686,l),
(35,686,l),
(35,700,l),
(246,700,ls),
(275,700,o),
(345,680,o),
(375,659,qs,{
name = inserted;
}),
(405,638,o),
(446,570,o),
(446,522,qs),
(446,439,o),
(335,341,o),
(232,341,qs),
(120,341,l),
(120,14,l),
(209,14,l),
(209,0,l)
);
},
{
closed = 1;
nodes = (
(120,355,l),
(235,355,ls),
(293,355,o),
(369,387,o),
(391.5,411.5,qs,{
name = inserted;
}),
(414,436,o),
(432,495,o),
(432,522,qs),
(432,555,o),
(402,614,o),
(375.5,636.5,qs,{
name = inserted;
}),
(349,659,o),
(278,686,o),
(236,686,qs),
(120,686,l)
);
}
);
width = 481;
}
);
unicode = 80;
},
{
glyphname = Thorn;
lastChange = "2024-08-09 09:08:37 +0000";
layers = (
{
layerId = m001;
shapes = (
{
closed = 1;
nodes = (
(35,0,l),
(35,79,l),
(106,79,l),
(106,621,l),
(35,621,l),
(35,700,l),
(257,700,l),
(257,621,l),
(189,621,l),
(189,535,l),
(271,535,ls),
(305,535,o),
(388,514,o),
(424,491,qs,{
name = inserted;
}),
(460,468,o),
(508,396,o),
(508,345,qs),
(508,254,o),
(400,147,o),
(298,147,qs),
(189,147,l),
(189,79,l),
(277,79,l),
(277,0,l)
);
},
{
closed = 1;
nodes = (
(189,227,l),
(276,227,ls),
(320,227,o),
(377,250,o),
(394,267,qs,{
name = inserted;
}),
(411,284,o),
(425,326,o),
(425,345,qs),
(425,367,o),
(402,408,o),
(382.5,423.5,qs,{
name = inserted;
}),
(363,439,o),
(308,457,o),
(277,457,qs),
(189,457,l)
);
}
);
width = 543;
},
{
layerId = "51A9AA91-C68C-460C-8D6F-B89E075DCADB";
shapes = (
{
closed = 1;
nodes = (
(35,0,l),
(35,14,l),
(106,14,l),
(106,686,l),
(35,686,l),
(35,700,l),
(209,700,l),
(209,686,l),
(120,686,l),
(120,535,l),
(246,535,ls),
(275,535,o),
(345,515,o),
(375,494,qs,{
name = inserted;
}),
(405,473,o),
(446,405,o),
(446,357,qs),
(446,274,o),
(335,176,o),
(232,176,qs),
(120,176,l),
(120,14,l),
(209,14,l),
(209,0,l)
);
},
{
closed = 1;
nodes = (
(120,190,l),
(235,190,ls),
(293,190,o),
(369,222,o),
(391.5,246.5,qs,{
name = inserted;
}),
(414,271,o),
(432,330,o),
(432,357,qs),
(432,390,o),
(402,449,o),
(375.5,471.5,qs,{
name = inserted;
}),
(349,494,o),
(278,521,o),
(236,521,qs),
(120,521,l)
);
}
);
width = 481;
}
);
unicode = 222;
},
{
glyphname = Q;
lastChange = "2024-08-09 09:08:37 +0000";
layers = (
{
layerId = m001;
shapes = (
{
closed = 1;
nodes = (
(236,115,o),
(335,71,o),
(392,71,qs),
(449,71,o),
(549,115,o),
(586.5,152.5,qs,{
name = inserted;
}),
(624,190,o),
(668,292,o),
(668,349,qs),
(668,406,o),
(624,508,o),
(586.5,546.5,qs,{
name = inserted;
}),
(549,585,o),
(449,629,o),
(392,629,qs),
(335,629,o),
(236,585,o),
(198.5,546.5,qs,{
name = inserted;
}),
(161,508,o),
(118,406,o),
(118,349,qs),
(118,292,o),
(161,190,o),
(198.5,152.5,qs,{
name = inserted;
})
);
},
{
closed = 1;
nodes = (
(447,-4,o,{
name = inserted;
}),
(410,-8,o),
(392,-8,qs),
(318,-8,o),
(188,48,o),
(140,96,qs,{
name = inserted;
}),
(91,145,o),
(35,275,o),
(35,349,qs),
(35,423,o),
(91,554,o),
(140,602,qs,{
name = inserted;
}),
(188,651,o),
(318,708,o),
(392,708,qs),
(466,708,o),
(597,651,o),
(646,602,qs,{
name = inserted;
}),
(694,554,o),
(751,423,o),
(751,349,qs),
(751,301,o),
(726,211,o),
(704,173,qs),
(689,146,o),
(649,99,o),
(626,79,q),
(773,79,l),
(773,0,l),
(466,0,l)
);
}
);
width = 808;
},
{
layerId = "51A9AA91-C68C-460C-8D6F-B89E075DCADB";
shapes = (
{
closed = 1;
nodes = (
(195,60,o),
(319,6,o),
(389,6,qs),
(460,6,o),
(587,60,o),
(634.5,106.5,qs,{
name = inserted;
}),
(682,153,o),
(737,278,o),
(737,349,qs),
(737,420,o),
(682,545,o),
(635,592,qs,{
name = inserted;
}),
(588,639,o),
(463,694,o),
(392,694,qs),
(321,694,o),
(196,639,o),
(149.5,592,qs,{
name = inserted;
}),
(103,545,o),
(49,419,o),
(49,348,qs),
(49,277,o),
(103,153,o),
(149,106.5,qs,{
name = inserted;
})
);
},
{
closed = 1;
nodes = (
(447,-4,o,{
name = inserted;
}),
(410,-8,o),
(392,-8,qs),
(318,-8,o),
(188,48,o),
(139.5,96.5,qs,{
name = inserted;
}),
(91,145,o),
(35,275,o),
(35,349,qs),
(35,423,o),
(91,554,o),
(139.5,602.5,qs,{
name = inserted;
}),
(188,651,o),
(318,708,o),
(392,708,qs),
(466,708,o),
(597,651,o),
(645.5,602.5,qs,{
name = inserted;
}),
(694,554,o),
(751,423,o),
(751,349,qs),
(751,291,o),
(716,186,o),
(685,142.5,qs,{
name = inserted;
}),
(654,99,o),
(567,33,o),
(516,14,q),
(773,14,l),
(773,0,l),
(466,0,l)
);
}
);
width = 808;
}
);
unicode = 81;
},
{
glyphname = R;
lastChange = "2024-08-09 09:08:37 +0000";
layers = (
{
layerId = m001;
shapes = (
{
closed = 1;
nodes = (
(35,0,l),
(35,79,l),
(80,79,l),
(80,621,l),
(35,621,l),
(35,700,l),
(245,700,ls),
(279,700,o),
(362,679,o),
(398,656,qs,{
name = inserted;
}),
(434,633,o),
(482,561,o),
(482,510,qs),
(482,435,o),
(407,335,o),
(335,319,q),
(447,79,l),
(541,79,l),
(541,0,l),
(395,0,l),
(248,313,l),
(234,313,o),
(219,312,o),
(205,312,qs),
(163,312,l),
(163,79,l),
(277,79,l),
(277,0,l)
);
},
{
closed = 1;
nodes = (
(163,392,l),
(250,392,ls),
(294,392,o),
(351,415,o),
(368,432,qs,{
name = inserted;
}),
(385,449,o),
(399,491,o),
(399,510,qs),
(399,532,o),
(376,572,o),
(356.5,587.5,qs,{
name = inserted;
}),
(337,603,o),
(282,621,o),
(251,621,qs),
(163,621,l)
);
}
);
width = 576;
},
{
layerId = "51A9AA91-C68C-460C-8D6F-B89E075DCADB";
shapes = (
{
closed = 1;
nodes = (
(35,0,l),
(35,14,l),
(106,14,l),
(106,686,l),
(35,686,l),
(35,700,l),
(246,700,ls),
(275,700,o),
(345,680,o),
(375,659,qs,{
name = inserted;
}),
(405,638,o),
(446,570,o),
(446,522,qs),
(446,453,o),
(368,360,o),
(294,346,q),
(450,14,l),
(534,14,l),
(534,0,l),
(442,0,l),
(279,344,l),
(267.5,342.5,o,{
name = inserted;
}),
(244,341,o),
(232,341,qs),
(120,341,l),
(120,14,l),
(209,14,l),
(209,0,l)
);
},
{
closed = 1;
nodes = (
(120,355,l),
(235,355,ls),
(293,355,o),
(369,387,o),
(391.5,411.5,qs,{
name = inserted;
}),
(414,436,o),
(432,495,o),
(432,522,qs),
(432,555,o),
(402,614,o),
(375.5,636.5,qs,{
name = inserted;
}),
(349,659,o),
(278,686,o),
(236,686,qs),
(120,686,l)
);
}
);
width = 569;
}
);
unicode = 82;
},
{
glyphname = S;
lastChange = "2024-08-09 09:08:37 +0000";
layers = (
{
layerId = m001;
shapes = (
{
closed = 1;
nodes = (
(369,19,o),
(293,-8,o),
(251,-8,qs),
(213,-8,o),
(141,9,o),
(111,23,qs,{
name = inserted;
}),
(81,37,o),
(34,73,o),
(21,93,q),
(21,209,l),
(100,209,l),
(100,120,l),
(126,100,o),
(198,71,o),
(243,71,qs),
(269,71,o),
(317,86,o),
(336,100,qs,{
name = inserted;
}),
(354,115,o),
(376,159,o),
(376,188,qs),
(376,206,o),
(371,242,o),
(363,255,qs),
(350,276,o),
(315,301,o),
(292,312,qs,{
name = inserted;
}),
(256,327,o),
(172,349,o),
(136,368,qs,{
name = inserted;
}),
(99,387,o),
(50,455,o),
(49,517,qs),
(48,550,o),
(68,616,o),
(91,643,qs,{
name = inserted;
}),
(114,670,o),
(190,704,o),
(245,704,qs),
(263,704,o),
(305,700,o),
(328,694,qs,{
name = inserted;
}),
(351,688,o),
(400,664,o),
(424,644,q),
(424,546,l),
(345,546,l),
(345,605,l),
(326,613,o),
(276,625,o),
(246,625,qs),
(216,625,o),
(172,606,o),
(158,590,qs),
(145,575,o),
(132,536,o),
(132,514,qs),
(132,484,o),
(160,447,o),
(183,434,qs,{
name = inserted;
}),
(219,415,o),
(319,386,o),
(365,364,qs),
(407,344,o),
(459,260,o),
(459,187,qs),
(459,142,o),
(426,70,o),
(398,44,qs,{
name = inserted;
})
);
}
);
width = 478;
},
{
layerId = "51A9AA91-C68C-460C-8D6F-B89E075DCADB";
shapes = (
{
closed = 1;
nodes = (
(360,19,o),
(282,-8,o),
(238,-8,qs),
(198,-8,o),
(135,8,o),
(111.5,19.5,qs,{
name = inserted;
}),
(88,31,o),
(55,55,o),
(46,64,q),
(46,164,l),
(60,164,l),
(60,74,l),
(89,45,o),
(174,6,o),
(236,6,qs),
(275,6,o),
(347,31,o),
(374.5,54,qs,{
name = inserted;
}),
(402,77,o),
(436,142,o),
(436,182,qs),
(436,228,o),
(405,289,o),
(380,308.5,qs,{
name = inserted;
}),
(355,328,o),
(290,351,o),
(256,360.5,qs,{
name = inserted;
}),
(222,370,o),
(156,391,o),
(129.5,407.5,qs,{
name = inserted;
}),
(103,424,o),
(68,476,o),
(66,517,qs),
(64,550,o),
(83,617,o),
(104,644,qs,{
name = inserted;
}),
(125,671,o),
(191,704,o),
(238,704,qs),
(254,704,o),
(293,700,o),
(312.5,695.5,qs,{
name = inserted;
}),
(332,691,o),
(370,673,o),
(386,660,q),
(386,546,l),
(372,546,l),
(372,653,l),
(352,668,o),
(284,690,o),
(236,690,qs),
(197,690,o),
(138,663,o),
(118.5,640.5,qs,{
name = inserted;
}),
(99,618,o),
(80,561,o),
(80,530,qs),
(80,476,o),
(134,419,o),
(174.5,402.5,qs,{
name = inserted;
}),
(215,386,o),
(310,364,o),
(351.5,343.5,qs,{
name = inserted;
}),
(393,323,o),
(449,251,o),
(450,186,qs),
(451,142,o),
(418,70,o),
(389,44.5,qs,{
name = inserted;
})
);
}
);
width = 478;
}
);
unicode = 83;
},
{
glyphname = T;
lastChange = "2024-08-09 09:08:37 +0000";
layers = (
{
layerId = m001;
shapes = (
{
closed = 1;
nodes = (
(185,0,l),
(185,79,l),
(271,79,l),
(271,621,l),
(114,621,l),
(114,546,l),
(35,546,l),
(35,700,l),
(588,700,l),
(588,546,l),
(509,546,l),
(509,621,l),
(354,621,l),
(354,79,l),
(427,79,l),
(427,0,l)
);
}
);
width = 623;
},
{
layerId = "51A9AA91-C68C-460C-8D6F-B89E075DCADB";
shapes = (
{
closed = 1;
nodes = (
(225,0,l),
(225,14,l),
(304,14,l),
(304,686,l),
(49,686,l),
(49,546,l),
(35,546,l),
(35,700,l),
(588,700,l),
(588,546,l),
(574,546,l),
(574,686,l),
(318,686,l),
(318,14,l),
(399,14,l),
(399,0,l)
);
}
);
width = 623;
}
);
unicode = 84;
},
{
glyphname = U;
lastChange = "2024-08-09 09:08:37 +0000";
layers = (
{
layerId = m001;
shapes = (
{
closed = 1;
nodes = (
(510,22,o),
(418,-8,o),
(364,-8,qs),
(310,-8,o),
(218,22,o),
(184,51.5,qs,{
name = inserted;
}),
(150,81,o),
(112,169,o),
(112,226,qs),
(112,621,l),
(35,621,l),
(35,700,l),
(277,700,l),
(277,621,l),
(195,621,l),
(195,229,ls),
(195,191,o),
(220,132,o),
(242.5,112,qs,{
name = inserted;
}),
(265,92,o),
(327,71,o),
(364,71,qs),
(401,71,o),
(463,92,o),
(485.5,112,qs,{
name = inserted;
}),
(508,132,o),
(534,191,o),
(534,229,qs),
(534,621,l),
(452,621,l),
(452,700,l),
(694,700,l),
(694,621,l),
(617,621,l),
(617,226,ls),
(617,169,o),
(578,81,o),
(544,51.5,qs,{
name = inserted;
})
);
}
);
width = 729;
},
{
layerId = "51A9AA91-C68C-460C-8D6F-B89E075DCADB";
shapes = (
{
closed = 1;
nodes = (
(467,22,o),
(385,-8,o),
(337,-8,qs),
(289,-8,o),
(206,22,o),
(176,51.5,qs,{
name = inserted;
}),
(146,81,o),
(112,169,o),
(112,226,qs),
(112,686,l),
(35,686,l),
(35,700,l),
(209,700,l),
(209,686,l),
(126,686,l),
(126,229,ls),
(126,175,o),
(157,92,o),
(185,63.5,qs,{
name = inserted;
}),
(213,35,o),
(291,6,o),
(337,6,qs),
(382,6,o),
(460,35,o),
(488,63.5,qs,{
name = inserted;
}),
(516,92,o),
(548,175,o),
(548,229,qs),
(548,686,l),
(465,686,l),
(465,700,l),
(639,700,l),
(639,686,l),
(562,686,l),
(562,226,ls),
(562,169,o),
(527,81,o),
(497,51.5,qs,{
name = inserted;
})
);
}
);
width = 674;
}
);
unicode = 85;
},
{
glyphname = V;
lastChange = "2024-08-09 09:08:37 +0000";
layers = (
{
layerId = m001;
shapes = (
{
closed = 1;
nodes = (
(607,456,o),
(468,133,o),
(399,-32,q),
(330,133,o),
(191,456,o),
(122,621,q),
(35,621,l),
(35,700,l),
(277,700,l),
(277,621,l),
(205,621,l),
(252,512,o),
(343,294,o),
(390,185,q),
(399,152,l),
(408,185,l),
(455,294,o),
(546,511,o),
(592,621,q),
(533,621,l),
(533,700,l),
(775,700,l),
(775,621,l),
(676,621,l)
);
}
);
width = 810;
},
{
layerId = "51A9AA91-C68C-460C-8D6F-B89E075DCADB";
shapes = (
{
closed = 1;
nodes = (
(650,505,o),
(498,148,o),
(422,-32,q),
(346,148,o),
(193,505,o),
(117,686,q),
(35,686,l),
(35,700,l),
(209,700,l),
(209,686,l),
(133,686,l),
(203,519,o),
(343,191,o),
(413,25,q),
(422,0,l),
(431,25,l),
(501,191,o),
(641,519,o),
(711,686,q),
(635,686,l),
(635,700,l),
(809,700,l),
(809,686,l),
(726,686,l)
);
}
);
width = 844;
}
);
unicode = 86;
},
{
glyphname = W;
lastChange = "2024-08-09 09:08:37 +0000";
layers = (
{
layerId = m001;
shapes = (
{
closed = 1;
nodes = (
(470,135,o),
(422,22,o),
(399,-32,q),
(330,133,o),
(191,456,o),
(122,621,q),
(35,621,l),
(35,700,l),
(277,700,l),
(277,621,l),
(205,621,l),
(252,512,o),
(343,294,o),
(390,185,q),
(399,152,l),
(411,187,o),
(451,286,o),
(471,331,qs,{
name = inserted;
}),
(490,375,o),
(526,463,o),
(544,506,q),
(532,535,o),
(507,592,o),
(495,621,q),
(403,621,l),
(403,700,l),
(645,700,l),
(645,621,l),
(578,621,l),
(625,512,o),
(716,294,o),
(763,185,q),
(772,152,l),
(781,185,l),
(828,294,o),
(919,511,o),
(965,621,q),
(901,621,l),
(901,700,l),
(1143,700,l),
(1143,621,l),
(1049,621,l),
(980,456,o),
(841,133,o),
(772,-32,q),
(595,385,l),
(585,420,l),
(571,374,o),
(522,249,o),
(496,192,qs,{
name = inserted;
})
);
}
);
width = 1178;
},
{
layerId = "51A9AA91-C68C-460C-8D6F-B89E075DCADB";
shapes = (
{
closed = 1;
nodes = (
(474,92,o),
(440,9,o),
(422,-32,q),
(346,148,o),
(193,505,o),
(117,686,q),
(35,686,l),
(35,700,l),
(209,700,l),
(209,686,l),
(133,686,l),
(202,519,o),
(341,190,o),
(413,25,q),
(422,0,l),
(435,35,o),
(464,106,o),
(479,141,qs),
(508,212,o),
(570,354,o),
(600,425,q),
(573,490,o),
(518,620,o),
(490,686,q),
(411,686,l),
(411,700,l),
(585,700,l),
(585,686,l),
(505,686,l),
(574,519,o),
(713,190,o),
(785,25,q),
(794,0,l),
(803,25,l),
(873,191,o),
(1013,519,o),
(1083,686,q),
(1011,686,l),
(1011,700,l),
(1185,700,l),
(1185,686,l),
(1098,686,l),
(1022,505,o),
(870,148,o),
(794,-32,q),
(617,385,l),
(608,407,l),
(578,338,o),
(520,200,o),
(491,132,qs)
);
}
);
width = 1220;
}
);
unicode = 87;
},
{
glyphname = X;
lastChange = "2024-08-09 09:08:37 +0000";
layers = (
{
layerId = m001;
shapes = (
{
closed = 1;
nodes = (
(35,0,l),
(35,79,l),
(110,79,l),
(292,357,l),
(120,621,l),
(35,621,l),
(35,700,l),
(277,700,l),
(277,621,l),
(222,621,l),
(250,577,o),
(306,492,o),
(334,449,q),
(347,422,l),
(360,449,l),
(472,621,l),
(417,621,l),
(417,700,l),
(659,700,l),
(659,621,l),
(573,621,l),
(529,553,o),
(443,418,o),
(398,351,q),
(443,282,o),
(531,148,o),
(576,79,q),
(659,79,l),
(659,0,l),
(417,0,l),
(417,79,l),
(472,79,l),
(356,258,l),
(352,265,o),
(346,279,o),
(342,286,q),
(329,258,l),
(300,213,o),
(242,124,o),
(213,79,q),
(277,79,l),
(277,0,l)
);
}
);
width = 694;
},
{
layerId = "51A9AA91-C68C-460C-8D6F-B89E075DCADB";
shapes = (
{
closed = 1;
nodes = (
(35,0,l),
(35,14,l),
(124,14,l),
(345,360,l),
(134,686,l),
(35,686,l),
(35,700,l),
(209,700,l),
(209,686,l),
(150,686,l),
(201,609,o),
(299,457,o),
(349,381,qs),
(357,368,l),
(365,381,l),
(560,686,l),
(501,686,l),
(501,700,l),
(675,700,l),
(675,686,l),
(576,686,l),
(523,602,o),
(418,439,o),
(365,356,q),
(421,269,o),
(532,100,o),
(588,14,q),
(675,14,l),
(675,0,l),
(501,0,l),
(501,14,l),
(571,14,l),
(397,279,ls),
(386,296,o),
(365,332,o),
(353,348,q),
(345,335,ls),
(294,254,o),
(190,95,o),
(139,14,q),
(209,14,l),
(209,0,l)
);
}
);
width = 710;
}
);
unicode = 88;
},
{
glyphname = Y;
lastChange = "2024-08-09 09:08:37 +0000";
layers = (
{
layerId = m001;
shapes = (
{
closed = 1;
nodes = (
(277,0,l),
(277,79,l),
(344,79,l),
(344,270,l),
(291,358,o),
(188,533,o),
(136,621,q),
(35,621,l),
(35,700,l),
(277,700,l),
(277,621,l),
(237,621,l),
(274,560,o),
(346,438,o),
(383,377,q),
(394,346,l),
(395,346,l),
(407,377,l),
(551,621,l),
(512,621,l),
(512,700,l),
(754,700,l),
(754,621,l),
(653,621,l),
(601,533,o),
(498,357,o),
(446,269,q),
(446,79,l),
(519,79,l),
(519,0,l)
);
}
);
width = 789;
},
{
layerId = "51A9AA91-C68C-460C-8D6F-B89E075DCADB";
shapes = (
{
closed = 1;
nodes = (
(273,0,l),
(273,14,l),
(352,14,l),
(352,262,l),
(288,368,o),
(161,580,o),
(97,686,q),
(35,686,l),
(35,700,l),
(209,700,l),
(209,686,l),
(114,686,l),
(173,588,o),
(290,396,o),
(347,298,q),
(359,272,l),
(360,272,l),
(371,298,l),
(602,686,l),
(509,686,l),
(509,700,l),
(683,700,l),
(683,686,l),
(619,686,l),
(556,579,o),
(429,368,o),
(366,262,q),
(366,14,l),
(447,14,l),
(447,0,l)
);
}
);
width = 718;
}
);
unicode = 89;
},
{
glyphname = Z;
lastChange = "2024-08-09 09:08:37 +0000";
layers = (
{
layerId = m001;
shapes = (
{
closed = 1;
nodes = (
(35,0,l),
(35,80,l),
(463,621,l),
(51,621,l),
(51,735,l),
(134,735,l),
(134,700,l),
(565,700,l),
(565,621,l),
(137,80,l),
(515,80,l),
(515,242,l),
(594,242,l),
(594,0,l)
);
}
);
width = 629;
},
{
layerId = "51A9AA91-C68C-460C-8D6F-B89E075DCADB";
shapes = (
{
closed = 1;
nodes = (
(35,0,l),
(35,14,l),
(545,686,l),
(52,686,l),
(52,735,l),
(68,735,l),
(68,700,l),
(565,700,l),
(565,686,l),
(55,14,l),
(580,14,l),
(580,174,l),
(594,174,l),
(594,0,l)
);
}
);
width = 629;
}
);
unicode = 90;
},
{
glyphname = a;
lastChange = "2024-08-09 09:34:52 +0000";
layers = (
{
layerId = m001;
shapes = (
{
closed = 1;
nodes = (
(363,0,l),
(363,20,ls),
(363,27,o),
(363,33,o),
(363,40,q),
(362,37,o),
(344,21,o),
(327.5,12.5,qs,{
name = inserted;
}),
(311,4,o),
(265,-9,o),
(236,-9,qs),
(194,-9,o),
(120,22,o),
(93,49,qs,{
name = inserted;
}),
(66,76,o),
(35,147,o),
(35,187,qs),
(35,226,o),
(66,298,o),
(93,325,qs,{
name = inserted;
}),
(120,352,o),
(194,384,o),
(236,384,qs),
(290.685,384,o),
(355,345,o),
(363,328,q),
(364,338,o),
(367,363,o),
(367,375,q),
(436,375,l),
(436,79,l),
(512,79,l),
(512,0,l)
);
},
{
closed = 1;
nodes = (
(209,303,o),
(163,284,o),
(148,267,qs),
(134,252,o),
(119,212,o),
(119,188,qs),
(119,160,o),
(142,112,o),
(162,96,qs),
(176,85,o),
(214,72,o),
(236,72,qs),
(261,72,o),
(302,88,o),
(317,102,qs),
(334,118,o),
(353,162,o),
(353,188,qs),
(353,214,o),
(334,258,o),
(318,273,qs),
(302,287,o),
(261,303,o),
(236,303,qs)
);
}
);
width = 547;
},
{
layerId = "51A9AA91-C68C-460C-8D6F-B89E075DCADB";
shapes = (
{
closed = 1;
nodes = (
(410,0,l),
(410,54,ls),
(410,70,o),
(411,101,o),
(411,117,q),
(400,90,o),
(364,45,o),
(340.5,28.5,qs,{
name = inserted;
}),
(317,12,o),
(260,-6,o),
(229,-6,qs),
(188,-6,o),
(118,24,o),
(91.5,50.5,qs,{
name = inserted;
}),
(65,77,o),
(35,147,o),
(35,188,qs),
(35,228,o),
(65,300,o),
(91.5,326,qs,{
name = inserted;
}),
(118,352,o),
(188,383,o),
(229,383,qs),
(291,383,o),
(388,314,o),
(410,260,q),
(410,289,o),
(412,346,o),
(414,375,q),
(424,375,l),
(424,14,l),
(497,14,l),
(497,0,l)
);
},
{
closed = 1;
nodes = (
(191,369,o),
(126,341,o),
(101.5,316,qs,{
name = inserted;
}),
(77,291,o),
(49,225,o),
(49,188,qs),
(49,150,o),
(77,85,o),
(101.5,60.5,qs,{
name = inserted;
}),
(126,36,o),
(191,8,o),
(229,8,qs),
(266,8,o),
(332,36,o),
(357,60.5,qs,{
name = inserted;
}),
(382,85,o),
(410,150,o),
(410,188,qs),
(410,225,o),
(382,291,o),
(357,316,qs,{
name = inserted;
}),
(332,341,o),
(266,369,o),
(229,369,qs)
);
}
);
width = 532;
}
);
unicode = 97;
},
{
glyphname = ae;
lastChange = "2024-08-09 09:08:37 +0000";
layers = (
{
layerId = m001;
shapes = (
{
closed = 1;
nodes = (
(352,220,l),
(382,231,o),
(442,253,o),
(472,264,q),
(458,281,o),
(423,302,o),
(402,302,qs),
(387.5,302,o,{
name = inserted;
}),
(361,296.5,o),
(349,291,q),
(350.5,280.5,o,{
name = inserted;
}),
(352,256,o),
(352,242,qs)
);
},
{
closed = 1;
nodes = (
(119,94,o),
(136,80,o),
(148,76,qs),
(158,73,o),
(182,71,o),
(194,71,qs),
(205,71,o),
(231,72,o),
(242,75,qs,{
name = inserted;
}),
(253,78,o),
(268,93,o),
(268,108,qs),
(268,134,l),
(212,134,ls),
(198,134,o),
(165,132,o),
(151,129,qs,{
name = inserted;
}),
(137,126,o),
(119,115,o),
(119,106,qs)
);
},
{
closed = 1;
nodes = (
(285.5,2.5,o,{
name = inserted;
}),
(231,-10,o),
(195,-10,qs),
(159,-10,o),
(100,1,o),
(79,15,qs,{
name = inserted;
}),
(58,29,o),
(35,75,o),
(35,110,qs),
(35,141,o),
(59,184,o),
(79.5,196.5,qs,{
name = inserted;
}),
(100,209,o),
(152,220,o),
(179,220,qs),
(268,220,l),
(268,244,ls),
(268,259,o),
(263,280,o),
(255.5,287.5,qs,{
name = inserted;
}),
(248,295,o),
(219,302,o),
(196,302,qs),
(183,302,o),
(154,297,o),
(140,293,qs,{
name = inserted;
}),
(126,289,o),
(101,279,o),
(94,274,q),
(83,288,o),
(61,313,o),
(50,327,q),
(61,338,o),
(96,359,o),
(116,366.5,qs,{
name = inserted;
}),
(136,374,o),
(178,383,o),
(197,383,qs),
(236,383,o,{
name = inserted;
}),
(292,372,o),
(309,361,q),
(331,372,o,{
name = inserted;
}),
(377.5,383,o),
(402,383,qs),
(433,383,o),
(490,358,o),
(512.5,336,qs,{
name = inserted;
}),
(535,314,o),
(569,253,o),
(578,217,q),
(521,196,o),
(409,154,o),
(352,133,q),
(352,129,ls),
(352,117,o,{
name = inserted;
}),
(349.5,93.5,o),
(347,82,q),
(359,76,o),
(387,71,o),
(402,71,qs),
(425,71,o,{
name = inserted;
}),
(463,87,o),
(478,103,q),
(529,43,l),
(504,18,o),
(440,-10,o),
(402,-10,qs),
(375.5,-10,o,{
name = inserted;
}),
(326.5,2.5,o),
(304,15,q)
);
}
);
width = 613;
},
{
layerId = "51A9AA91-C68C-460C-8D6F-B89E075DCADB";
shapes = (
{
closed = 1;
nodes = (
(346,191,l),
(391,209,o),
(482,246,o),
(527,264,q),
(507,310,o),
(426,367,o),
(376,367,qs),
(359,367,o,{
name = inserted;
}),
(326,360.5,o),
(310,354,q),
(330,338,o),
(346,283,o),
(346,241,qs)
);
},
{
closed = 1;
nodes = (
(49,68,o),
(77,31,o),
(98.5,21,qs,{
name = inserted;
}),
(120,11,o),
(171,4,o),
(194,4,qs),
(219,4,o),
(269,13,o),
(288.5,24.5,qs,{
name = inserted;
}),
(308,36,o),
(332,75,o),
(332,105,qs),
(332,177,l),
(238,177,ls),
(222,177,o),
(159,178,o),
(127.5,171.5,qs,{
name = inserted;
}),
(96,165,o),
(49,131,o),
(49,97,qs)
);
},
{
closed = 1;
nodes = (
(274,0,o,{
name = inserted;
}),
(224,-10,o),
(192,-10,qs),
(157,-10,o),
(99,0,o),
(78,12,qs,{
name = inserted;
}),
(58,24,o),
(35,65,o),
(35,96,qs),
(35,123,o),
(61,159,o),
(82,170,qs,{
name = inserted;
}),
(103,182,o),
(157,191,o),
(186,191,qs),
(332,191,l),
(332,243,ls),
(332,274,o),
(322,321,o),
(307,336,qs,{
name = inserted;
}),
(292,352,o),
(236,367,o),
(190,367,qs),
(176,367,o),
(144,361,o),
(129,356,qs,{
name = inserted;
}),
(114,351,o),
(88,338,o),
(80,332,q),
(77,335,o),
(70,341,o),
(67,344,q),
(76,352,o),
(105,365,o),
(122,370,qs,{
name = inserted;
}),
(139,375,o),
(175,381,o),
(191,381,qs),
(226,381,o,{
name = inserted;
}),
(279,372,o),
(296,364,q),
(314,372,o,{
name = inserted;
}),
(354,381,o),
(376,381,qs),
(407,381,o),
(462,361,o),
(484,343,qs),
(504,327,o),
(536,283,o),
(545,257,q),
(495,237,o),
(396,196,o),
(346,176,q),
(346,128,ls),
(346,89,o),
(328,38,o),
(305,20,q),
(322,13,o,{
name = inserted;
}),
(358,6,o),
(376,6,qs),
(412,6,o),
(476,32,o),
(500,55,q),
(509,44,l),
(483,20,o),
(415,-8,o),
(376,-8,qs),
(352,-8,o,{
name = inserted;
}),
(310,1,o),
(292,10,q)
);
}
);
width = 580;
}
);
unicode = 230;
},
{
glyphname = b;
lastChange = "2024-08-09 09:08:37 +0000";
layers = (
{
layerId = m001;
shapes = (
{
closed = 1;
nodes = (
(35,79,l),
(111,79,l),
(111,671,l),
(45,671,l),
(45,750,l),
(194,750,l),
(194,362,l),
(194,355,o),
(193,344,o),
(191,336,q),
(192,339,o),
(206,352,o),
(223,361,qs,{
name = inserted;
}),
(240,370,o),
(285,384,o),
(311,384,qs),
(353,384,o),
(427,353,o),
(454,326,qs,{
name = inserted;
}),
(481,299,o),
(512,228,o),
(512,188,qs),
(512,148,o),
(481,76,o),
(454,49,qs,{
name = inserted;
}),
(427,22,o),
(353,-9,o),
(311,-9,qs),
(282,-9,o),
(236,4,o),
(219.5,12.5,qs,{
name = inserted;
}),
(203,21,o),
(185,37,o),
(184,40,q),
(184,33,o),
(184,27,o),
(184,20,qs),
(184,0,l),
(35,0,l)
);
},
{
closed = 1;
nodes = (
(283,303,o),
(238,284,o),
(223,267,qs),
(209,252,o),
(194,211,o),
(194,188,qs),
(194,162,o),
(213,117,o),
(230,101,qs),
(246,88,o),
(287,72,o),
(311,72,qs),
(337,72,o),
(379,89,o),
(395,104,qs),
(410,120,o),
(428,163,o),
(428,188,qs),
(428,215,o),
(408,260,o),
(391,275,qs),
(376,288,o),
(335,303,o),
(311,303,qs)
);
}
);
width = 547;
},
{
layerId = "51A9AA91-C68C-460C-8D6F-B89E075DCADB";
shapes = (
{
closed = 1;
nodes = (
(35,14,l),
(108,14,l),
(108,736,l),
(35,736,l),
(35,750,l),
(122,750,l),
(122,321,l),
(122,301,o),
(122,280,o),
(122,260,q),
(132,287,o),
(168,332,o),
(191.5,348.5,qs,{
name = inserted;
}),
(215,365,o),
(272,383,o),
(303,383,qs),
(343,383,o),
(414,352,o),
(440.5,326,qs,{
name = inserted;
}),
(467,300,o),
(497,228,o),
(497,188,qs),
(497,147,o),
(467,77,o),
(440.5,50.5,qs,{
name = inserted;
}),
(414,24,o),
(343,-6,o),
(303,-6,qs),
(272,-6,o),
(215,12,o),
(191.5,28.5,qs,{
name = inserted;
}),
(168,45,o),
(131,90,o),
(121,117,q),
(121,101,o),
(122,70,o),
(122,54,qs),
(122,0,l),
(35,0,l)
);
},
{
closed = 1;
nodes = (
(265,369,o),
(200,341,o),
(175,316,qs,{
name = inserted;
}),
(150,291,o),
(122,225,o),
(122,188,qs),
(122,150,o),
(150,85,o),
(175,60.5,qs,{
name = inserted;
}),
(200,36,o),
(265,8,o),
(303,8,qs),
(340,8,o),
(406,36,o),
(430.5,60.5,qs,{
name = inserted;
}),
(455,85,o),
(483,150,o),
(483,188,qs),
(483,225,o),
(455,291,o),
(430.5,316,qs,{
name = inserted;
}),
(406,341,o),
(340,369,o),
(303,369,qs)
);
}
);
width = 532;
}
);
unicode = 98;
},
{
glyphname = c;
lastChange = "2024-08-09 09:08:37 +0000";
layers = (
{
layerId = m001;
shapes = (
{
closed = 1;
nodes = (
(334,14,o),
(271,-9,o),
(235,-9,qs),
(193,-9,o),
(120,22,o),
(93,49,qs,{
name = inserted;
}),
(66,76,o),
(35,147,o),
(35,188,qs),
(35,228,o),
(66,300,o),
(93,326,qs,{
name = inserted;
}),
(120,353,o),
(193,384,o),
(235,384,qs),
(272,384,o),
(336,361,o),
(362,341,q),
(362,225,l),
(288,225,l),
(288,292,l),
(276,298,o,{
name = inserted;
}),
(249,303,o),
(235,303,qs),
(211,303,o),
(170,288,o),
(155,275,qs),
(137,259,o),
(118,215,o),
(118,188,qs),
(118,163,o),
(136,119,o),
(152,103,qs),
(168,89,o),
(210,72,o),
(235,72,qs),
(257,72,o,{
name = inserted;
}),
(294,84,o),
(310,97,q),
(360,34,l)
);
}
);
width = 397;
},
{
layerId = "51A9AA91-C68C-460C-8D6F-B89E075DCADB";
shapes = (
{
closed = 1;
nodes = (
(326,17,o),
(264,-6,o),
(229,-6,qs),
(188,-6,o),
(118,24,o),
(91.5,50.5,qs,{
name = inserted;
}),
(65,77,o),
(35,147,o),
(35,188,qs),
(35,228,o),
(65,300,o),
(91.5,326,qs,{
name = inserted;
}),
(118,352,o),
(188,383,o),
(229,383,qs),
(264,383,o),
(327,360,o),
(352,340,q),
(352,253,l),
(338,253,l),
(338,332,l),
(315,349,o),
(260,369,o),
(229,369,qs),
(191,369,o),
(126,341,o),
(101.5,316,qs,{
name = inserted;
}),
(77,291,o),
(49,225,o),
(49,188,qs),
(49,150,o),
(77,85,o),
(101.5,60.5,qs,{
name = inserted;
}),
(126,36,o),
(191,8,o),
(229,8,qs),
(261,8,o),
(319,29,o),
(342,47,q),
(352,37,l)
);
}
);
width = 387;
}
);
unicode = 99;
},
{
glyphname = ccedilla;
lastChange = "2024-08-09 09:08:37 +0000";
layers = (
{
layerId = m001;
shapes = (
{
closed = 1;
nodes = (
(315,-184,o,{
name = inserted;
}),
(262,-250,o),
(210,-250,qs),
(176,-250,o),
(119,-213,o),
(106,-175,q),
(152,-151,l),
(157,-167,o),
(183,-188,o),
(203,-188,qs),
(227,-188,o),
(253,-156,o),
(253,-132,qs),
(253,-112,o),
(231,-89,o),
(218,-80,qs,{
name = inserted;
}),
(206,-71,o),
(184,-51,o),
(184,-34,qs),
(184,-2,l),
(152,6,o),
(97,42,o),
(78,67,qs,{
name = inserted;
}),
(58,92,o),
(36,154,o),
(36,188,qs),
(36,228,o),
(67,300,o),
(94,326,qs,{
name = inserted;
}),
(121,353,o),
(194,384,o),
(236,384,qs),
(273,384,o),
(337,361,o),
(363,341,q),
(363,225,l),
(288,225,l),
(288,292,l),
(276,298,o,{
name = inserted;
}),
(250,303,o),
(236,303,qs),
(211,303,o),
(169,287,o),
(153,273,qs),
(137,257,o),
(119,214,o),
(119,188,qs),
(119,161,o),
(140,115,o),
(158,99,qs),
(173,86,o),
(213,72,o),
(236,72,qs),
(258,72,o,{
name = inserted;
}),
(296,84,o),
(311,97,q),
(361,34,l),
(335,14,o),
(271,-9,o),
(235,-9,q),
(235,-34,o),
(263,-51,o),
(277,-61,qs),
(298,-77,o),
(315,-117,o),
(315,-142,qs)
);
}
);
width = 398;
},
{
layerId = "51A9AA91-C68C-460C-8D6F-B89E075DCADB";
shapes = (
{
closed = 1;
nodes = (
(322,-178,o),
(271,-223,o),
(238,-223,qs),
(210.604,-223,o),
(167.425,-194.785,o),
(157,-165,q),
(172,-161,l),
(178,-183,o),
(214,-209,o),
(238,-209,qs),
(269,-209,o),
(308,-168,o),
(308,-137,qs),
(308,-109,o),
(282,-79,o),
(266.5,-68.5,qs,{
name = inserted;
}),
(251,-58,o),
(225,-32,o),
(225,-12,qs),
(225,-6,l),
(185,-5,o),
(116,25,o),
(90.5,51.5,qs,{
name = inserted;
}),
(65,78,o),
(35,148,o),
(35,188,qs),
(35,228,o),
(65,300,o),
(91.5,326,qs,{
name = inserted;
}),
(118,352,o),
(188,383,o),
(229,383,qs),
(264,383,o),
(327,360,o),
(352,340,q),
(352,252,l),
(338,252,l),
(338,332,l),
(315,349,o),
(260,369,o),
(229,369,qs),
(191,369,o),
(126,341,o),
(101.5,316,qs,{
name = inserted;
}),
(77,291,o),
(49,225,o),
(49,188,qs),
(49,150,o),
(77,85,o),
(101.5,60.5,qs,{
name = inserted;
}),
(126,36,o),
(191,8,o),
(229,8,qs),
(261,8,o),
(319,29,o),
(342,47,q),
(352,37,l),
(333,20,o),
(269,-6,o),
(239,-6,q),
(240,-28,o),
(268,-53,o),
(280,-61,qs),
(303,-76,o),
(322,-113,o),
(322,-127,qs)
);
}
);
width = 387;
}
);
unicode = 231;
},
{
glyphname = d;
lastChange = "2024-08-09 09:08:37 +0000";
layers = (
{
layerId = m001;
shapes = (
{
closed = 1;
nodes = (
(363,0,l),
(363,20,ls),
(363,27,o),
(363,33,o),
(363,40,q),
(362,37,o),
(344,21,o),
(327.5,12.5,qs,{
name = inserted;
}),
(311,4,o),
(265,-9,o),
(236,-9,qs),
(194,-9,o),
(120,22,o),
(93,49,qs,{
name = inserted;
}),
(66,76,o),
(35,148,o),
(35,188,qs),
(35,228,o),
(66,299,o),
(93,326,qs,{
name = inserted;
}),
(120,353,o),
(194,384,o),
(236,384,qs),
(261,384,o),
(306,370,o),
(323,361,qs,{
name = inserted;
}),
(340,352,o),
(354,341,o),
(356,338,q),
(354,346,o),
(353,371,o),
(353,378,q),
(353,671,l),
(287,671,l),
(287,750,l),
(436,750,l),
(436,79,l),
(512,79,l),
(512,0,l)
);
},
{
closed = 1;
nodes = (
(210,303,o),
(166,285,o),
(150,270,qs),
(136,254,o),
(119,213,o),
(119,188,qs),
(119,162,o),
(139,116,o),
(156,101,qs),
(171,87,o),
(212,72,o),
(236,72,qs),
(260,72,o),
(300,87,o),
(316,101,qs),
(333,116,o),
(353,162,o),
(353,188,qs),
(353,216,o),
(332,262,o),
(314,277,qs),
(299,289,o),
(259,303,o),
(236,303,qs)
);
}
);
width = 547;
},
{
layerId = "51A9AA91-C68C-460C-8D6F-B89E075DCADB";
shapes = (
{
closed = 1;
nodes = (
(410,0,l),
(410,54,ls),
(410,70,o),
(411,101,o),
(411,117,q),
(400,90,o),
(364,45,o),
(340.5,28.5,qs,{
name = inserted;
}),
(317,12,o),
(260,-6,o),
(229,-6,qs),
(188,-6,o),
(118,24,o),
(91.5,50.5,qs,{
name = inserted;
}),
(65,77,o),
(35,147,o),
(35,188,qs),
(35,228,o),
(65,300,o),
(91.5,326,qs,{
name = inserted;
}),
(118,352,o),
(188,383,o),
(229,383,qs),
(260,383,o),
(317,365,o),
(340.5,348.5,qs,{
name = inserted;
}),
(364,332,o),
(399,287,o),
(410,260,q),
(410,300,o),
(410,339,o),
(410,379,q),
(410,736,l),
(337,736,l),
(337,750,l),
(424,750,l),
(424,14,l),
(497,14,l),
(497,0,l)
);
},
{
closed = 1;
nodes = (
(191,369,o),
(126,341,o),
(101.5,316,qs,{
name = inserted;
}),
(77,291,o),
(49,225,o),
(49,188,qs),
(49,150,o),
(77,85,o),
(101.5,60.5,qs,{
name = inserted;
}),
(126,36,o),
(191,8,o),
(229,8,qs),
(266,8,o),
(332,36,o),
(357,60.5,qs,{
name = inserted;
}),
(382,85,o),
(410,150,o),
(410,188,qs),
(410,225,o),
(382,291,o),
(357,316,qs,{
name = inserted;
}),
(332,341,o),
(266,369,o),
(229,369,qs)
);
}
);
width = 532;
}
);
unicode = 100;
},
{
glyphname = eth;
lastChange = "2024-08-09 09:08:37 +0000";
layers = (
{
layerId = m001;
shapes = (
{
closed = 1;
nodes = (
(169,91,o),
(213,74,o),
(239,75,qs),
(265,76,o),
(307,95,o),
(322,111,qs,{
name = inserted;
}),
(337,127,o),
(353,170,o),
(353,194,qs),
(352,219,o),
(333,261,o),
(318,276,qs,{
name = inserted;
}),
(302,291,o),
(258,307,o),
(233,306,qs),
(206,305,o),
(163,286,o),
(148,271,qs),
(133,255,o),
(118,213,o),
(119,188,qs),
(119,163,o),
(138,121,o),
(154,106,qs,{
name = inserted;
})
);
},
{
closed = 1;
nodes = (
(356,29,o),
(284,-5,o),
(242,-6,qs),
(200,-7,o),
(126,22,o),
(98,48,qs,{
name = inserted;
}),
(70,74,o),
(36,144,o),
(35,185,qs),
(34,225,o),
(63,298,o),
(90,325,qs,{
name = inserted;
}),
(116,352,o),
(188,385,o),
(230,386,qs),
(246,386,o,{
name = inserted;
}),
(278,382,o),
(294,378,q),
(287,399,o),
(270,440,o),
(260,459,qs),
(250,477,o),
(229,511,o),
(218,528,q),
(172,478,l),
(114,531,l),
(128,546,o),
(156,576,o),
(170,591,q),
(148,616,o,{
name = inserted;
}),
(102,662,o),
(78,683,q),
(139,738,l),
(162,720,o,{
name = inserted;
}),
(206,679,o),
(229,655,q),
(240,668,o),
(263,692,o),
(274,705,q),
(288,692,o),
(318,667,o),
(332,654,q),
(318,639,o),
(292,610,o),
(278,595,q),
(309,554,o),
(366,456,o),
(388,404,qs,{
name = inserted;
}),
(410,352,o),
(436,246,o),
(436,197,qs),
(437,156,o),
(408,84,o),
(382,56,qs,{
name = inserted;
})
);
}
);
width = 471;
},
{
layerId = "51A9AA91-C68C-460C-8D6F-B89E075DCADB";
shapes = (
{
closed = 1;
nodes = (
(126,36,o),
(191,8,o),
(229,8,qs),
(266,8,o),
(332,36,o),
(357,60.5,qs,{
name = inserted;
}),
(382,85,o),
(410,150,o),
(410,188,qs),
(410,225,o),
(382,291,o),
(357,316,qs,{
name = inserted;
}),
(332,341,o),
(266,369,o),
(229,369,qs),
(191,369,o),
(126,341,o),
(101.5,316,qs,{
name = inserted;
}),
(77,291,o),
(49,225,o),
(49,188,qs),
(49,150,o),
(77,85,o),
(101.5,60.5,qs,{
name = inserted;
})
);
},
{
closed = 1;
nodes = (
(341,24,o),
(269,-6,o),
(229,-6,qs),
(188,-6,o),
(118,24,o),
(91.5,50.5,qs,{
name = inserted;
}),
(65,77,o),
(35,147,o),
(35,188,qs),
(35,228,o),
(65,300,o),
(91.5,326,qs,{
name = inserted;
}),
(118,352,o),
(188,383,o),
(229,383,qs),
(280,383,o),
(366,335,o),
(392,295,q),
(386,323,o),
(359,396,o),
(337,438,qs,{
name = inserted;
}),
(315,480,o),
(254,572,o),
(212,620,q),
(137,539,l),
(129,547,l),
(148,567,o),
(186,609,o),
(205,629,q),
(183,652,o),
(137,697,o),
(111,717,q),
(117,726,l),
(141,708,o,{
name = inserted;
}),
(189,663.5,o),
(213,637,q),
(230,657,o),
(266,694,o),
(283,714,q),
(285,712,o),
(289,709,o),
(291,707,q),
(273,687,o),
(238,649,o),
(220,629,q),
(261,581,o),
(335,471,o),
(363,414,qs,{
name = inserted;
}),
(391,357,o),
(424,242,o),
(424,188,qs),
(424,147,o),
(393,77,o),
(367,50.5,qs,{
name = inserted;
})
);
}
);
width = 459;
}
);
unicode = 240;
},
{
glyphname = e;
lastChange = "2024-08-09 09:08:37 +0000";
layers = (
{
layerId = m001;
shapes = (
{
closed = 1;
nodes = (
(207,303,o),
(162,284,o),
(146,267,qs),
(134,253,o),
(119,217,o),
(118,196,q),
(165,213,o),
(258,248,o),
(305,265,q),
(291,282,o),
(256,303,o),
(235,303,qs)
);
},
{
closed = 1;
nodes = (
(337,19,o),
(273,-9,o),
(235,-9,qs),
(193,-9,o),
(120,22,o),
(93,49,qs,{
name = inserted;
}),
(66,76,o),
(35,147,o),
(35,188,qs),
(35,228,o),
(66,300,o),
(93,326.5,qs,{
name = inserted;
}),
(120,353,o),
(193,384,o),
(235,384,qs),
(266,384,o),
(323,359,o),
(345.5,337,qs,{
name = inserted;
}),
(368,315,o),
(402,254,o),
(411,218,q),
(343,193,o),
(208,143,o),
(140,118,q),
(155,97,o),
(204,72,o),
(235,72,qs),
(258,72,o,{
name = inserted;
}),
(296,88,o),
(311,104,q),
(362,44,l)
);
}
);
width = 450;
},
{
layerId = "51A9AA91-C68C-460C-8D6F-B89E075DCADB";
shapes = (
{
closed = 1;
nodes = (
(184,369,o),
(109,328,o),
(84.5,295,qs,{
name = inserted;
}),
(60,262,o),
(43,178,o),
(56,135,q),
(137,168,o),
(299,233,o),
(380,266,q),
(360,312,o),
(279,369,o),
(229,369,qs)
);
},
{
closed = 1;
nodes = (
(336,22,o),
(268,-6,o),
(229,-6,qs),
(188,-6,o),
(118,24,o),
(92,50,qs,{
name = inserted;
}),
(65,77,o),
(35,147,o),
(35,188,qs),
(35,228,o),
(65,300,o),
(92,326,qs,{
name = inserted;
}),
(118,352,o),
(188,383,o),
(229,383,qs),
(259,383,o),
(314,364,o),
(336,346,qs),
(356,330,o),
(388,286,o),
(398,259,q),
(313,224,o),
(146,157,o),
(61,122,q),
(81,71,o),
(171,8,o),
(229,8,qs),
(265,8,o),
(329,34,o),
(353,57,q),
(362,46,l)
);
}
);
width = 435;
}
);
unicode = 101;
},
{
glyphname = f;
lastChange = "2024-08-09 09:08:37 +0000";
layers = (
{
layerId = m001;
shapes = (
{
closed = 1;
nodes = (
(35,0,l),
(35,79,l),
(96,79,l),
(96,294,l),
(35,294,l),
(35,375,l),
(95,375,l),
(95,517,ls),
(95,573,o),
(132,659,o),
(164,688,qs,{
name = inserted;
}),
(196,718,o),
(285,749,o),
(336,751,q),
(336,672,l),
(302,670,o),
(245,649,o),
(224,630,qs),
(202,610,o),
(178,552,o),
(178,514,qs),
(178,375,l),
(296,375,l),
(296,294,l),
(178,294,l),
(178,79,l),
(257,79,l),
(257,0,l)
);
}
);
width = 336;
},
{
layerId = "51A9AA91-C68C-460C-8D6F-B89E075DCADB";
shapes = (
{
closed = 1;
nodes = (
(35,0,l),
(35,14,l),
(96,14,l),
(96,361,l),
(35,361,l),
(35,375,l),
(96,375,l),
(96,518,ls),
(96,573,o),
(125,659,o),
(150.5,688,qs,{
name = inserted;
}),
(176,717,o),
(243,748,o),
(281,750,q),
(281,736,l),
(247,736,o),
(185,706,o),
(161.5,678,qs,{
name = inserted;
}),
(138,650,o),
(110,571,o),
(110,522,qs),
(110,375,l),
(240,375,l),
(240,361,l),
(110,361,l),
(110,14,l),
(209,14,l),
(209,0,l)
);
}
);
width = 281;
}
);
unicode = 102;
},
{
glyphname = g;
lastChange = "2024-08-09 09:08:37 +0000";
layers = (
{
layerId = m001;
shapes = (
{
closed = 1;
nodes = (
(133,-122,l),
(153,-137,o),
(206,-164,o),
(235,-164,qs),
(261,-164,o),
(304,-146,o),
(320,-130.5,qs,{
name = inserted;
}),
(336,-115,o),
(353,-72,o),
(353,-47,qs),
(353,12,l),
(353,14,o),
(354,28,o),
(356,34,q),
(353,29,o),
(335,16,o),
(323,10,qs,{
name = inserted;
}),
(307,2,o),
(263,-8,o),
(236,-8,qs),
(194,-8,o),
(120,23,o),
(93,49.5,qs,{
name = inserted;
}),
(66,76,o),
(35,147,o),
(35,187,qs),
(35,226,o),
(66,298,o),
(93,325,qs,{
name = inserted;
}),
(120,352,o),
(194,384,o),
(236,384,qs),
(284,384,o),
(351,347,o),
(363,328,q),
(363,339,o),
(365,361,o),
(367,375,q),
(512,375,l),
(512,296,l),
(436,296,l),
(436,-60,ls),
(436,-100,o),
(405,-169,o),
(378,-194.5,qs,{
name = inserted;
}),
(351,-220,o),
(279,-250,o),
(237,-250,qs),
(192,-250,o),
(108,-211,o),
(78,-190,q)
);
},
{
closed = 1;
nodes = (
(208,303,o),
(162,283,o),
(147,266,qs),
(133,251,o),
(119,211,o),
(119,188,qs),
(119,162,o),
(138,118,o),
(154,102,qs),
(170,88,o),
(211,72,o),
(236,72,qs),
(263,72,o),
(307,91,o),
(322,107,qs),
(337,122,o),
(353,164,o),
(353,188,qs),
(353,216,o),
(332,261,o),
(314,277,qs),
(299,289,o),
(259,303,o),
(236,303,qs)
);
}
);
width = 547;
},
{
layerId = "51A9AA91-C68C-460C-8D6F-B89E075DCADB";
shapes = (
{
closed = 1;
nodes = (
(101,-183,l),
(124,-210,o),
(198,-236,o),
(239,-236,qs),
(273,-236,o),
(336,-206,o),
(359,-178,qs,{
name = inserted;
}),
(382,-150,o),
(410,-71,o),
(410,-22,qs),
(410,54,ls),
(410,70,o),
(411,101,o),
(411,117,q),
(400,90,o),
(364,45,o),
(340.5,28.5,qs,{
name = inserted;
}),
(317,12,o),
(260,-6,o),
(229,-6,qs),
(188,-6,o),
(118,24,o),
(91.5,50.5,qs,{
name = inserted;
}),
(65,77,o),
(35,147,o),
(35,188,qs),
(35,228,o),
(65,300,o),
(91.5,326,qs,{
name = inserted;
}),
(118,352,o),
(188,383,o),
(229,383,qs),
(291,383,o),
(388,314,o),
(410,260,q),
(410,289,o),
(412,346,o),
(414,375,q),
(498,375,l),
(498,361,l),
(424,361,l),
(424,-18,ls),
(424,-74,o),
(395,-159,o),
(369.5,-188,qs,{
name = inserted;
}),
(344,-217,o),
(277,-249,o),
(239,-250,q),
(189,-250,o),
(116,-224,o),
(90,-193,q)
);
},
{
closed = 1;
nodes = (
(191,369,o),
(126,341,o),
(101.5,316,qs,{
name = inserted;
}),
(77,291,o),
(49,225,o),
(49,188,qs),
(49,150,o),
(77,85,o),
(101.5,60.5,qs,{
name = inserted;
}),
(126,36,o),
(191,8,o),
(229,8,qs),
(266,8,o),
(332,36,o),
(357,60.5,qs,{
name = inserted;
}),
(382,85,o),
(410,150,o),
(410,188,qs),
(410,225,o),
(382,291,o),
(357,316,qs,{
name = inserted;
}),
(332,341,o),
(266,369,o),
(229,369,qs)
);
}
);
width = 533;
}
);
unicode = 103;
},
{
glyphname = h;
lastChange = "2024-08-09 09:08:37 +0000";
layers = (
{
layerId = m001;
shapes = (
{
closed = 1;
nodes = (
(35,0,l),
(35,79,l),
(111,79,l),
(111,671,l),
(35,671,l),
(35,750,l),
(194,750,l),
(194,324,l),
(191,279,l),
(213,328,o),
(297,381,o),
(354,384,q),
(413,384,o),
(481,322,o),
(483,272,qs),
(483,79,l),
(545,79,l),
(545,0,l),
(323,0,l),
(323,79,l),
(400,79,l),
(400,234,l),
(398,261,o),
(363,300,o),
(325,302,q),
(299,302,o),
(252,284,o),
(234,268,qs,{
name = inserted;
}),
(216,252,o),
(194,208,o),
(194,182,qs),
(194,79,l),
(257,79,l),
(257,0,l)
);
}
);
width = 580;
},
{
layerId = "51A9AA91-C68C-460C-8D6F-B89E075DCADB";
shapes = (
{
closed = 1;
nodes = (
(35,0,l),
(35,14,l),
(114,14,l),
(114,736,l),
(41,736,l),
(41,750,l),
(128,750,l),
(128,322,l),
(125,277,l),
(145,324,o),
(233,382,o),
(290,382,qs),
(343,382,o),
(404,320,o),
(406,270,qs),
(406,14,l),
(487,14,l),
(487,0,l),
(313,0,l),
(313,14,l),
(392,14,l),
(392,277,l),
(390,313,o),
(341,366,o),
(297,368,qs),
(263,368,o),
(202,346,o),
(178.5,326.5,qs,{
name = inserted;
}),
(155,307,o),
(128,252,o),
(128,220,qs),
(128,14,l),
(209,14,l),
(209,0,l)
);
}
);
width = 522;
}
);
unicode = 104;
},
{
glyphname = i;
lastChange = "2024-08-09 09:08:37 +0000";
layers = (
{
layerId = m001;
shapes = (
{
closed = 1;
nodes = (
(35,0,l),
(35,79,l),
(105,79,l),
(105,296,l),
(35,296,l),
(35,375,l),
(188,375,l),
(188,79,l),
(257,79,l),
(257,0,l)
);
},
{
closed = 1;
nodes = (
(199,497,o),
(167,468,o),
(148,468,qs),
(128,468,o),
(96,497,o),
(96,520,qs),
(96,543,o),
(128,573,o),
(148,573,qs),
(167,573,o),
(199,543,o),
(199,520,qs)
);
}
);
width = 292;
},
{
layerId = "51A9AA91-C68C-460C-8D6F-B89E075DCADB";
shapes = (
{
closed = 1;
nodes = (
(35,0,l),
(35,14,l),
(117,14,l),
(117,361,l),
(35,361,l),
(35,375,l),
(131,375,l),
(131,14,l),
(209,14,l),
(209,0,l)
);
},
{
closed = 1;
nodes = (
(144,492,o),
(132,480,o),
(124,480,qs),
(116,480,o),
(104,492,o),
(104,500,qs),
(104,508,o),
(116,520,o),
(124,520,qs),
(132,520,o),
(144,508,o),
(144,500,qs)
);
}
);
width = 244;
}
);
unicode = 105;
},
{
glyphname = idotless;
lastChange = "2024-08-09 09:33:05 +0000";
layers = (
{
layerId = m001;
shapes = (
{
closed = 1;
nodes = (
(35,0,l),
(35,79,l),
(105,79,l),
(105,296,l),
(35,296,l),
(35,375,l),
(188,375,l),
(188,79,l),
(257,79,l),
(257,0,l)
);
}
);
width = 292;
},
{
layerId = "51A9AA91-C68C-460C-8D6F-B89E075DCADB";
shapes = (
{
closed = 1;
nodes = (
(35,0,l),
(35,14,l),
(117,14,l),
(117,361,l),
(35,361,l),
(35,375,l),
(131,375,l),
(131,14,l),
(209,14,l),
(209,0,l)
);
}
);
width = 244;
}
);
unicode = 305;
},
{
glyphname = j;
lastChange = "2024-08-09 09:08:37 +0000";
layers = (
{
layerId = m001;
shapes = (
{
closed = 1;
nodes = (
(177,-61,o),
(135,-152,o),
(97,-181,q),
(40,-119,l),
(66,-99,o),
(94,-39,o),
(94,3,qs),
(94,296,l),
(35,296,l),
(35,375,l),
(177,375,l),
(177,0,ls)
);
},
{
closed = 1;
nodes = (
(190,497,o),
(158,468,o),
(139,468,qs),
(119,468,o),
(87,497,o),
(87,520,qs),
(87,543,o),
(119,573,o),
(139,573,qs),
(158,573,o),
(190,543,o),
(190,520,qs)
);
}
);
width = 212;
},
{
layerId = "51A9AA91-C68C-460C-8D6F-B89E075DCADB";
shapes = (
{
closed = 1;
nodes = (
(131,-64,o),
(100,-151,o),
(74,-180,q),
(62,-171,l),
(87,-143,o),
(117,-62,o),
(117,-11,qs),
(117,361,l),
(35,361,l),
(35,375,l),
(131,375,l),
(131,-7,ls)
);
},
{
closed = 1;
nodes = (
(144,492,o),
(132,480,o),
(124,480,qs),
(116,480,o),
(104,492,o),
(104,500,qs),
(104,508,o),
(116,520,o),
(124,520,qs),
(132,520,o),
(144,508,o),
(144,500,qs)
);
}
);
width = 166;
}
);
unicode = 106;
},
{
glyphname = k;
lastChange = "2024-08-09 09:08:37 +0000";
layers = (
{
layerId = m001;
shapes = (
{
closed = 1;
nodes = (
(35,79,l),
(111,79,l),
(111,671,l),
(45,671,l),
(45,750,l),
(194,750,l),
(194,211,l),
(285,296,l),
(248,296,l),
(248,375,l),
(449,375,l),
(449,296,l),
(387,296,l),
(365,276,o),
(323,234,o),
(301,214,q),
(325,180,o),
(374,113,o),
(399,79,q),
(492,79,l),
(492,0,l),
(291,0,l),
(291,79,l),
(302,79,l),
(287,99,o),
(257,140,o),
(243,160,q),
(194,114,l),
(194,79,l),
(257,79,l),
(257,0,l),
(35,0,l)
);
}
);
width = 527;
},
{
layerId = "51A9AA91-C68C-460C-8D6F-B89E075DCADB";
shapes = (
{
closed = 1;
nodes = (
(35,14,l),
(107,14,l),
(107,736,l),
(34,736,l),
(34,750,l),
(121,750,l),
(121,176,l),
(319,361,l),
(243,361,l),
(243,375,l),
(417,375,l),
(417,361,l),
(338,361,l),
(302,325,o),
(245,271,o),
(207,235,q),
(247,179,o),
(328,69,o),
(369,14,q),
(452,14,l),
(452,0,l),
(278,0,l),
(278,14,l),
(351,14,l),
(312,67,o),
(233,171,o),
(195,225,q),
(121,155,l),
(121,14,l),
(209,14,l),
(209,0,l),
(35,0,l)
);
}
);
width = 487;
}
);
unicode = 107;
},
{
glyphname = l;
lastChange = "2024-08-09 09:08:37 +0000";
layers = (
{
layerId = m001;
shapes = (
{
closed = 1;
nodes = (
(35,0,l),
(35,79,l),
(111,79,l),
(111,671,l),
(45,671,l),
(45,750,l),
(194,750,l),
(194,79,l),
(257,79,l),
(257,0,l)
);
}
);
width = 292;
},
{
layerId = "51A9AA91-C68C-460C-8D6F-B89E075DCADB";
shapes = (
{
closed = 1;
nodes = (
(35,0,l),
(35,14,l),
(107,14,l),
(107,736,l),
(34,736,l),
(34,750,l),
(121,750,l),
(121,14,l),
(209,14,l),
(209,0,l)
);
}
);
width = 244;
}
);
unicode = 108;
},
{
glyphname = m;
lastChange = "2024-08-09 09:08:37 +0000";
layers = (
{
layerId = m001;
shapes = (
{
closed = 1;
nodes = (
(35,0,l),
(35,79,l),
(111,79,l),
(111,296,l),
(45,296,l),
(45,375,l),
(184,375,l),
(184,366,l),
(186,342,o),
(189,303,o),
(191,279,q),
(212,327,o),
(297,382,o),
(354,384,qs),
(409,384,o),
(476,329,o),
(482,284,q),
(504,330,o),
(588,382,o),
(643,384,qs),
(702,384,o),
(770,322,o),
(772,272,qs),
(772,79,l),
(835,79,l),
(835,0,l),
(613,0,l),
(613,79,l),
(689,79,l),
(689,234,l),
(687,261,o),
(652,300,o),
(614,302,q),
(588,302,o),
(541,284,o),
(523,268,qs,{
name = inserted;
}),
(505,252,o),
(483,208,o),
(483,182,qs),
(483,79,l),
(546,79,l),
(546,0,l),
(324,0,l),
(324,79,l),
(400,79,l),
(400,234,l),
(398,261,o),
(363,300,o),
(325,302,q),
(299,302,o),
(252,284,o),
(234,268,qs,{
name = inserted;
}),
(216,252,o),
(194,208,o),
(194,182,qs),
(194,79,l),
(257,79,l),
(257,0,l)
);
}
);
width = 870;
},
{
layerId = "51A9AA91-C68C-460C-8D6F-B89E075DCADB";
shapes = (
{
closed = 1;
nodes = (
(35,0,l),
(35,14,l),
(114,14,l),
(114,361,l),
(39,361,l),
(39,375,l),
(122,375,l),
(124,322,ls),
(124,309,o),
(125,290,o),
(125,277,q),
(145,324,o),
(233,382,o),
(290,382,qs),
(339,382,o),
(400,327,o),
(405,282,q),
(426,327,o),
(513,382,o),
(568,382,qs),
(621,382,o),
(682,320,o),
(684,270,qs),
(684,14,l),
(765,14,l),
(765,0,l),
(591,0,l),
(591,14,l),
(670,14,l),
(670,277,l),
(668,313,o),
(619,366,o),
(575,368,qs),
(542,368,o),
(482,347,o),
(459,328,qs,{
name = inserted;
}),
(436,309,o),
(407,257,o),
(406,226,q),
(406,14,l),
(487,14,l),
(487,0,l),
(313,0,l),
(313,14,l),
(392,14,l),
(392,277,l),
(390,313,o),
(341,366,o),
(297,368,qs),
(263,368,o),
(202,346,o),
(178.5,326.5,qs,{
name = inserted;
}),
(155,307,o),
(128,252,o),
(128,220,qs),
(128,14,l),
(209,14,l),
(209,0,l)
);
}
);
width = 800;
}
);
unicode = 109;
},
{
glyphname = n;
lastChange = "2024-08-09 09:08:37 +0000";
layers = (
{
layerId = m001;
shapes = (
{
closed = 1;
nodes = (
(35,0,l),
(35,79,l),
(111,79,l),
(111,296,l),
(45,296,l),
(45,375,l),
(184,375,l),
(184,366,l),
(186,342,o),
(189,303,o),
(191,279,q),
(211,327,o),
(300,384,o),
(354,384,qs),
(413,384,o),
(481,322,o),
(483,272,qs),
(483,79,l),
(545,79,l),
(545,0,l),
(323,0,l),
(323,79,l),
(400,79,l),
(400,234,l),
(398,261,o),
(363,300,o),
(325,302,q),
(299,302,o),
(252,284,o),
(234,268,qs,{
name = inserted;
}),
(216,252,o),
(194,208,o),
(194,182,qs),
(194,79,l),
(257,79,l),
(257,0,l)
);
}
);
width = 580;
},
{
layerId = "51A9AA91-C68C-460C-8D6F-B89E075DCADB";
shapes = (
{
closed = 1;
nodes = (
(35,0,l),
(35,14,l),
(114,14,l),
(114,361,l),
(39,361,l),
(39,375,l),
(122,375,l),
(124,322,ls),
(124,309,o),
(125,290,o),
(125,277,q),
(145,324,o),
(233,382,o),
(290,382,qs),
(343,382,o),
(404,320,o),
(406,270,qs),
(406,14,l),
(487,14,l),
(487,0,l),
(313,0,l),
(313,14,l),
(392,14,l),
(392,277,l),
(390,313,o),
(341,366,o),
(297,368,qs),
(263,368,o),
(202,346,o),
(178.5,326.5,qs,{
name = inserted;
}),
(155,307,o),
(128,252,o),
(128,220,qs),
(128,14,l),
(209,14,l),
(209,0,l)
);
}
);
width = 522;
}
);
unicode = 110;
},
{
glyphname = o;
lastChange = "2024-08-09 09:08:37 +0000";
layers = (
{
layerId = m001;
shapes = (
{
closed = 1;
nodes = (
(351,22,o),
(277,-9,o),
(235,-9,qs),
(193,-9,o),
(120,22,o),
(93,49,qs,{
name = inserted;
}),
(66,76,o),
(35,147,o),
(35,188,qs),
(35,228,o),
(66,300,o),
(93,326.5,qs,{
name = inserted;
}),
(120,353,o),
(193,384,o),
(235,384,qs),
(277,384,o),
(351,353,o),
(378,326.5,qs,{
name = inserted;
}),
(405,300,o),
(436,228,o),
(436,188,qs),
(436,147,o),
(405,76,o),
(378,49,qs,{
name = inserted;
})
);
},
{
closed = 1;
nodes = (
(167,90,o),
(209,72,o),
(233,72,qs),
(257,72,o),
(299,90,o),
(315,105.5,qs,{
name = inserted;
}),
(331,121,o),
(349,163,o),
(349,187,qs),
(349,211,o),
(331,253,o),
(315,269,qs,{
name = inserted;
}),
(299,285,o),
(257,303,o),
(233,303,qs),
(209,303,o),
(167,285,o),
(151.5,269,qs,{
name = inserted;
}),
(136,253,o),
(118,211,o),
(118,187,qs),
(118,163,o),
(136,121,o),
(151.5,105.5,qs,{
name = inserted;
})
);
}
);
width = 471;
},
{
layerId = "51A9AA91-C68C-460C-8D6F-B89E075DCADB";
shapes = (
{
closed = 1;
nodes = (
(342,24,o),
(270,-6,o),
(230,-6,qs),
(189,-6,o),
(119,24,o),
(92.5,50.5,qs,{
name = inserted;
}),
(66,77,o),
(36,147,o),
(36,188,qs),
(36,228,o),
(66,300,o),
(92.5,326.5,qs,{
name = inserted;
}),
(119,353,o),
(189,384,o),
(230,384,qs),
(270,384,o),
(342,353,o),
(368.5,326.5,qs,{
name = inserted;
}),
(395,300,o),
(426,228,o),
(426,188,qs),
(426,147,o),
(395,77,o),
(368.5,50.5,qs,{
name = inserted;
})
);
},
{
closed = 1;
nodes = (
(127,36,o),
(192,8,o),
(230,8,qs),
(267,8,o),
(333,36,o),
(358,60.5,qs,{
name = inserted;
}),
(383,85,o),
(411,150,o),
(411,188,qs),
(411,225,o),
(383,291,o),
(358,316,qs,{
name = inserted;
}),
(333,341,o),
(267,369,o),
(230,369,qs),
(192,369,o),
(127,341,o),
(102.5,316,qs,{
name = inserted;
}),
(78,291,o),
(50,225,o),
(50,188,qs),
(50,150,o),
(78,85,o),
(102.5,60.5,qs,{
name = inserted;
})
);
}
);
width = 461;
}
);
unicode = 111;
},
{
glyphname = oslash;
lastChange = "2024-08-09 09:08:37 +0000";
layers = (
{
layerId = m001;
shapes = (
{
closed = 1;
nodes = (
(118,170,o,{
name = inserted;
}),
(126,139,o),
(135,125,q),
(172,168,o),
(244,252,o),
(281,295,q),
(270,299,o,{
name = inserted;
}),
(247,303,o),
(235,303,qs),
(209,303,o),
(165,285,o),
(150,270,qs),
(135,255,o),
(118,213,o),
(118,188,qs)
);
},
{
closed = 1;
nodes = (
(192,78,o,{
name = inserted;
}),
(220,72,o),
(235,72,qs),
(257,72,o),
(294,85,o),
(309,96,qs),
(329,111,o),
(352,159,o),
(352,188,qs),
(352,208,o),
(340,245,o),
(329,259,q),
(279,201,o),
(229,143,o),
(179,85,q)
);
},
{
closed = 1;
nodes = (
(115,11,o),
(95,-14,o),
(84,-26,q),
(73,-16,o),
(49,2,o),
(38,12,q),
(49,25,o),
(70,49,o),
(81,62,q),
(59,88,o),
(35,152,o),
(35,188,qs),
(35,228,o),
(66,300,o),
(93,326.5,qs,{
name = inserted;
}),
(120,353,o),
(193,384,o),
(235,384,qs),
(263,384,o,{
name = inserted;
}),
(313,371,o),
(335,358,q),
(344,369,o),
(363,390,o),
(372,401,q),
(383,391,o),
(406,371,o),
(417,361,q),
(409,351,o),
(391,331,o),
(383,321,q),
(408,295,o),
(436,226,o),
(436,188,qs),
(436,147,o),
(405,76,o),
(378,49,qs,{
name = inserted;
}),
(351,22,o),
(277,-9,o),
(235,-9,qs),
(204,-9,o),
(149,8,o),
(126,23,q)
);
}
);
width = 471;
},
{
layerId = "51A9AA91-C68C-460C-8D6F-B89E075DCADB";
shapes = (
{
closed = 1;
nodes = (
(49,150,o),
(78,83,o),
(103,58,q),
(161,127,o),
(276,266,o),
(334,335,q),
(312,351,o),
(258,369,o),
(229,369,qs),
(191,369,o),
(126,341,o),
(101.5,316,qs,{
name = inserted;
}),
(77,291,o),
(49,225,o),
(49,188,qs)
);
},
{
closed = 1;
nodes = (
(137,29,o,{
name = inserted;
}),
(195.5,8,o),
(229,8,qs),
(266,8,o),
(332,36,o),
(357,60.5,qs,{
name = inserted;
}),
(382,85,o),
(410,150,o),
(410,188,qs),
(410,230,o),
(374,302,o),
(344,327,q),
(286,258,o),
(170,119,o),
(112,50,q)
);
},
{
closed = 1;
nodes = (
(93,27,o),
(74,4,o),
(64,-8,q),
(62,-6,o),
(57,-2,o),
(55,0,q),
(65,12,o),
(84,35,o),
(94,47,q),
(66,73,o),
(35,146,o),
(35,188,qs),
(35,228,o),
(65,300,o),
(91.5,326,qs,{
name = inserted;
}),
(118,352,o),
(188,383,o),
(229,383,qs),
(261,383,o),
(320,363,o),
(344,346,q),
(352,355,o),
(367,374,o),
(375,383,q),
(377,381,o),
(382,377,o),
(384,375,q),
(376,366,o),
(361,347,o),
(353,338,q),
(385,312,o),
(424,233,o),
(424,188,qs),
(424,147,o),
(393,77,o),
(367,50.5,qs,{
name = inserted;
}),
(341,24,o),
(269,-6,o),
(229,-6,qs),
(193,-6,o),
(129,18,o),
(103,39,q)
);
}
);
width = 458;
}
);
unicode = 248;
},
{
glyphname = oe;
lastChange = "2024-08-09 09:08:37 +0000";
layers = (
{
background = {
shapes = (
{
closed = 1;
nodes = (
(575,19,o),
(511,-9,o),
(473,-9,qs),
(439,-9,o),
(379,11,o),
(354,29,q),
(330,11,o),
(269,-9,o),
(235,-9,qs),
(193,-9,o),
(120,22,o),
(93,49,qs,{
name = inserted;
}),
(66,76,o),
(35,147,o),
(35,188,qs),
(35,228,o),
(66,300,o),
(93,327,qs,{
name = inserted;
}),
(120,353,o),
(193,384,o),
(235,384,qs),
(269,384,o),
(330,364,o),
(354,346,q),
(379,364,o),
(439,384,o),
(473,384,qs),
(504,384,o),
(561,359,o),
(584,337,qs,{
name = inserted;
}),
(606,315,o),
(640,254,o),
(649,218,q),
(610,204,o),
(534,175,o),
(496,161,qs),
(466,151,o),
(407,129,o),
(378,118,q),
(393,97,o),
(442,72,o),
(473,72,qs),
(496,72,o,{
name = inserted;
}),
(534,88,o),
(549,104,q),
(600,44,l)
);
},
{
closed = 1;
nodes = (
(209,303,o),
(167,285,o),
(152,269,qs,{
name = inserted;
}),
(136,253,o),
(118,211,o),
(118,187,qs),
(118,163,o),
(136,121,o),
(152,106,qs,{
name = inserted;
}),
(167,90,o),
(209,72,o),
(233,72,qs),
(251,72,o),
(284,82,o),
(298,92,q),
(286,113,o),
(273,162,o),
(273,188,qs),
(273,214,o),
(286,262,o),
(298,283,q),
(284,293,o),
(251,303,o),
(233,303,qs)
);
},
{
closed = 1;
nodes = (
(529,282,o),
(494,303,o),
(473,303,qs),
(445,303,o),
(400,284,o),
(384,267,qs),
(376,257,o),
(363,234,o),
(360,221,qs),
(358,215,o),
(356,203,o),
(356,196,q),
(380,205,o),
(429,223,o),
(452,232,qs),
(475,240,o),
(520,257,o),
(543,265,q)
);
}
);
};
layerId = m001;
shapes = (
{
closed = 1;
nodes = (
(575,19,o),
(511,-9,o),
(473,-9,qs),
(439,-9,o),
(379,11,o),
(354,29,q),
(330,11,o),
(269,-9,o),
(235,-9,qs),
(193,-9,o),
(120,22,o),
(93,49,qs,{
name = inserted;
}),
(66,76,o),
(35,147,o),
(35,188,qs),
(35,228,o),
(66,300,o),
(93,327,qs,{
name = inserted;
}),
(120,353,o),
(193,384,o),
(235,384,qs),
(269,384,o),
(330,364,o),
(354,346,q),
(379,364,o),
(439,384,o),
(473,384,qs),
(504,384,o),
(561,359,o),
(584,337,qs,{
name = inserted;
}),
(606,315,o),
(640,254,o),
(649,218,q),
(610,204,o),
(534,175,o),
(496,161,qs),
(466,151,o),
(407,129,o),
(378,118,q),
(393,97,o),
(442,72,o),
(473,72,qs),
(496,72,o,{
name = inserted;
}),
(534,88,o),
(549,104,q),
(600,44,l)
);
},
{
closed = 1;
nodes = (
(209,303,o),
(167,285,o),
(152,269,qs,{
name = inserted;
}),
(136,253,o),
(118,211,o),
(118,187,qs),
(118,163,o),
(136,121,o),
(152,106,qs,{
name = inserted;
}),
(167,90,o),
(209,72,o),
(233,72,qs),
(251,72,o),
(284,82,o),
(298,92,q),
(286,113,o),
(273,162,o),
(273,188,qs),
(273,214,o),
(286,262,o),
(298,283,q),
(284,293,o),
(251,303,o),
(233,303,qs)
);
},
{
closed = 1;
nodes = (
(529,282,o),
(494,303,o),
(473,303,qs),
(445,303,o),
(400,284,o),
(384,267,qs),
(376,257,o),
(363,234,o),
(360,221,qs),
(358,215,o),
(356,203,o),
(356,196,q),
(380,205,o),
(429,223,o),
(452,232,qs),
(475,240,o),
(520,257,o),
(543,265,q)
);
}
);
width = 688;
},
{
layerId = "51A9AA91-C68C-460C-8D6F-B89E075DCADB";
shapes = (
{
closed = 1;
nodes = (
(567,22,o),
(498,-6,o),
(459,-6,q),
(428,-6,o),
(372,11,o),
(349,27,q),
(326,11,o),
(270,-6,o),
(239,-6,q),
(198,-6,o),
(128,24,o),
(102,51,qs,{
name = inserted;
}),
(75,77,o),
(45,147,o),
(45,188,q),
(45,228,o),
(75,300,o),
(102,327,qs,{
name = inserted;
}),
(128,353,o),
(198,384,o),
(239,384,q),
(270,384,o),
(326,366,o),
(349,350,q),
(372,366,o),
(428,384,o),
(459,384,q),
(491,384,o),
(544,365,o),
(565,348,qs),
(586,331,o),
(617,286,o),
(628,259,q),
(590,244,o),
(504,209,o),
(460,191,qs,{
name = inserted;
}),
(416,173,o),
(329,138,o),
(291,122,q),
(311,71,o),
(401,8,o),
(459,8,q),
(495,8,o),
(558,33,o),
(582,56,q),
(593,46,l)
);
},
{
closed = 1;
nodes = (
(201,369,o),
(136,341,o),
(112,316,qs,{
name = inserted;
}),
(87,291,o),
(59,225,o),
(59,188,q),
(59,150,o),
(87,85,o),
(112,61,qs,{
name = inserted;
}),
(136,36,o),
(201,8,o),
(239,8,q),
(266,8,o,{
name = inserted;
}),
(315,22,o),
(337,36,q),
(304,63,o),
(265,141,o),
(265,188,q),
(265,234,o),
(304,313,o),
(337,340,q),
(316,354,o),
(266,369,o),
(239,369,q)
);
},
{
closed = 1;
nodes = (
(588,311,o),
(513,369,o),
(459,369,q),
(421,369,o),
(356,341,o),
(332,316,qs,{
name = inserted;
}),
(307,291,o),
(279,225,o),
(279,188,q),
(279,174,o,{
name = inserted;
}),
(283,147,o),
(286,135,q),
(323,150,o),
(405,184,o),
(447,201,qs,{
name = inserted;
}),
(489,217,o),
(572,251,o),
(609,266,q)
);
}
);
width = 656;
}
);
unicode = 339;
},
{
glyphname = p;
lastChange = "2024-08-09 09:08:37 +0000";
layers = (
{
layerId = m001;
shapes = (
{
closed = 1;
nodes = (
(45,-171,l),
(112,-171,l),
(112,296,l),
(35,296,l),
(35,375,l),
(181,375,l),
(182,362,o),
(184,339,o),
(185,328,q),
(195,342,o),
(259.341,384,o),
(312,384,qs),
(354,384,o),
(428,353,o),
(455,326,qs,{
name = inserted;
}),
(482,299,o),
(513,228,o),
(513,188,qs),
(513,148,o),
(482,76,o),
(455,49,qs,{
name = inserted;
}),
(428,22,o),
(354,-9,o),
(312,-9,qs),
(284,-9,o),
(240,3,o),
(224,11,qs,{
name = inserted;
}),
(208,19,o),
(196,28,o),
(193,32,q),
(194,29,o),
(195,21,o),
(195,19,q),
(195,-171,l),
(267,-171,l),
(267,-250,l),
(45,-250,l)
);
},
{
closed = 1;
nodes = (
(285,303,o),
(241,285,o),
(226,269,qs),
(211,254,o),
(195,212,o),
(195,188,qs),
(195,162,o),
(214,117,o),
(232,101,qs),
(247,88,o),
(288,72,o),
(312,72,qs),
(336,72,o),
(376,87,o),
(391,100,qs),
(409,115,o),
(429,161,o),
(429,188,qs),
(429,216,o),
(408,261,o),
(390,277,qs),
(375,289,o),
(335,303,o),
(312,303,qs)
);
}
);
width = 548;
},
{
layerId = "51A9AA91-C68C-460C-8D6F-B89E075DCADB";
shapes = (
{
closed = 1;
nodes = (
(42,-236,l),
(108,-236,l),
(108,361,l),
(35,361,l),
(35,375,l),
(118,375,l),
(118,346,o),
(121,286,o),
(121,257,q),
(142,312,o),
(240,381,o),
(303,381,qs),
(343,381,o),
(414,351,o),
(440.5,324.5,qs,{
name = inserted;
}),
(467,298,o),
(497,227,o),
(497,187,qs),
(497,146,o),
(467,75,o),
(440.5,49,qs,{
name = inserted;
}),
(414,23,o),
(343,-8,o),
(303,-8,qs),
(272,-8,o),
(215,10,o),
(191.5,26.5,qs,{
name = inserted;
}),
(168,43,o),
(132,88,o),
(122,115,q),
(122,101,o),
(123,75,o),
(123,61,qs),
(123,-236,l),
(216,-236,l),
(216,-250,l),
(42,-250,l)
);
},
{
closed = 1;
nodes = (
(265,367,o),
(200,339,o),
(175,314.5,qs,{
name = inserted;
}),
(150,290,o),
(122,224,o),
(122,187,qs),
(122,149,o),
(150,84,o),
(175,59,qs,{
name = inserted;
}),
(200,34,o),
(265,6,o),
(303,6,qs),
(340,6,o),
(406,34,o),
(430.5,59,qs,{
name = inserted;
}),
(455,84,o),
(483,149,o),
(483,187,qs),
(483,224,o),
(455,290,o),
(430.5,314.5,qs,{
name = inserted;
}),
(406,339,o),
(340,367,o),
(303,367,qs)
);
}
);
width = 532;
}
);
unicode = 112;
},
{
glyphname = thorn;
lastChange = "2024-08-09 09:08:37 +0000";
layers = (
{
layerId = m001;
shapes = (
{
closed = 1;
nodes = (
(16,-250,l),
(16,-171,l),
(93,-171,l),
(93,671,l),
(16,671,l),
(16,750,l),
(238,750,l),
(238,671,l),
(176,671,l),
(176,373,ls),
(176,363,o),
(176,343,o),
(175,337,q),
(185,353,o),
(248,382,o),
(293,382,qs),
(335,382,o),
(409,351,o),
(436,324,qs,{
name = inserted;
}),
(463,297,o),
(494,226,o),
(494,187,qs),
(494,147,o),
(463,76,o),
(436,49,qs,{
name = inserted;
}),
(409,22,o),
(335,-9,o),
(293,-9,qs),
(265,-9,o),
(224,0,o),
(208,8,qs,{
name = inserted;
}),
(192,15,o),
(176,28,o),
(173,32,q),
(174,25,o),
(176,4,o),
(176,-12,qs),
(176,-171,l),
(258,-171,l),
(258,-250,l)
);
},
{
closed = 1;
nodes = (
(266,303,o),
(221,284,o),
(206,268,qs),
(192,253,o),
(176,212,o),
(176,188,qs),
(176,161,o),
(197,115,o),
(215,99,qs),
(230,86,o),
(270,72,o),
(293,72,qs),
(316,72,o),
(356,86,o),
(371,99,qs),
(389,115,o),
(410,161,o),
(410,188,qs),
(410,217,o),
(388,263,o),
(368,279,qs),
(354,290,o),
(315,303,o),
(293,303,qs)
);
}
);
width = 510;
},
{
layerId = "51A9AA91-C68C-460C-8D6F-B89E075DCADB";
shapes = (
{
closed = 1;
nodes = (
(16,-250,l),
(16,-236,l),
(93,-236,l),
(93,736,l),
(16,736,l),
(16,750,l),
(190,750,l),
(190,736,l),
(107,736,l),
(107,321,ls),
(107,305,o),
(106,273,o),
(106,257,q),
(127,312,o),
(225,381,o),
(288,381,qs),
(328,381,o),
(399,351,o),
(425.5,324.5,qs,{
name = inserted;
}),
(452,298,o),
(482,227,o),
(482,187,qs),
(482,146,o),
(452,75,o),
(425.5,49,qs,{
name = inserted;
}),
(399,23,o),
(328,-8,o),
(288,-8,qs),
(257,-8,o),
(200,10,o),
(176.5,26.5,qs,{
name = inserted;
}),
(153,43,o),
(117,88,o),
(107,115,q),
(107,101,o),
(108,75,o),
(108,61,qs),
(108,-236,l),
(190,-236,l),
(190,-250,l)
);
},
{
closed = 1;
nodes = (
(250,367,o),
(185,339,o),
(160,314.5,qs,{
name = inserted;
}),
(135,290,o),
(107,224,o),
(107,187,qs),
(107,149,o),
(135,84,o),
(160,59,qs,{
name = inserted;
}),
(185,34,o),
(250,6,o),
(288,6,qs),
(325,6,o),
(391,34,o),
(415.5,59,qs,{
name = inserted;
}),
(440,84,o),
(468,149,o),
(468,187,qs),
(468,224,o),
(440,290,o),
(415.5,314.5,qs,{
name = inserted;
}),
(391,339,o),
(325,367,o),
(288,367,qs)
);
}
);
width = 498;
}
);
unicode = 254;
},
{
glyphname = q;
lastChange = "2024-08-09 09:08:37 +0000";
layers = (
{
layerId = m001;
shapes = (
{
closed = 1;
nodes = (
(277,-250,l),
(277,-171,l),
(353,-171,l),
(353,12,l),
(353,17,o),
(354,27,o),
(356,33,q),
(353,29,o),
(339,18,o),
(323,10,qs,{
name = inserted;
}),
(307,2,o),
(263,-9,o),
(236,-9,qs),
(194,-9,o),
(120,22,o),
(93,49,qs,{
name = inserted;
}),
(66,76,o),
(35,148,o),
(35,188,qs),
(35,228,o),
(66,299,o),
(93,326,qs,{
name = inserted;
}),
(120,353,o),
(194,384,o),
(236,384,qs),
(288.659,384,o),
(349,347,o),
(363,328,q),
(364,338,o),
(366,361,o),
(367,375,q),
(516,375,l),
(516,296,l),
(436,296,l),
(436,-171,l),
(499,-171,l),
(499,-250,l)
);
},
{
closed = 1;
nodes = (
(210,303,o),
(167,286,o),
(152,271,qs),
(136,256,o),
(119,213,o),
(119,188,qs),
(119,160,o),
(140,114,o),
(159,98,qs),
(174,86,o),
(213,72,o),
(236,72,qs),
(262,72,o),
(305,90,o),
(320,105,qs),
(336,121,o),
(353,163,o),
(353,188,qs),
(353,214,o),
(334,258,o),
(318,273,qs),
(302,287,o),
(261,303,o),
(236,303,qs)
);
}
);
width = 551;
},
{
layerId = "51A9AA91-C68C-460C-8D6F-B89E075DCADB";
shapes = (
{
closed = 1;
nodes = (
(321,-250,l),
(321,-236,l),
(409,-236,l),
(409,61,ls),
(409,75,o),
(410,101,o),
(410,115,q),
(399,88,o),
(364,43,o),
(340.5,26.5,qs,{
name = inserted;
}),
(317,10,o),
(260,-8,o),
(229,-8,qs),
(188,-8,o),
(118,23,o),
(91.5,49,qs,{
name = inserted;
}),
(65,75,o),
(35,146,o),
(35,187,qs),
(35,227,o),
(65,298,o),
(91.5,324.5,qs,{
name = inserted;
}),
(118,351,o),
(188,381,o),
(229,381,qs),
(292,381,o),
(390,312,o),
(411,257,q),
(411,286,o),
(414,346,o),
(414,375,q),
(497,375,l),
(497,361,l),
(424,361,l),
(424,-236,l),
(495,-236,l),
(495,-250,l)
);
},
{
closed = 1;
nodes = (
(191,367,o),
(126,339,o),
(101.5,314.5,qs,{
name = inserted;
}),
(77,290,o),
(49,224,o),
(49,187,qs),
(49,149,o),
(77,84,o),
(101.5,59,qs,{
name = inserted;
}),
(126,34,o),
(191,6,o),
(229,6,qs),
(266,6,o),
(332,34,o),
(357,59,qs,{
name = inserted;
}),
(382,84,o),
(410,149,o),
(410,187,qs),
(410,224,o),
(382,290,o),
(357,314.5,qs,{
name = inserted;
}),
(332,339,o),
(266,367,o),
(229,367,qs)
);
}
);
width = 532;
}
);
unicode = 113;
},
{
glyphname = r;
lastChange = "2024-08-09 09:08:37 +0000";
layers = (
{
layerId = m001;
shapes = (
{
closed = 1;
nodes = (
(35,0,l),
(35,79,l),
(111,79,l),
(111,296,l),
(45,296,l),
(45,375,l),
(184,375,l),
(188,323,ls),
(190,299,o),
(189,303,o),
(191,279,q),
(203,304,o),
(240,343,o),
(260,356,qs,{
name = inserted;
}),
(281,370,o),
(320,384,o),
(335,384,q),
(329,302,l),
(304,302,o),
(261,290,o),
(245,279,qs),
(221,263,o),
(194,213,o),
(194,182,qs),
(194,79,l),
(257,79,l),
(257,0,l)
);
}
);
width = 370;
},
{
layerId = "51A9AA91-C68C-460C-8D6F-B89E075DCADB";
shapes = (
{
closed = 1;
nodes = (
(35,0,l),
(35,14,l),
(114,14,l),
(114,361,l),
(39,361,l),
(39,375,l),
(122,375,l),
(124,322,ls),
(124,309,o),
(125,290,o),
(125,277,q),
(136,302,o),
(170,341,o),
(193,354,qs),
(214,367,o),
(263,381,o),
(291,382,q),
(291,368,l),
(258,367,o),
(199,344,o),
(176,324,qs,{
name = inserted;
}),
(154,305,o),
(128,251,o),
(128,220,qs),
(128,14,l),
(209,14,l),
(209,0,l)
);
}
);
width = 326;
}
);
unicode = 114;
},
{
glyphname = s;
lastChange = "2024-08-09 09:08:37 +0000";
layers = (
{
layerId = m001;
shapes = (
{
closed = 1;
nodes = (
(262,18,o),
(212,-8,o),
(172,-8,qs),
(135,-8,o),
(67,11,o),
(47,33,q),
(47,120,l),
(121,120,l),
(121,81,l),
(133,76,o),
(156,73,o),
(173,73,qs),
(181,73,o),
(198,77,o),
(205,82,qs),
(210,86,o),
(217,99,o),
(217,109,qs),
(217,127,o),
(196,146,o),
(178,152,qs,{
name = inserted;
}),
(161,159,o),
(119,172,o),
(100,184,qs,{
name = inserted;
}),
(82,195,o),
(58,237,o),
(58,272,qs),
(58,303,o),
(82,345,o),
(100,358,qs,{
name = inserted;
}),
(118,372,o),
(160,384,o),
(177,384,qs),
(187,384,o),
(216,380,o),
(231,375,qs,{
name = inserted;
}),
(246,370,o),
(275,354,o),
(286,342,q),
(286,255,l),
(212,255,l),
(212,298,l),
(204,300,o,{
name = inserted;
}),
(190,303,o),
(182,303,qs),
(171,303,o),
(155,298,o),
(150,294,qs),
(145,289,o),
(141,276,o),
(142,268,qs),
(144,256,o),
(170,241,o),
(188,234,qs,{
name = inserted;
}),
(205,227,o),
(245,209,o),
(262,196,qs,{
name = inserted;
}),
(279,182,o),
(301,141,o),
(301,110,qs),
(301,96,o),
(290,56,o),
(276,37,qs,{
name = inserted;
})
);
}
);
width = 332;
},
{
layerId = "51A9AA91-C68C-460C-8D6F-B89E075DCADB";
shapes = (
{
closed = 1;
nodes = (
(241,12,o),
(195,-8,o),
(165,-8,qs),
(137,-8,o),
(80,5,o),
(55,26,q),
(55,91,l),
(69,91,l),
(69,32,l),
(92,15,o),
(143,6,o),
(168,6,qs),
(188,6,o),
(223,18,o),
(238,30,qs,{
name = inserted;
}),
(252,41,o),
(270,75,o),
(270,98,qs),
(270,129,o),
(240,163,o),
(218,172,qs,{
name = inserted;
}),
(196,182,o),
(143,196,o),
(121,206,qs,{
name = inserted;
}),
(99,215,o),
(69,249,o),
(69,280,qs),
(69,304,o),
(86,340,o),
(100,353,qs,{
name = inserted;
}),
(115,366,o),
(157,379,o),
(176,379,qs),
(191,379,o),
(211,376,o),
(228,371,qs),
(240,367,o),
(261,356,o),
(269,349,q),
(269,284,l),
(255,284,l),
(255,343,l),
(237,355,o),
(196,365,o),
(173,365,qs),
(160,365,o),
(126,357,o),
(113,348,qs,{
name = inserted;
}),
(100,338,o),
(83,307,o),
(83,285,q),
(82,256,o),
(112,225,o),
(134,216,qs,{
name = inserted;
}),
(157,206,o),
(209,193,o),
(232,182,qs,{
name = inserted;
}),
(254,171,o),
(284,134,o),
(284,101,qs),
(284,82,o),
(270,43,o),
(256,28,qs,{
name = inserted;
})
);
}
);
width = 315;
}
);
unicode = 115;
},
{
glyphname = germandbls;
lastChange = "2024-08-09 09:08:37 +0000";
layers = (
{
layerId = m001;
shapes = (
{
closed = 1;
nodes = (
(429,25,o),
(350,-9,o),
(305,-9,qs),
(282,-9,o,{
name = inserted;
}),
(238,0,o),
(219,9,q),
(253,83,l),
(266,78,o,{
name = inserted;
}),
(292,72,o),
(305,72,qs),
(333,72,o),
(382,94,o),
(400,112,qs,{
name = inserted;
}),
(419,131,o),
(441,180,o),
(441,208,qs),
(441,236,o),
(419,285,o),
(400,303,qs,{
name = inserted;
}),
(381,321,o),
(330,342,o),
(302,342,q),
(302,423,l),
(336,423,o),
(382,462,o),
(382,497,qs),
(382,514,o),
(368,546,o),
(356,557,qs),
(346,566,o),
(318,576,o),
(303,576,qs),
(275,575,o),
(232,554,o),
(215,535,qs),
(198,515,o),
(178,455,o),
(178,418,qs),
(178,0,l),
(35,0,l),
(35,79,l),
(95,79,l),
(95,334,l),
(35,334,l),
(35,415,l),
(95,415,l),
(95,423,ls),
(95,477,o),
(130,564,o),
(159,594,qs,{
name = inserted;
}),
(188,625,o),
(264,657,o),
(305,657,qs),
(338,657,o),
(396,632,o),
(418,610,qs,{
name = inserted;
}),
(440,588,o),
(465,530,o),
(465,497,qs),
(465,465,o),
(441,410,o),
(421,390,q),
(439,378,o),
(471,349,o),
(484,332,qs),
(503,306,o),
(524,243,o),
(524,208,qs),
(524,163,o),
(489,84,o),
(459,54,qs,{
name = inserted;
})
);
}
);
width = 559;
},
{
layerId = "51A9AA91-C68C-460C-8D6F-B89E075DCADB";
shapes = (
{
closed = 1;
nodes = (
(419,24,o),
(344,-8,o),
(302,-8,qs),
(273,-8,o),
(219,8,o),
(196,22,q),
(202,33,l),
(224,19,o,{
name = inserted;
}),
(273,5,o),
(300,5,qs),
(340,5,o),
(410,36,o),
(436,62,qs,{
name = inserted;
}),
(462,88,o),
(493,157,o),
(493,195,qs),
(493,233,o),
(463,300,o),
(437,325.5,qs,{
name = inserted;
}),
(411,351,o),
(342,381,o),
(303,381,q),
(303,396,l),
(354.25,396,o),
(429,460.257,o),
(429,511,qs),
(429,537,o),
(410,585,o),
(393.5,603.5,qs,{
name = inserted;
}),
(377,622,o),
(330,644,o),
(303,644,qs),
(269,644,o),
(207,614,o),
(183.5,586,qs,{
name = inserted;
}),
(160,558,o),
(132,479,o),
(132,430,qs),
(132,0,l),
(35,0,l),
(35,14,l),
(118,14,l),
(118,370,l),
(53,370,l),
(53,384,l),
(118,384,l),
(118,426,ls),
(118,481,o),
(147,567,o),
(172.5,596,qs,{
name = inserted;
}),
(198,625,o),
(265,656,o),
(303,658,q),
(332,657,o),
(383,634,o),
(402,614.5,qs,{
name = inserted;
}),
(421,595,o),
(443,543,o),
(443,514,qs),
(443,470,o),
(392,403,o),
(351,389,q),
(384,381,o),
(441,345,o),
(462,319.5,qs,{
name = inserted;
}),
(483,294,o),
(507,231,o),
(507,195,qs),
(507,153,o),
(474,79,o),
(446.5,51.5,qs,{
name = inserted;
})
);
}
);
width = 542;
}
);
unicode = 223;
},
{
glyphname = t;
lastChange = "2024-08-09 09:08:37 +0000";
layers = (
{
layerId = m001;
shapes = (
{
closed = 1;
nodes = (
(119,0,l),
(119,294,l),
(35,294,l),
(35,375,l),
(119,375,l),
(119,619,l),
(202,619,l),
(202,375,l),
(300,375,l),
(300,294,l),
(202,294,l),
(202,79,l),
(277,79,l),
(277,0,l)
);
}
);
width = 335;
},
{
layerId = "51A9AA91-C68C-460C-8D6F-B89E075DCADB";
shapes = (
{
closed = 1;
nodes = (
(124,0,l),
(124,361,l),
(35,361,l),
(35,375,l),
(124,375,l),
(124,619,l),
(138,619,l),
(138,375,l),
(265,375,l),
(265,361,l),
(138,361,l),
(138,14,l),
(225,14,l),
(225,0,l)
);
}
);
width = 300;
}
);
unicode = 116;
},
{
glyphname = u;
lastChange = "2024-08-09 09:08:37 +0000";
layers = (
{
layerId = m001;
shapes = (
{
closed = 1;
nodes = (
(373,48,o),
(284,-9,o),
(230,-9,qs),
(171,-9,o),
(103,53,o),
(101,103,qs),
(101,296,l),
(35,296,l),
(35,375,l),
(184,375,l),
(184,141,l),
(186,114,o),
(221,75,o),
(259,73,q),
(285,73,o),
(332,91,o),
(350,107,qs,{
name = inserted;
}),
(368,123,o),
(390,167,o),
(390,193,qs),
(390,296,l),
(324,296,l),
(324,375,l),
(473,375,l),
(473,70,l),
(535,70,l),
(535,0,l),
(390,0,l),
(390,51,l),
(393,96,l)
);
}
);
width = 570;
},
{
layerId = "51A9AA91-C68C-460C-8D6F-B89E075DCADB";
shapes = (
{
closed = 1;
nodes = (
(375,50,o),
(286,-7,o),
(230,-7,qs),
(177,-7,o),
(116,55,o),
(114,105,qs),
(114,361,l),
(35,361,l),
(35,375,l),
(128,375,l),
(128,98,l),
(130,62,o),
(179,9,o),
(223,7,qs),
(257,7,o),
(318,29,o),
(341,48.5,qs,{
name = inserted;
}),
(364,68,o),
(392,123,o),
(392,155,qs),
(392,361,l),
(313,361,l),
(313,375,l),
(406,375,l),
(406,14,l),
(483,14,l),
(483,0,l),
(400,0,l),
(397,53,l),
(395,98,l)
);
}
);
width = 518;
}
);
unicode = 117;
},
{
glyphname = v;
lastChange = "2024-08-09 09:08:37 +0000";
layers = (
{
layerId = m001;
shapes = (
{
closed = 1;
nodes = (
(423,215,o),
(336,57,o),
(293,-23,q),
(249,57,o),
(163,216,o),
(119,296,q),
(35,296,l),
(35,375,l),
(257,375,l),
(257,296,l),
(205,296,l),
(231,252,o),
(279,164,o),
(293,120,q),
(307,164,o),
(354,252,o),
(380,296,q),
(320,296,l),
(320,375,l),
(549,375,l),
(549,296,l),
(466,296,l)
);
}
);
width = 584;
},
{
layerId = "51A9AA91-C68C-460C-8D6F-B89E075DCADB";
shapes = (
{
closed = 1;
nodes = (
(441,264,o),
(346,74,o),
(298,-23,q),
(250,74,o),
(155,264,o),
(107,361,q),
(35,361,l),
(35,375,l),
(196,375,l),
(196,361,l),
(122,361,l),
(166,273,o),
(253,96,o),
(298,8,q),
(339,90,o),
(429,270,o),
(474,361,q),
(416,361,l),
(416,375,l),
(555,375,l),
(555,361,l),
(489,361,l)
);
}
);
width = 590;
}
);
unicode = 118;
},
{
glyphname = w;
lastChange = "2024-08-09 09:08:37 +0000";
layers = (
{
background = {
shapes = (
{
closed = 1;
nodes = (
(286,-23,l),
(245,57,o),
(165,216,o),
(124,296,q),
(35,296,l),
(35,375,l),
(242,375,l),
(242,296,l),
(207,296,l),
(229,252,o),
(281,150,o),
(291,120,q),
(321,176,o),
(361,251,o),
(384,292,q),
(381,296,l),
(314,296,l),
(314,375,l),
(536,375,l),
(536,296,l),
(479,296,l),
(501,252,o),
(543,165,o),
(558,120,q),
(573,165,o),
(614,252,o),
(637,296,q),
(581,296,l),
(581,375,l),
(795,375,l),
(795,296,l),
(719,296,l),
(679,215,o),
(598,57,o),
(558,-23,q),
(425,240,l)
);
}
);
};
layerId = m001;
shapes = (
{
closed = 1;
nodes = (
(286,-23,l),
(245,57,o),
(165,216,o),
(124,296,q),
(35,296,l),
(35,375,l),
(242,375,l),
(242,296,l),
(207,296,l),
(229,252,o),
(281,150,o),
(291,120,q),
(321,176,o),
(361,251,o),
(384,292,q),
(381,296,l),
(314,296,l),
(314,375,l),
(536,375,l),
(536,296,l),
(479,296,l),
(501,252,o),
(543,165,o),
(558,120,q),
(573,165,o),
(614,252,o),
(637,296,q),
(581,296,l),
(581,375,l),
(795,375,l),
(795,296,l),
(719,296,l),
(679,215,o),
(598,57,o),
(558,-23,q),
(425,240,l)
);
}
);
width = 830;
},
{
layerId = "51A9AA91-C68C-460C-8D6F-B89E075DCADB";
shapes = (
{
closed = 1;
nodes = (
(298,-23,l),
(250,74,o),
(155,264,o),
(107,361,q),
(35,361,l),
(35,375,l),
(196,375,l),
(196,361,l),
(122,361,l),
(166,272,o),
(253,96,o),
(298,8,q),
(330,73,o),
(394,201,o),
(426,266,q),
(379,361,l),
(305,361,l),
(305,375,l),
(466,375,l),
(466,361,l),
(394,361,l),
(438,272,o),
(525,96,o),
(570,8,q),
(615,97,o),
(701,272,o),
(746,361,q),
(686,361,l),
(686,375,l),
(825,375,l),
(825,361,l),
(761,361,l),
(713,264,o),
(618,74,o),
(570,-23,q),
(434,251,l)
);
}
);
width = 860;
}
);
unicode = 119;
},
{
glyphname = x;
lastChange = "2024-08-09 09:08:37 +0000";
layers = (
{
layerId = m001;
shapes = (
{
closed = 1;
nodes = (
(35,0,l),
(35,79,l),
(112,79,l),
(135,110,o),
(180,171,o),
(203,202,q),
(186,225,o),
(151,273,o),
(134,296,q),
(35,296,l),
(35,375,l),
(257,375,l),
(257,296,l),
(234,296,l),
(277,237,l),
(319,296,l),
(292,296,l),
(292,375,l),
(491,375,l),
(491,296,l),
(418,296,l),
(329,173,l),
(346,149,o),
(381,102,o),
(399,79,q),
(491,79,l),
(491,0,l),
(269,0,l),
(269,79,l),
(294,79,l),
(283,93,o),
(264,119,o),
(254,133,q),
(244,119,o),
(224,93,o),
(214,79,q),
(234,79,l),
(234,0,l)
);
}
);
width = 526;
},
{
layerId = "51A9AA91-C68C-460C-8D6F-B89E075DCADB";
shapes = (
{
closed = 1;
nodes = (
(35,0,l),
(35,14,l),
(107,14,l),
(139,57,o),
(199,143,o),
(231,187,q),
(199,231,o),
(135,316,o),
(103,361,q),
(35,361,l),
(35,375,l),
(209,375,l),
(209,361,l),
(121,361,l),
(240,198,l),
(357,361,l),
(279,361,l),
(279,375,l),
(453,375,l),
(453,361,l),
(374,361,l),
(248,186,l),
(280,142,o),
(342,58,o),
(374,14,q),
(453,14,l),
(453,0,l),
(279,0,l),
(279,14,l),
(358,14,l),
(328,56,o),
(269,135,o),
(240,175,q),
(211,134,o),
(154,54,o),
(125,14,q),
(209,14,l),
(209,0,l)
);
}
);
width = 488;
}
);
unicode = 120;
},
{
glyphname = y;
lastChange = "2024-08-09 09:08:37 +0000";
layers = (
{
layerId = m001;
shapes = (
{
closed = 1;
nodes = (
(92,-250,l),
(92,-171,l),
(182,-171,l),
(203,-128,o),
(246,-42,o),
(268,0,q),
(230,75,o),
(157,221,o),
(119,296,q),
(35,296,l),
(35,375,l),
(257,375,l),
(257,296,l),
(204,296,l),
(233,241,o),
(291,130,o),
(310,74,q),
(329,130,o),
(386,241,o),
(415,296,q),
(353,296,l),
(353,375,l),
(582,375,l),
(582,296,l),
(500,296,l),
(441,178,o),
(324,-53,o),
(265,-171,q),
(314,-171,l),
(314,-250,l)
);
}
);
width = 617;
},
{
layerId = "51A9AA91-C68C-460C-8D6F-B89E075DCADB";
shapes = (
{
closed = 1;
nodes = (
(92,-250,l),
(92,-236,l),
(173,-236,l),
(202,-178,o),
(260,-61,o),
(289,-4,q),
(243,87,o),
(152,269,o),
(107,361,q),
(35,361,l),
(35,375,l),
(196,375,l),
(196,361,l),
(125,361,l),
(168,273,o),
(254,101,o),
(298,14,q),
(340,97,o),
(427,273,o),
(471,361,q),
(416,361,l),
(416,375,l),
(555,375,l),
(555,361,l),
(489,361,l),
(414,211,o),
(267,-86,o),
(192,-236,q),
(266,-236,l),
(266,-250,l)
);
}
);
width = 590;
}
);
unicode = 121;
},
{
glyphname = z;
lastChange = "2024-08-09 09:08:37 +0000";
layers = (
{
layerId = m001;
shapes = (
{
closed = 1;
nodes = (
(35,0,l),
(35,81,l),
(97,140,o),
(195,235,o),
(260,296,q),
(47,296,l),
(47,410,l),
(121,410,l),
(121,375,l),
(377,375,l),
(377,294,l),
(312,234,o),
(213,139,o),
(152,81,q),
(326,81,l),
(326,138,l),
(400,138,l),
(400,0,l)
);
}
);
width = 435;
},
{
layerId = "51A9AA91-C68C-460C-8D6F-B89E075DCADB";
shapes = (
{
closed = 1;
nodes = (
(35,0,l),
(35,14,l),
(119,102,o),
(275,273,o),
(359,361,q),
(47,361,l),
(47,410,l),
(61,410,l),
(61,375,l),
(377,375,l),
(377,361,l),
(293,273,o),
(137,102,o),
(53,14,q),
(380,14,l),
(380,65,l),
(394,65,l),
(394,0,l)
);
}
);
width = 429;
}
);
unicode = 122;
},
{
glyphname = ordfeminine;
lastChange = "2024-08-09 09:08:37 +0000";
layers = (
{
layerId = m001;
shapes = (
{
closed = 1;
nodes = (
(320,306,l),
(320,320,ls),
(320,325,o),
(320,330,o),
(320,335,q),
(319,333,o),
(306,321,o),
(294,315,qs,{
name = inserted;
}),
(282,309,o),
(249,300,o),
(228,300,qs),
(198,300,o),
(145,322,o),
(125.5,341.5,qs,{
name = inserted;
}),
(106,361,o),
(83,412,o),
(83,441,qs),
(83,469,o),
(106,521,o),
(125.5,540.5,qs,{
name = inserted;
}),
(145,560,o),
(198,583,o),
(228,583,qs),
(264,583,o),
(314,554,o),
(320,543,q),
(321,552,o),
(322,566,o),
(323,576,q),
(373,576,l),
(373,363,l),
(427,363,l),
(427,306,l)
);
},
{
closed = 1;
nodes = (
(208,525,o),
(175,510,o),
(164,498,qs),
(154,487,o),
(144,458,o),
(144,442,qs),
(144,424,o),
(157,392,o),
(168,381,qs),
(179,370,o),
(210,358,o),
(228,358,qs),
(245,358,o),
(275,369,o),
(285,378,qs),
(298,389,o),
(313,422,o),
(313,442,qs),
(313,461,o),
(299,493,o),
(287,504,qs),
(276,514,o),
(246,525,o),
(228,525,qs)
);
}
);
width = 585;
},
{
layerId = "51A9AA91-C68C-460C-8D6F-B89E075DCADB";
shapes = (
{
closed = 1;
nodes = (
(354,306,l),
(354,345,ls),
(354,356,o),
(354,379,o),
(354,390,q),
(347,371,o),
(321,338,o),
(304,326.5,qs,{
name = inserted;
}),
(287,315,o),
(246,302,o),
(223,302,qs),
(194,302,o),
(143,323,o),
(124,342.5,qs,{
name = inserted;
}),
(105,362,o),
(83,412,o),
(83,442,qs),
(83,470,o),
(105,522,o),
(124,541,qs,{
name = inserted;
}),
(143,560,o),
(194,582,o),
(223,582,qs),
(268,582,o),
(338,532,o),
(354,494,q),
(354,514,o),
(355,556,o),
(357,576,q),
(364,576,l),
(364,316,l),
(417,316,l),
(417,306,l)
);
},
{
closed = 1;
nodes = (
(196,572,o),
(149,552,o),
(131.5,534,qs,{
name = inserted;
}),
(114,516,o),
(93,468,o),
(93,442,qs),
(93,414,o),
(114,367,o),
(131.5,349.5,qs,{
name = inserted;
}),
(149,332,o),
(196,312,o),
(223,312,qs),
(250,312,o),
(297,332,o),
(315.5,349.5,qs,{
name = inserted;
}),
(334,367,o),
(354,414,o),
(354,442,qs),
(354,468,o),
(334,516,o),
(315.5,534,qs,{
name = inserted;
}),
(297,552,o),
(250,572,o),
(223,572,qs)
);
}
);
width = 585;
}
);
unicode = 170;
},
{
glyphname = ordmasculine;
lastChange = "2024-08-09 09:08:37 +0000";
layers = (
{
layerId = m001;
shapes = (
{
closed = 1;
nodes = (
(318,322,o),
(265,300,o),
(234,300,qs),
(204,300,o),
(152,322,o),
(132.5,341.5,qs,{
name = inserted;
}),
(113,361,o),
(90,412,o),
(90,442,qs),
(90,470,o),
(113,522,o),
(132.5,541.5,qs,{
name = inserted;
}),
(152,561,o),
(204,583,o),
(234,583,qs),
(265,583,o),
(318,561,o),
(337.5,541.5,qs,{
name = inserted;
}),
(357,522,o),
(379,470,o),
(379,442,qs),
(379,412,o),
(357,361,o),
(337.5,341.5,qs,{
name = inserted;
})
);
},
{
closed = 1;
nodes = (
(185,371,o),
(216,358,o),
(233,358,qs),
(250,358,o),
(281,371,o),
(292.5,382,qs,{
name = inserted;
}),
(304,393,o),
(317,424,o),
(317,441,qs),
(317,458,o),
(304,488,o),
(292.5,500,qs,{
name = inserted;
}),
(281,512,o),
(250,525,o),
(233,525,qs),
(216,525,o),
(185,512,o),
(174,500,qs,{
name = inserted;
}),
(163,488,o),
(150,458,o),
(150,441,qs),
(150,424,o),
(163,393,o),
(174,382,qs,{
name = inserted;
})
);
}
);
width = 469;
},
{
layerId = "51A9AA91-C68C-460C-8D6F-B89E075DCADB";
shapes = (
{
closed = 1;
nodes = (
(312,323,o),
(260,302,o),
(231,302,qs),
(201,302,o),
(151,323,o),
(132,342.5,qs,{
name = inserted;
}),
(113,362,o),
(91,412,o),
(91,442,qs),
(91,470,o),
(113,522,o),
(132,541.5,qs,{
name = inserted;
}),
(151,561,o),
(201,583,o),
(231,583,qs),
(260,583,o),
(312,561,o),
(331,541.5,qs,{
name = inserted;
}),
(350,522,o),
(372,470,o),
(372,442,qs),
(372,412,o),
(350,362,o),
(331,342.5,qs,{
name = inserted;
})
);
},
{
closed = 1;
nodes = (
(157,332,o),
(203,312,o),
(231,312,qs),
(258,312,o),
(305,332,o),
(323,349.5,qs,{
name = inserted;
}),
(341,367,o),
(361,414,o),
(361,442,qs),
(361,468,o),
(341,516,o),
(323,534,qs,{
name = inserted;
}),
(305,552,o),
(258,572,o),
(231,572,qs),
(203,572,o),
(157,552,o),
(139,534,qs,{
name = inserted;
}),
(121,516,o),
(101,468,o),
(101,442,qs),
(101,414,o),
(121,367,o),
(139,349.5,qs,{
name = inserted;
})
);
}
);
width = 469;
}
);
unicode = 186;
},
{
glyphname = zero;
lastChange = "2024-08-09 09:08:37 +0000";
layers = (
{
layerId = m001;
shapes = (
{
closed = 1;
nodes = (
(450,38,o),
(354,-8,o),
(303,-8,qs),
(252,-8,o),
(156,40,o),
(118.5,84,qs,{
name = inserted;
}),
(81,128,o),
(37,251,o),
(37,327,qs),
(37,403,o),
(80,526,o),
(116.5,569,qs,{
name = inserted;
}),
(153,612,o),
(251,658,o),
(307,658,qs),
(363,658,o),
(461,610,o),
(497,566.5,qs,{
name = inserted;
}),
(533,523,o),
(573,399,o),
(573,323,qs),
(573,247,o),
(526,125,o),
(488,81.5,qs,{
name = inserted;
})
);
},
{
closed = 1;
nodes = (
(199,113,o),
(265,73,o),
(303,73,qs),
(340,73,o),
(408,111,o),
(433.5,145,qs,{
name = inserted;
}),
(459,179,o),
(489,271,o),
(489,324,qs),
(489,360,o),
(471,448,o),
(449.5,486.5,qs,{
name = inserted;
}),
(428,525,o),
(358,577,o),
(307,577,qs),
(256,577,o),
(185,526,o),
(163,488,qs,{
name = inserted;
}),
(141,450,o),
(121,362,o),
(121,326,qs),
(121,273,o),
(149,181,o),
(174,147,qs,{
name = inserted;
})
);
}
);
width = 616;
},
{
layerId = "51A9AA91-C68C-460C-8D6F-B89E075DCADB";
shapes = (
{
closed = 1;
nodes = (
(455,44,o),
(356,-7,o),
(301,-7,qs),
(246,-7,o),
(149,46,o),
(113,91,qs,{
name = inserted;
}),
(77,136,o),
(36,257,o),
(36,327,qs),
(36,375,o),
(65,490,o),
(97,540.5,qs,{
name = inserted;
}),
(129,591,o),
(233,658,o),
(308,658,qs),
(382,658,o),
(484,589,o),
(515,538.5,qs,{
name = inserted;
}),
(546,488,o),
(573,372,o),
(573,324,qs),
(573,255,o),
(529,134,o),
(492,89,qs,{
name = inserted;
})
);
},
{
closed = 1;
nodes = (
(163,53,o),
(255,7,o),
(303,7,qs),
(351,7,o),
(443,51,o),
(479,92,qs,{
name = inserted;
}),
(515,133,o),
(559,251,o),
(559,323,qs),
(559,396,o),
(521,515,o),
(487,556.5,qs,{
name = inserted;
}),
(453,598,o),
(361,644,o),
(307,644,qs),
(253,644,o),
(160,601,o),
(125.5,559.5,qs,{
name = inserted;
}),
(91,518,o),
(51,401,o),
(51,328,qs),
(51,255,o),
(93,137,o),
(128,95,qs,{
name = inserted;
})
);
}
);
width = 616;
}
);
unicode = 48;
},
{
glyphname = one;
lastChange = "2024-08-09 09:08:37 +0000";
layers = (
{
layerId = m001;
shapes = (
{
closed = 1;
nodes = (
(23,0,l),
(23,79,l),
(102,79,l),
(102,569,l),
(34,569,l),
(34,650,l),
(186,650,l),
(186,79,l),
(265,79,l),
(265,0,l)
);
}
);
width = 290;
},
{
layerId = "51A9AA91-C68C-460C-8D6F-B89E075DCADB";
shapes = (
{
closed = 1;
nodes = (
(67,0,l),
(67,14,l),
(147,14,l),
(147,636,l),
(34,636,l),
(34,650,l),
(161,650,l),
(161,14,l),
(241,14,l),
(241,0,l)
);
}
);
width = 249;
}
);
unicode = 49;
},
{
glyphname = two;
lastChange = "2024-08-09 09:08:37 +0000";
layers = (
{
layerId = m001;
shapes = (
{
closed = 1;
nodes = (
(53,0,l),
(115,62,o),
(231,179,o),
(276,233.5,qs,{
name = inserted;
}),
(321,288,o),
(375,391,o),
(375,438,qs),
(375,475,o),
(351,527,o),
(332.5,544,qs,{
name = inserted;
}),
(314,561,o),
(271,577,o),
(253,577,qs),
(215,577,o),
(167,551,o),
(153,532,qs,{
name = inserted;
}),
(139,513,o),
(128,471,o),
(128,455,qs),
(128,422,o),
(148,371,o),
(167,351,q),
(117,300,l),
(83.365,321.764,o),
(44,405,o),
(44,455,qs),
(44,495,o),
(71,569,o),
(97.5,597,qs,{
name = inserted;
}),
(124,625,o),
(202,658,o),
(253,658,qs),
(299,658,o),
(375,624,o),
(402,595.5,qs,{
name = inserted;
}),
(429,567,o),
(459,492,o),
(459,450,qs),
(459,400,o),
(424,307,o),
(395.5,261,qs,{
name = inserted;
}),
(367,215,o),
(293,126,o),
(253,81,q),
(417,81,l),
(417,174,l),
(496,174,l),
(496,0,l)
);
}
);
width = 519;
},
{
layerId = "51A9AA91-C68C-460C-8D6F-B89E075DCADB";
shapes = (
{
closed = 1;
nodes = (
(53,0,l),
(117,62,o),
(239,183,o),
(285.5,240.5,qs,{
name = inserted;
}),
(332,298,o),
(389,405,o),
(389,452,qs),
(389,508,o),
(357,582,o),
(333,604,qs,{
name = inserted;
}),
(309,626,o),
(253,644,o),
(228,644,qs),
(178,644,o),
(115,609,o),
(96.5,582.5,qs,{
name = inserted;
}),
(78,556,o),
(64,495,o),
(64,469,qs),
(64,433.5,o,{
name = inserted;
}),
(84,376.5,o),
(104,355,q),
(95,347,l),
(74,371,o),
(50,428,o),
(50,469,qs),
(50,509,o),
(73,578,o),
(95.5,603.5,qs,{
name = inserted;
}),
(118,629,o),
(185,658,o),
(228,658,qs),
(267,658,o),
(331,629,o),
(354.5,603,qs,{
name = inserted;
}),
(378,577,o),
(403,506,o),
(403,464,qs),
(403,406,o),
(344,291,o),
(298,235,qs,{
name = inserted;
}),
(252,179,o),
(141,68,o),
(89,14,q),
(435,14,l),
(435,127,l),
(449,127,l),
(449,0,l)
);
}
);
width = 495;
}
);
unicode = 50;
},
{
glyphname = three;
lastChange = "2024-08-09 09:08:37 +0000";
layers = (
{
layerId = m001;
shapes = (
{
closed = 1;
nodes = (
(343,26,o),
(264,-8,o),
(219,-8,qs),
(171,-8,o),
(89,31,o),
(59,63,q),
(120,120,l),
(138,98,o),
(189,73,o),
(219,73,qs),
(247,73,o),
(296,95,o),
(314.5,113.5,qs,{
name = inserted;
}),
(333,132,o),
(355,181,o),
(355,209,qs),
(355,237,o),
(333,286,o),
(314.5,304,qs,{
name = inserted;
}),
(296,322,o),
(247,343,o),
(219,343,qs),
(201,343,o,{
name = inserted;
}),
(168.5,334.5,o),
(154,326,q),
(293,568,l),
(182,568,l),
(182,521,l),
(103,521,l),
(103,650,l),
(432,650,l),
(289,412,l),
(322,400,o),
(376,361,o),
(396,335,qs,{
name = inserted;
}),
(416,309,o),
(438,245,o),
(438,209,qs),
(438,164,o),
(403,85,o),
(373,55.5,qs,{
name = inserted;
})
);
}
);
width = 515;
},
{
layerId = "51A9AA91-C68C-460C-8D6F-B89E075DCADB";
shapes = (
{
closed = 1;
nodes = (
(358,24,o),
(284,-8,o),
(242,-8,qs),
(197,-8,o),
(121,28,o),
(93,58,q),
(103,71,l),
(127,42,o),
(197,6,o),
(239,6,qs),
(278,6,o),
(349,36,o),
(375,62,qs,{
name = inserted;
}),
(401,88,o),
(432,157,o),
(432,195,qs),
(432,234,o),
(401,303,o),
(375,328.5,qs,{
name = inserted;
}),
(349,354,o),
(278,384,o),
(239,384,qs),
(223,384,o),
(192,372,o),
(178,361,q),
(390,636,l),
(117,636,l),
(117,568,l),
(103,568,l),
(103,650,l),
(422,650,l),
(223,398,l),
(268,400,o),
(349,371,o),
(379.5,344,qs,{
name = inserted;
}),
(410,317,o),
(446,240,o),
(446,195,qs),
(446,153,o),
(414,79,o),
(386,51.5,qs,{
name = inserted;
})
);
}
);
width = 515;
}
);
unicode = 51;
},
{
glyphname = four;
lastChange = "2024-08-09 09:08:37 +0000";
layers = (
{
layerId = m001;
shapes = (
{
closed = 1;
nodes = (
(244,0,l),
(244,79,l),
(319,79,l),
(319,183,l),
(37,183,l),
(403,658,l),
(403,264,l),
(500,264,l),
(500,183,l),
(403,183,l),
(403,79,l),
(486,79,l),
(486,0,l)
);
},
{
closed = 1;
nodes = (
(205,264,l),
(319,264,l),
(319,413,l)
);
}
);
width = 529;
},
{
layerId = "51A9AA91-C68C-460C-8D6F-B89E075DCADB";
shapes = (
{
closed = 1;
nodes = (
(312,0,l),
(312,14,l),
(389,14,l),
(389,183,l),
(37,183,l),
(403,658,l),
(403,197,l),
(500,197,l),
(500,183,l),
(403,183,l),
(403,14,l),
(486,14,l),
(486,0,l)
);
},
{
closed = 1;
nodes = (
(67,197,l),
(389,197,l),
(389,617,l)
);
}
);
width = 505;
}
);
unicode = 52;
},
{
glyphname = five;
lastChange = "2024-08-09 09:08:37 +0000";
layers = (
{
layerId = m001;
shapes = (
{
closed = 1;
nodes = (
(377,26,o),
(298,-8,o),
(253,-8,qs),
(209,-8,o),
(132,24,o),
(103,53,q),
(164,109,l),
(181,92,o),
(227,73,o),
(253,73,qs),
(281,73,o),
(330,95,o),
(348.5,113.5,qs,{
name = inserted;
}),
(367,132,o),
(389,181,o),
(389,209,qs),
(389,237,o),
(367,286,o),
(348.5,304,qs,{
name = inserted;
}),
(330,322,o),
(281,343,o),
(253,343,qs),
(218,343,o),
(160,320,o),
(143,292,q),
(143,650,l),
(430,650,l),
(430,521,l),
(351,521,l),
(351,569,l),
(227,569,l),
(227,422,l),
(233,423,o),
(246,424,o),
(253,424,qs),
(298,424,o),
(377,391,o),
(407,361.5,qs,{
name = inserted;
}),
(437,332,o),
(472,254,o),
(472,209,qs),
(472,164,o),
(437,85,o),
(407,55.5,qs,{
name = inserted;
})
);
}
);
width = 543;
},
{
layerId = "51A9AA91-C68C-460C-8D6F-B89E075DCADB";
shapes = (
{
closed = 1;
nodes = (
(372,24,o),
(297,-8,o),
(255,-8,qs),
(214,-8,o),
(143,22,o),
(115,48,q),
(126,58,l),
(150,33,o),
(215,6,o),
(253,6,qs),
(293,6,o),
(363,36,o),
(389,62,qs,{
name = inserted;
}),
(415,88,o),
(446,157,o),
(446,195,qs),
(446,234,o),
(415,301,o),
(389,326.5,qs,{
name = inserted;
}),
(363,352,o),
(293,381,o),
(253,381,qs),
(218,381,o),
(160,358,o),
(143,341,q),
(143,650,l),
(430,650,l),
(430,568,l),
(416,568,l),
(416,636,l),
(157,636,l),
(157,372,l),
(180,383,o),
(229,395,o),
(255,395,qs),
(297,395,o),
(372,364,o),
(399.5,337,qs,{
name = inserted;
}),
(427,310,o),
(460,237,o),
(460,195,qs),
(460,153,o),
(427,79,o),
(399.5,51.5,qs,{
name = inserted;
})
);
}
);
width = 543;
}
);
unicode = 53;
},
{
glyphname = six;
lastChange = "2024-08-09 09:08:37 +0000";
layers = (
{
layerId = m001;
shapes = (
{
closed = 1;
nodes = (
(190,95,o),
(238,73,o),
(265,73,qs),
(293,73,o),
(342,95,o),
(360.5,113.5,qs,{
name = inserted;
}),
(379,132,o),
(401,181,o),
(401,209,qs),
(401,237,o),
(379,286,o),
(360.5,304,qs,{
name = inserted;
}),
(342,322,o),
(293,343,o),
(265,343,qs),
(238,343,o),
(190,322,o),
(172,304,qs,{
name = inserted;
}),
(154,286,o),
(134,237,o),
(134,209,qs),
(134,181,o),
(154,132,o),
(172,113.5,qs,{
name = inserted;
})
);
},
{
closed = 1;
nodes = (
(389,26,o),
(310,-8,o),
(265,-8,qs),
(222,-8,o),
(145,24,o),
(116,52,qs,{
name = inserted;
}),
(86,79,o),
(50,154,o),
(48,197,qs),
(48,269,o),
(109,394,o),
(157,448,qs,{
name = inserted;
}),
(205,502,o),
(323,596,o),
(379,637,q),
(392,621,o),
(418,589,o),
(431,573,q),
(400,552,o),
(347,513,o),
(324,495,qs),
(300,476,o),
(261,441,o),
(244,423,q),
(249,423,o),
(260,424,o),
(265,424,qs),
(310,424,o),
(389,391,o),
(419,362,qs,{
name = inserted;
}),
(449,332,o),
(484,254,o),
(484,209,qs),
(484,164,o),
(449,85,o),
(419,56,qs,{
name = inserted;
})
);
}
);
width = 520;
},
{
layerId = "51A9AA91-C68C-460C-8D6F-B89E075DCADB";
shapes = (
{
closed = 1;
nodes = (
(144,35,o),
(214,6,o),
(253,6,qs),
(292,6,o),
(362,35,o),
(388,60.5,qs,{
name = inserted;
}),
(414,86,o),
(444,154,o),
(444,193,qs),
(444,232,o),
(414,300,o),
(388,325.5,qs,{
name = inserted;
}),
(362,351,o),
(292,381,o),
(253,381,qs),
(214,381,o),
(144,351,o),
(118.5,325.5,qs,{
name = inserted;
}),
(93,300,o),
(63,232,o),
(63,193,qs),
(63,154,o),
(93,86,o),
(118.5,60.5,qs,{
name = inserted;
})
);
},
{
closed = 1;
nodes = (
(371,24,o),
(296,-8,o),
(254,-8,qs),
(212,-8,o),
(137,24,o),
(109.5,51,qs,{
name = inserted;
}),
(82,78,o),
(50,151,o),
(50,193,qs),
(50,266,o),
(112,391,o),
(160,445,qs,{
name = inserted;
}),
(208,499,o),
(326,592,o),
(382,633,q),
(384,630,o),
(390,623,o),
(392,620,q),
(325,576,o),
(223,490,o),
(186.5,450.5,qs,{
name = inserted;
}),
(150,411,o),
(103,342,o),
(91,314,q),
(119,351,o),
(203,395,o),
(254,395,qs),
(296,395,o),
(371,363,o),
(398.5,335.5,qs,{
name = inserted;
}),
(426,308,o),
(458,235,o),
(458,193,qs),
(458,151,o),
(426,78,o),
(398.5,51,qs,{
name = inserted;
})
);
}
);
width = 520;
}
);
unicode = 54;
},
{
glyphname = seven;
lastChange = "2024-08-09 09:08:37 +0000";
layers = (
{
layerId = m001;
shapes = (
{
closed = 1;
nodes = (
(40,0,l),
(297,568,l),
(93,568,l),
(93,521,l),
(14,521,l),
(14,650,l),
(427,650,l),
(135,0,l)
);
}
);
width = 469;
},
{
layerId = "51A9AA91-C68C-460C-8D6F-B89E075DCADB";
shapes = (
{
closed = 1;
nodes = (
(105,0,l),
(392,636,l),
(28,636,l),
(28,568,l),
(14,568,l),
(14,650,l),
(415,650,l),
(123,0,l)
);
}
);
width = 469;
}
);
unicode = 55;
},
{
glyphname = eight;
lastChange = "2024-08-09 09:08:37 +0000";
layers = (
{
layerId = m001;
shapes = (
{
closed = 1;
nodes = (
(180,480,o),
(195,450,o),
(207,440,qs),
(217,433,o),
(241,424,o),
(255,424,qs),
(270,424,o),
(296,433,o),
(305,442,qs),
(317,452,o),
(330,481,o),
(330,498,qs),
(330,514,o),
(318,544,o),
(307,555,qs),
(297,565,o),
(271,577,o),
(255,577,qs),
(240,577,o),
(212,564,o),
(202,554,qs),
(192,543,o),
(180,514,o),
(180,498,qs)
);
},
{
closed = 1;
nodes = (
(178,95,o),
(226,73,o),
(253,73,qs),
(281,73,o),
(330,95,o),
(348.5,113.5,qs,{
name = inserted;
}),
(367,132,o),
(389,181,o),
(389,209,qs),
(389,236,o),
(368,284,o),
(350.5,302,qs,{
name = inserted;
}),
(333,320,o),
(285,342,o),
(258,343,qs),
(229,343,o),
(179,322,o),
(161,304,qs,{
name = inserted;
}),
(143,286,o),
(122,237,o),
(122,209,qs),
(122,181,o),
(142,132,o),
(160,113.5,qs,{
name = inserted;
})
);
},
{
closed = 1;
nodes = (
(377,26,o),
(298,-8,o),
(253,-8,qs),
(208,-8,o),
(129,26,o),
(100,56,qs,{
name = inserted;
}),
(70,85,o),
(36,164,o),
(36,209,qs),
(36,244,o),
(57,308,o),
(76,334,qs),
(89,351,o),
(120,380,o),
(138,391,q),
(118,411,o),
(95,466,o),
(95,498,qs),
(95,531,o),
(120,589,o),
(142,611,qs,{
name = inserted;
}),
(163,633,o),
(220,658,o),
(253,658,qs),
(286,658,o),
(344,633,o),
(366,611,qs,{
name = inserted;
}),
(388,589,o),
(413,531,o),
(413,498,qs),
(413,466,o),
(389,411,o),
(369,391,q),
(386,380,o),
(416,354,o),
(428,338,qs),
(448,311,o),
(472,246,o),
(472,209,qs),
(472,164,o),
(437,85,o),
(407,56,qs,{
name = inserted;
})
);
}
);
width = 510;
},
{
layerId = "51A9AA91-C68C-460C-8D6F-B89E075DCADB";
shapes = (
{
closed = 1;
nodes = (
(178,413,o),
(226,396,o),
(254,396,qs),
(281,396,o),
(328,413,o),
(345.5,428.5,qs,{
name = inserted;
}),
(363,444,o),
(382,486,o),
(382,511,qs),
(382,538,o),
(363,586,o),
(345.5,604,qs,{
name = inserted;
}),
(328,622,o),
(281,644,o),
(254,644,qs),
(226,644,o),
(178,622,o),
(160,604,qs,{
name = inserted;
}),
(142,586,o),
(122,538,o),
(122,511,qs),
(122,486,o),
(142,444,o),
(160,428.5,qs,{
name = inserted;
})
);
},
{
closed = 1;
nodes = (
(146,36,o),
(214,5,o),
(253,5,qs),
(293,5,o),
(363,36,o),
(389,62,qs,{
name = inserted;
}),
(415,88,o),
(446,157,o),
(446,195,qs),
(446,234,o),
(415,301,o),
(389,326.5,qs,{
name = inserted;
}),
(363,352,o),
(293,381,o),
(253,381,qs),
(214,381,o),
(146,352,o),
(121,326.5,qs,{
name = inserted;
}),
(96,301,o),
(67,234,o),
(67,195,qs),
(67,157,o),
(96,88,o),
(121,62,qs,{
name = inserted;
})
);
},
{
closed = 1;
nodes = (
(372,24,o),
(297,-8,o),
(255,-8,qs),
(213,-8,o),
(140,24,o),
(112.5,51.5,qs,{
name = inserted;
}),
(85,79,o),
(53,153,o),
(53,195,qs),
(53,230,o),
(76,293,o),
(96,318.5,qs,{
name = inserted;
}),
(116,344,o),
(171,381,o),
(204,389,q),
(162,403,o),
(108,472,o),
(108,518,qs),
(108,547,o),
(131,598,o),
(150.5,617,qs,{
name = inserted;
}),
(170,636,o),
(222,658,o),
(252,658,qs),
(282,658,o),
(334,635,o),
(353.5,615.5,qs,{
name = inserted;
}),
(373,596,o),
(396,544,o),
(396,514,qs),
(396,470,o),
(345,403,o),
(304,389,q),
(337,381,o),
(394,345,o),
(415,319.5,qs,{
name = inserted;
}),
(436,294,o),
(460,231,o),
(460,195,qs),
(460,153,o),
(427,79,o),
(399.5,51.5,qs,{
name = inserted;
})
);
}
);
width = 510;
}
);
unicode = 56;
},
{
glyphname = nine;
lastChange = "2024-08-09 09:08:37 +0000";
layers = (
{
layerId = m001;
shapes = (
{
closed = 1;
nodes = (
(168,306,o),
(217,285,o),
(245,285,qs),
(272,285,o),
(320,306,o),
(338,324,qs,{
name = inserted;
}),
(356,342,o),
(376,391,o),
(376,419,qs),
(376,447,o),
(356,496,o),
(338,514.5,qs,{
name = inserted;
}),
(320,533,o),
(272,555,o),
(245,555,qs),
(217,555,o),
(168,533,o),
(149.5,514.5,qs,{
name = inserted;
}),
(131,496,o),
(109,447,o),
(109,419,qs),
(109,391,o),
(131,342,o),
(149.5,324,qs,{
name = inserted;
})
);
},
{
closed = 1;
nodes = (
(301,122,o),
(185,30,o),
(131,-9,q),
(118,7,o),
(92,39,o),
(79,55,q),
(126,86,o),
(198,142,o),
(226,167,qs),
(237,177,o),
(259,197,o),
(269,207,q),
(262,205,o),
(250,204,o),
(245,204,qs),
(200,204,o),
(121,237,o),
(91,267,qs,{
name = inserted;
}),
(61,296,o),
(26,374,o),
(26,419,qs),
(26,464,o),
(61,543,o),
(91,573,qs,{
name = inserted;
}),
(121,602,o),
(200,636,o),
(245,636,qs),
(290,636,o),
(369,601,o),
(399,572,qs,{
name = inserted;
}),
(428,542,o),
(462,463,o),
(462,419,qs),
(462,351,o),
(399,229,o),
(350,176,qs,{
name = inserted;
})
);
}
);
width = 525;
},
{
layerId = "51A9AA91-C68C-460C-8D6F-B89E075DCADB";
shapes = (
{
closed = 1;
nodes = (
(151,273,o),
(221,244,o),
(260,244,qs),
(299,244,o),
(369,273,o),
(394.5,298.5,qs,{
name = inserted;
}),
(420,324,o),
(450,393,o),
(450,432,qs),
(450,471,o),
(420,539,o),
(394.5,564.5,qs,{
name = inserted;
}),
(369,590,o),
(299,619,o),
(260,619,qs),
(221,619,o),
(151,590,o),
(125,564.5,qs,{
name = inserted;
}),
(99,539,o),
(69,471,o),
(69,432,qs),
(69,393,o),
(99,324,o),
(125,298.5,qs,{
name = inserted;
})
);
},
{
closed = 1;
nodes = (
(305,126,o),
(187,33,o),
(131,-8,q),
(129,-5,o),
(123,2,o),
(121,5,q),
(188,49,o),
(290,135,o),
(326.5,174.5,qs,{
name = inserted;
}),
(363,214,o),
(410,283,o),
(422,311,q),
(394,274,o),
(310,230,o),
(259,230,qs),
(217,230,o),
(142,262,o),
(114.5,289.5,qs,{
name = inserted;
}),
(87,317,o),
(55,390,o),
(55,432,qs),
(55,474,o),
(87,547,o),
(114.5,574,qs,{
name = inserted;
}),
(142,601,o),
(217,633,o),
(259,633,qs),
(301,633,o),
(376,601,o),
(403.5,574,qs,{
name = inserted;
}),
(431,547,o),
(463,474,o),
(463,432,qs),
(463,359,o),
(401,234,o),
(353,180,qs,{
name = inserted;
})
);
}
);
width = 525;
}
);
unicode = 57;
},
{
glyphname = fraction;
lastChange = "2024-08-09 09:08:37 +0000";
layers = (
{
layerId = m001;
shapes = (
{
closed = 1;
nodes = (
(287,755,l),
(373,755,l),
(95,0,l),
(9,0,l)
);
}
);
width = 382;
},
{
layerId = "51A9AA91-C68C-460C-8D6F-B89E075DCADB";
shapes = (
{
closed = 1;
nodes = (
(287,755,l),
(301,755,l),
(23,0,l),
(9,0,l)
);
}
);
width = 310;
}
);
unicode = 8260;
},
{
glyphname = onehalf;
lastChange = "2024-08-09 09:08:37 +0000";
layers = (
{
layerId = m001;
shapes = (
{
closed = 1;
nodes = (
(113,234,l),
(113,290,l),
(169,290,l),
(169,638,l),
(121,638,l),
(121,695,l),
(229,695,l),
(229,290,l),
(285,290,l),
(285,234,l)
);
},
{
closed = 1;
nodes = (
(548,0,l),
(591,44,o),
(674,127,o),
(705.5,165.5,qs,{
name = inserted;
}),
(737,204,o),
(776,277,o),
(776,311,qs),
(776,337,o),
(759,374,o),
(745.5,386,qs,{
name = inserted;
}),
(732,398,o),
(702,410,o),
(689,410,qs),
(662,410,o),
(628,391,o),
(618,377.5,qs,{
name = inserted;
}),
(608,364,o),
(601,334,o),
(601,323,qs),
(601,300,o),
(615,263,o),
(628,249,q),
(593,213,l),
(569,229,o),
(541,295,o),
(541,323,qs),
(541,351,o),
(560,404,o),
(579,424,qs,{
name = inserted;
}),
(598,444,o),
(653,467,o),
(689,467,qs),
(722,467,o),
(776,443,o),
(795,422.5,qs,{
name = inserted;
}),
(814,402,o),
(835,349,o),
(835,319,qs),
(835,284,o),
(810,218,o),
(790,185.5,qs,{
name = inserted;
}),
(770,153,o),
(718,89,o),
(689,57,q),
(805,57,l),
(805,123,l),
(861,123,l),
(861,0,l)
);
},
{
closed = 1;
nodes = (
(256,-19,l),
(326,171,o),
(464,546,o),
(534,736,q),
(618,736,l),
(548,546,o),
(410,171,o),
(340,-19,q)
);
}
);
width = 1069;
},
{
layerId = "51A9AA91-C68C-460C-8D6F-B89E075DCADB";
shapes = (
{
closed = 1;
nodes = (
(145,234,l),
(145,244,l),
(201,244,l),
(201,685,l),
(121,685,l),
(121,695,l),
(211,695,l),
(211,244,l),
(268,244,l),
(268,234,l)
);
},
{
closed = 1;
nodes = (
(590,0,l),
(636,44,o),
(722,129,o),
(755,170,qs,{
name = inserted;
}),
(788,211,o),
(828,286,o),
(828,319,qs),
(828,359,o),
(805,411,o),
(788,426.5,qs,{
name = inserted;
}),
(771,442,o),
(732,455,o),
(714,455,qs),
(679,455,o),
(634,430,o),
(621,411.5,qs,{
name = inserted;
}),
(608,393,o),
(598,350,o),
(598,331,qs),
(598,306,o,{
name = inserted;
}),
(612.5,266,o),
(627,251,q),
(620,245,l),
(605,262,o),
(588,302,o),
(588,331,qs),
(588,360,o),
(605,408,o),
(620.5,426,qs,{
name = inserted;
}),
(636,444,o),
(684,465,o),
(714,465,qs),
(742,465,o),
(787,444,o),
(803.5,426,qs,{
name = inserted;
}),
(820,408,o),
(838,358,o),
(838,328,qs),
(838,287,o),
(796,206,o),
(763.5,166,qs,{
name = inserted;
}),
(731,126,o),
(653,48,o),
(616,10,q),
(860,10,l),
(860,90,l),
(870,90,l),
(870,0,l)
);
},
{
closed = 1;
nodes = (
(295,-19,l),
(365,171,o),
(503,545,o),
(573,735,q),
(587,735,l),
(517,545,o),
(379,171,o),
(309,-19,q)
);
}
);
width = 1069;
}
);
unicode = 189;
},
{
glyphname = onequarter;
lastChange = "2024-08-09 09:08:37 +0000";
layers = (
{
layerId = m001;
shapes = (
{
closed = 1;
nodes = (
(256,-19,l),
(326,171,o),
(464,546,o),
(534,736,q),
(618,736,l),
(548,546,o),
(410,171,o),
(340,-19,q)
);
},
{
closed = 1;
nodes = (
(655,0,l),
(655,59,l),
(711,59,l),
(711,136,l),
(501,136,l),
(773,490,l),
(773,197,l),
(845,197,l),
(845,136,l),
(773,136,l),
(773,59,l),
(835,59,l),
(835,0,l)
);
},
{
closed = 1;
nodes = (
(626,197,l),
(711,197,l),
(711,308,l)
);
},
{
closed = 1;
nodes = (
(113,234,l),
(113,290,l),
(169,290,l),
(169,638,l),
(121,638,l),
(121,695,l),
(229,695,l),
(229,290,l),
(285,290,l),
(285,234,l)
);
}
);
width = 968;
},
{
layerId = "51A9AA91-C68C-460C-8D6F-B89E075DCADB";
shapes = (
{
closed = 1;
nodes = (
(295,-19,l),
(365,171,o),
(503,545,o),
(573,735,q),
(587,735,l),
(517,545,o),
(379,171,o),
(309,-19,q)
);
},
{
closed = 1;
nodes = (
(706,0,l),
(706,10,l),
(763,10,l),
(763,136,l),
(501,136,l),
(773,490,l),
(773,147,l),
(845,147,l),
(845,136,l),
(773,136,l),
(773,10,l),
(835,10,l),
(835,0,l)
);
},
{
closed = 1;
nodes = (
(524,147,l),
(763,147,l),
(763,459,l)
);
},
{
closed = 1;
nodes = (
(161,234,l),
(161,244,l),
(218,244,l),
(218,685,l),
(138,685,l),
(138,695,l),
(228,695,l),
(228,244,l),
(285,244,l),
(285,234,l)
);
}
);
width = 968;
}
);
unicode = 188;
},
{
glyphname = threequarters;
lastChange = "2024-08-09 09:08:37 +0000";
layers = (
{
layerId = m001;
shapes = (
{
closed = 1;
nodes = (
(358,225,o),
(297,199,o),
(262,199,qs),
(225,199,o),
(162,229,o),
(139,254,q),
(186,298,l),
(200,281,o),
(239,261,o),
(262,261,qs),
(284,261,o),
(322,278,o),
(336,292.5,qs,{
name = inserted;
}),
(350,307,o),
(367,345,o),
(367,367,qs),
(367,388,o),
(350,426,o),
(336,440,qs,{
name = inserted;
}),
(322,454,o),
(284,470,o),
(262,470,qs),
(248,470,o,{
name = inserted;
}),
(223,463.5,o),
(212,457,q),
(320,644,l),
(234,644,l),
(234,608,l),
(173,608,l),
(173,708,l),
(427,708,l),
(316,524,l),
(342,514,o),
(384,484,o),
(399.5,464,qs,{
name = inserted;
}),
(415,444,o),
(432,395,o),
(432,367,qs),
(432,332,o),
(405,271,o),
(381.5,248,qs,{
name = inserted;
})
);
},
{
closed = 1;
nodes = (
(446,-19,l),
(516,171,o),
(654,546,o),
(724,736,q),
(808,736,l),
(738,546,o),
(600,171,o),
(530,-19,q)
);
},
{
closed = 1;
nodes = (
(854,0,l),
(854,59,l),
(910,59,l),
(910,136,l),
(700,136,l),
(972,490,l),
(972,197,l),
(1044,197,l),
(1044,136,l),
(972,136,l),
(972,59,l),
(1034,59,l),
(1034,0,l)
);
},
{
closed = 1;
nodes = (
(825,197,l),
(910,197,l),
(910,308,l)
);
}
);
width = 1276;
},
{
layerId = "51A9AA91-C68C-460C-8D6F-B89E075DCADB";
shapes = (
{
closed = 1;
nodes = (
(358,225,o),
(301,200,o),
(268,200,qs),
(234,200,o),
(175,228,o),
(154,251,q),
(161,261,l),
(180,238,o),
(234,211,o),
(266,211,qs),
(296,211,o),
(351,234,o),
(371,254,qs,{
name = inserted;
}),
(391,274,o),
(415,327,o),
(415,357,qs),
(415,387,o),
(391,440,o),
(371,460,qs,{
name = inserted;
}),
(351,479,o),
(296,502,o),
(266,502,qs),
(254,502,o),
(230,493,o),
(219,485,q),
(382,697,l),
(172,697,l),
(172,645,l),
(161,645,l),
(161,708,l),
(407,708,l),
(254,513,l),
(288,515,o),
(351,492,o),
(375,472,qs,{
name = inserted;
}),
(398,451,o),
(426,391,o),
(426,357,qs),
(426,324,o),
(401,267,o),
(380,246,qs,{
name = inserted;
})
);
},
{
closed = 1;
nodes = (
(460,-19,l),
(530,171,o),
(668,546,o),
(738,736,q),
(752,736,l),
(682,546,o),
(544,171,o),
(474,-19,q)
);
},
{
closed = 1;
nodes = (
(904,0,l),
(904,10,l),
(962,10,l),
(962,136,l),
(700,136,l),
(972,490,l),
(972,147,l),
(1045,147,l),
(1045,136,l),
(972,136,l),
(972,10,l),
(1034,10,l),
(1034,0,l)
);
},
{
closed = 1;
nodes = (
(722,147,l),
(962,147,l),
(962,459,l)
);
}
);
width = 1276;
}
);
unicode = 190;
},
{
glyphname = onesuperior;
lastChange = "2024-08-09 09:08:37 +0000";
layers = (
{
layerId = m001;
shapes = (
{
closed = 1;
nodes = (
(53,401,l),
(53,437,l),
(89,437,l),
(89,663,l),
(58,663,l),
(58,700,l),
(128,700,l),
(128,437,l),
(164,437,l),
(164,401,l)
);
}
);
width = 273;
},
{
layerId = "51A9AA91-C68C-460C-8D6F-B89E075DCADB";
shapes = (
{
closed = 1;
nodes = (
(86,375,l),
(86,381,l),
(125,381,l),
(125,693,l),
(70,693,l),
(70,700,l),
(133,700,l),
(133,381,l),
(172,381,l),
(172,375,l)
);
}
);
width = 249;
}
);
unicode = 185;
},
{
glyphname = twosuperior;
lastChange = "2024-08-09 09:08:37 +0000";
layers = (
{
layerId = m001;
shapes = (
{
closed = 1;
nodes = (
(104,375,l),
(135,406,o),
(192,463,o),
(214,490,qs,{
name = inserted;
}),
(236,517,o),
(263,568,o),
(263,591,qs),
(263,610,o),
(251,635,o),
(242,643.5,qs,{
name = inserted;
}),
(233,652,o),
(212,660,o),
(203,660,qs),
(184,660,o),
(160,647,o),
(153.5,637.5,qs,{
name = inserted;
}),
(147,628,o),
(141,608,o),
(141,600,qs),
(141,583,o),
(151,558,o),
(160,548,q),
(136,523,l),
(118.403,534.731,o),
(100,579.531,o),
(100,600,qs),
(100,619,o),
(113,656,o),
(126,670,qs,{
name = inserted;
}),
(139,684,o),
(178,700,o),
(203,700,qs),
(226,700,o),
(263,683,o),
(276.5,669,qs,{
name = inserted;
}),
(290,655,o),
(304,618,o),
(304,597,qs),
(304,573,o),
(287,527,o),
(273,504,qs,{
name = inserted;
}),
(259,481,o),
(223,437,o),
(203,415,q),
(284,415,l),
(284,461,l),
(323,461,l),
(323,375,l)
);
}
);
width = 398;
},
{
layerId = "51A9AA91-C68C-460C-8D6F-B89E075DCADB";
shapes = (
{
closed = 1;
nodes = (
(102,375,l),
(134,406,o),
(194,465,o),
(217,493.5,qs,{
name = inserted;
}),
(240,522,o),
(269,575,o),
(269,598,qs),
(269,626,o),
(253,662,o),
(241,673,qs,{
name = inserted;
}),
(229,684,o),
(201,693,o),
(189,693,qs),
(164,693,o),
(133,676,o),
(124,663,qs,{
name = inserted;
}),
(115,650,o),
(108,619,o),
(108,607,qs),
(108,589.5,o,{
name = inserted;
}),
(118,561,o),
(128,550,q),
(123,546,l),
(113,558,o),
(101,586,o),
(101,607,qs),
(101,626,o),
(112,660,o),
(123,673,qs,{
name = inserted;
}),
(134,686,o),
(168,700,o),
(189,700,qs),
(208,700,o),
(240,686,o),
(251.5,673,qs,{
name = inserted;
}),
(263,660,o),
(276,625,o),
(276,604,qs),
(276,576,o),
(246,519,o),
(223.5,491,qs,{
name = inserted;
}),
(201,463,o),
(146,409,o),
(120,382,q),
(292,382,l),
(292,438,l),
(298,438,l),
(298,375,l)
);
}
);
width = 398;
}
);
unicode = 178;
},
{
glyphname = threesuperior;
lastChange = "2024-08-09 09:08:37 +0000";
layers = (
{
layerId = m001;
shapes = (
{
closed = 1;
nodes = (
(217,393,o),
(178,376,o),
(156,376,qs),
(132,376,o),
(92,395,o),
(77,411,q),
(107,439,l),
(116,428,o),
(141,416,o),
(156,416,qs),
(170,416,o),
(194,427,o),
(203,436,qs,{
name = inserted;
}),
(212,445,o),
(223,469,o),
(223,483,qs),
(223,497,o),
(212,521,o),
(203,530,qs,{
name = inserted;
}),
(194,539,o),
(170,549,o),
(156,549,qs),
(147,549,o,{
name = inserted;
}),
(131,545,o),
(124,541,q),
(193,660,l),
(138,660,l),
(138,637,l),
(99,637,l),
(99,700,l),
(261,700,l),
(191,583,l),
(207,577,o),
(234,558,o),
(243.5,545,qs,{
name = inserted;
}),
(253,532,o),
(264,501,o),
(264,483,qs),
(264,461,o),
(247,422,o),
(232,407.5,qs,{
name = inserted;
})
);
}
);
width = 419;
},
{
layerId = "51A9AA91-C68C-460C-8D6F-B89E075DCADB";
shapes = (
{
closed = 1;
nodes = (
(226,392,o),
(190,376,o),
(169,376,qs),
(147,376,o),
(110,394,o),
(96,409,q),
(101,415,l),
(113,401,o),
(147,383,o),
(168,383,qs),
(187,383,o),
(222,398,o),
(235,410.5,qs,{
name = inserted;
}),
(248,423,o),
(263,457,o),
(263,476,qs),
(263,495,o),
(248,529,o),
(235,541.5,qs,{
name = inserted;
}),
(222,554,o),
(187,569,o),
(168,569,qs),
(160,569,o),
(145,563,o),
(138,558,q),
(242,693,l),
(108,693,l),
(108,660,l),
(101,660,l),
(101,700,l),
(258,700,l),
(160,576,l),
(182,577,o),
(222,563,o),
(237,549.5,qs,{
name = inserted;
}),
(252,536,o),
(270,498,o),
(270,476,qs),
(270,455,o),
(254,419,o),
(240,405.5,qs,{
name = inserted;
})
);
}
);
width = 419;
}
);
unicode = 179;
},
{
glyphname = foursuperior;
lastChange = "2024-08-09 09:08:37 +0000";
layers = (
{
layerId = m001;
shapes = (
{
closed = 1;
nodes = (
(165,401,l),
(165,437,l),
(201,437,l),
(201,486,l),
(68,486,l),
(240,709,l),
(240,524,l),
(284,524,l),
(284,486,l),
(240,486,l),
(240,437,l),
(278,437,l),
(278,401,l)
);
},
{
closed = 1;
nodes = (
(145,524,l),
(201,524,l),
(201,597,l)
);
}
);
width = 430;
},
{
layerId = "51A9AA91-C68C-460C-8D6F-B89E075DCADB";
shapes = (
{
closed = 1;
nodes = (
(197,375,l),
(197,381,l),
(235,381,l),
(235,465,l),
(68,465,l),
(243,703,l),
(243,472,l),
(290,472,l),
(290,465,l),
(243,465,l),
(243,381,l),
(283,381,l),
(283,375,l)
);
},
{
closed = 1;
nodes = (
(83,472,l),
(235,472,l),
(235,681,l)
);
}
);
width = 400;
}
);
unicode = 8308;
},
{
glyphname = period;
lastChange = "2024-08-09 09:08:37 +0000";
layers = (
{
layerId = m001;
shapes = (
{
closed = 1;
nodes = (
(136,29,o),
(104,0,o),
(85,0,qs),
(65,0,o),
(33,29,o),
(33,52,qs),
(33,75,o),
(65,105,o),
(85,105,qs),
(104,105,o),
(136,75,o),
(136,52,qs)
);
}
);
width = 163;
},
{
layerId = "51A9AA91-C68C-460C-8D6F-B89E075DCADB";
shapes = (
{
closed = 1;
nodes = (
(106,12,o),
(94,0,o),
(86,0,qs),
(78,0,o),
(66,12,o),
(66,20,qs),
(66,28,o),
(78,40,o),
(86,40,qs),
(94,40,o),
(106,28,o),
(106,20,qs)
);
}
);
width = 163;
}
);
unicode = 46;
},
{
glyphname = comma;
lastChange = "2024-08-09 09:08:37 +0000";
layers = (
{
layerId = m001;
shapes = (
{
closed = 1;
nodes = (
(2,-120,l),
(22,-68,o),
(59,34,o),
(79,86,q),
(163,86,l),
(141,34,o),
(99,-68,o),
(77,-120,q)
);
}
);
width = 200;
},
{
layerId = "51A9AA91-C68C-460C-8D6F-B89E075DCADB";
shapes = (
{
closed = 1;
nodes = (
(27,-120,l),
(47,-68,o),
(84,34,o),
(104,86,q),
(127,86,l),
(105,34,o),
(63,-68,o),
(41,-120,q)
);
}
);
width = 200;
}
);
unicode = 44;
},
{
glyphname = colon;
lastChange = "2024-08-09 09:08:37 +0000";
layers = (
{
layerId = m001;
shapes = (
{
closed = 1;
nodes = (
(136,279,o),
(104,250,o),
(85,250,qs),
(65,250,o),
(33,279,o),
(33,302,qs),
(33,325,o),
(65,355,o),
(85,355,qs),
(104,355,o),
(136,325,o),
(136,302,qs)
);
},
{
closed = 1;
nodes = (
(136,29,o),
(104,0,o),
(85,0,qs),
(65,0,o),
(33,29,o),
(33,52,qs),
(33,75,o),
(65,105,o),
(85,105,qs),
(104,105,o),
(136,75,o),
(136,52,qs)
);
}
);
width = 175;
},
{
layerId = "51A9AA91-C68C-460C-8D6F-B89E075DCADB";
shapes = (
{
closed = 1;
nodes = (
(105,262,o),
(93,250,o),
(85,250,qs),
(77,250,o),
(65,262,o),
(65,270,qs),
(65,278,o),
(77,290,o),
(85,290,qs),
(93,290,o),
(105,278,o),
(105,270,qs)
);
},
{
closed = 1;
nodes = (
(105,12,o),
(93,0,o),
(85,0,qs),
(77,0,o),
(65,12,o),
(65,20,qs),
(65,28,o),
(77,40,o),
(85,40,qs),
(93,40,o),
(105,28,o),
(105,20,qs)
);
}
);
width = 175;
}
);
unicode = 58;
},
{
glyphname = semicolon;
lastChange = "2024-08-09 09:08:37 +0000";
layers = (
{
layerId = m001;
shapes = (
{
closed = 1;
nodes = (
(167,279,o),
(135,250,o),
(116,250,qs),
(96,250,o),
(64,279,o),
(64,302,qs),
(64,325,o),
(96,355,o),
(116,355,qs),
(135,355,o),
(167,325,o),
(167,302,qs)
);
},
{
closed = 1;
nodes = (
(-12,-120,l),
(8,-68,o),
(45,34,o),
(65,86,q),
(149,86,l),
(127,34,o),
(85,-68,o),
(63,-120,q)
);
}
);
width = 201;
},
{
layerId = "51A9AA91-C68C-460C-8D6F-B89E075DCADB";
shapes = (
{
closed = 1;
nodes = (
(128,262,o),
(116,250,o),
(108,250,qs),
(100,250,o),
(88,262,o),
(88,270,qs),
(88,278,o),
(100,290,o),
(108,290,qs),
(116,290,o),
(128,278,o),
(128,270,qs)
);
},
{
closed = 1;
nodes = (
(12,-120,l),
(32,-68,o),
(69,34,o),
(89,86,q),
(112,86,l),
(90,34,o),
(48,-68,o),
(26,-120,q)
);
}
);
width = 201;
}
);
unicode = 59;
},
{
glyphname = ellipsis;
lastChange = "2024-08-09 09:08:37 +0000";
layers = (
{
background = {
shapes = (
{
closed = 1;
nodes = (
(60,58,o),
(86,82,o),
(103,82,q),
(119,82,o),
(146,58,o),
(146,41,q),
(146,23,o),
(119,0,o),
(103,0,q),
(86,0,o),
(60,23,o),
(60,41,q)
);
},
{
closed = 1;
nodes = (
(236,58,o),
(262,82,o),
(279,82,q),
(295,82,o),
(322,58,o),
(322,41,q),
(322,23,o),
(295,0,o),
(279,0,q),
(262,0,o),
(236,23,o),
(236,41,q)
);
},
{
closed = 1;
nodes = (
(412,58,o),
(438,82,o),
(455,82,q),
(471,82,o),
(498,58,o),
(498,41,q),
(498,23,o),
(471,0,o),
(455,0,q),
(438,0,o),
(412,23,o),
(412,41,q)
);
}
);
};
layerId = m001;
shapes = (
{
closed = 1;
nodes = (
(60,58,o),
(86,82,o),
(103,82,q),
(119,82,o),
(146,58,o),
(146,41,q),
(146,23,o),
(119,0,o),
(103,0,q),
(86,0,o),
(60,23,o),
(60,41,q)
);
},
{
closed = 1;
nodes = (
(236,58,o),
(262,82,o),
(279,82,q),
(295,82,o),
(322,58,o),
(322,41,q),
(322,23,o),
(295,0,o),
(279,0,q),
(262,0,o),
(236,23,o),
(236,41,q)
);
},
{
closed = 1;
nodes = (
(412,58,o),
(438,82,o),
(455,82,q),
(471,82,o),
(498,58,o),
(498,41,q),
(498,23,o),
(471,0,o),
(455,0,q),
(438,0,o),
(412,23,o),
(412,41,q)
);
}
);
width = 558;
},
{
layerId = "51A9AA91-C68C-460C-8D6F-B89E075DCADB";
shapes = (
{
closed = 1;
nodes = (
(72,28,o),
(84,40,o),
(92,40,q),
(100,40,o),
(112,28,o),
(112,20,q),
(112,12,o),
(100,0,o),
(92,0,q),
(84,0,o),
(72,12,o),
(72,20,q)
);
},
{
closed = 1;
nodes = (
(235,28,o),
(247,40,o),
(255,40,q),
(263,40,o),
(275,28,o),
(275,20,q),
(275,12,o),
(263,0,o),
(255,0,q),
(247,0,o),
(235,12,o),
(235,20,q)
);
},
{
closed = 1;
nodes = (
(398,28,o),
(410,40,o),
(418,40,q),
(426,40,o),
(438,28,o),
(438,20,q),
(438,12,o),
(426,0,o),
(418,0,q),
(410,0,o),
(398,12,o),
(398,20,q)
);
}
);
width = 511;
}
);
unicode = 8230;
},
{
glyphname = exclam;
lastChange = "2024-08-09 09:08:37 +0000";
layers = (
{
layerId = m001;
shapes = (
{
closed = 1;
nodes = (
(151,30,o),
(119,0,o),
(100,0,qs),
(80,0,o),
(48,30,o),
(48,53,qs),
(48,76,o),
(80,105,o),
(100,105,qs),
(119,105,o),
(151,76,o),
(151,53,qs)
);
},
{
closed = 1;
nodes = (
(58,166,l),
(58,750,l),
(141,750,l),
(141,166,l)
);
}
);
width = 201;
},
{
layerId = "51A9AA91-C68C-460C-8D6F-B89E075DCADB";
shapes = (
{
closed = 1;
nodes = (
(120,48,o),
(108,36,o),
(100,36,qs),
(93,36,o),
(81,48,o),
(81,56,qs),
(81,65,o),
(93,76,o),
(100,76,qs),
(108,76,o),
(120,65,o),
(120,56,qs)
);
},
{
closed = 1;
nodes = (
(93,166,l),
(93,750,l),
(107,750,l),
(107,166,l)
);
}
);
width = 201;
}
);
unicode = 33;
},
{
glyphname = question;
lastChange = "2024-08-09 09:08:37 +0000";
layers = (
{
layerId = m001;
shapes = (
{
closed = 1;
nodes = (
(163,164,l),
(163,261,ls),
(163,293,o),
(183,333,o),
(200,348,qs,{
name = inserted;
}),
(217,364,o),
(259,391,o),
(282,409,qs),
(318,436,o),
(352,500,o),
(352,537,qs),
(352,562,o),
(335,606,o),
(319,621,qs),
(305,635,o),
(265,651,o),
(241,651,qs),
(207,651,o),
(161,633,o),
(146,615,qs),
(135,603,o),
(120,572,o),
(114,552,q),
(96,559,o),
(59,572,o),
(41,579,q),
(48,601,o),
(74,654,o),
(97,677,qs,{
name = inserted;
}),
(120,700,o),
(190,732,o),
(241,732,qs),
(282,732,o),
(354,701,o),
(380,674,qs,{
name = inserted;
}),
(407,648,o),
(437,577,o),
(437,537,qs),
(437,481,o),
(384,398,o),
(339,364,qs),
(325,354,o),
(293,333,o),
(279,320,qs,{
name = inserted;
}),
(265,306,o),
(247,269,o),
(247,242,qs),
(247,164,l)
);
},
{
closed = 1;
nodes = (
(255,29,o),
(223,0,o),
(204,0,qs),
(184,0,o),
(152,29,o),
(152,52,qs),
(152,75,o),
(184,105,o),
(204,105,qs),
(223,105,o),
(255,75,o),
(255,52,qs)
);
}
);
width = 452;
},
{
layerId = "51A9AA91-C68C-460C-8D6F-B89E075DCADB";
shapes = (
{
closed = 1;
nodes = (
(208,164,l),
(208,261,ls),
(208,292,o),
(231,329,o),
(250,344,qs,{
name = inserted;
}),
(268,358,o),
(315,387,o),
(339,408,qs),
(370,435,o),
(398,500,o),
(398,537,qs),
(398,576,o),
(370,642,o),
(346,666,qs,{
name = inserted;
}),
(321,691,o),
(254,718,o),
(216,718,qs),
(186,718,o),
(132,700,o),
(109,684,qs,{
name = inserted;
}),
(86,668,o),
(53,623,o),
(44,596,q),
(41,597,o),
(34,598,o),
(31,599,q),
(41,628,o),
(77,677,o),
(101,695,qs),
(125,712,o),
(184,732,o),
(216,732,qs),
(257,732,o),
(329,701,o),
(356,674,qs,{
name = inserted;
}),
(382,648,o),
(412,577,o),
(412,537,qs),
(412,483,o),
(359,402,o),
(314,370,qs),
(294,356,o),
(261,337,o),
(248,325,qs,{
name = inserted;
}),
(236,313,o),
(222,275,o),
(222,242,qs),
(222,164,l)
);
},
{
closed = 1;
nodes = (
(235,37,o),
(223,25,o),
(215,25,qs),
(208,25,o),
(196,37,o),
(196,45,qs),
(196,54,o),
(208,65,o),
(215,65,qs),
(223,65,o),
(235,54,o),
(235,45,qs)
);
}
);
width = 452;
}
);
unicode = 63;
},
{
glyphname = bullet;
lastChange = "2024-08-09 09:08:37 +0000";
layers = (
{
layerId = m001;
shapes = (
{
closed = 1;
nodes = (
(213,174,o),
(167,193,o),
(150,210,qs,{
name = inserted;
}),
(133,227,o),
(113,273,o),
(113,300,qs),
(113,327,o),
(133,373,o),
(150,390.5,qs,{
name = inserted;
}),
(167,408,o),
(213,428,o),
(239,428,qs),
(266,428,o),
(312,408,o),
(329.5,390.5,qs,{
name = inserted;
}),
(347,373,o),
(367,327,o),
(367,300,qs),
(367,273,o),
(347,227,o),
(329.5,210,qs,{
name = inserted;
}),
(312,193,o),
(266,174,o),
(239,174,qs)
);
}
);
width = 479;
},
{
layerId = "51A9AA91-C68C-460C-8D6F-B89E075DCADB";
shapes = (
{
closed = 1;
nodes = (
(227,235,o),
(205,243,o),
(196,251,qs),
(186,260,o),
(174,285,o),
(174,300,qs),
(174,313,o),
(183,337,o),
(191,346,qs),
(200,355,o),
(225,366,o),
(239,366,qs),
(252,366,o),
(276,357,o),
(285,349,qs),
(294,340,o),
(305,315,o),
(305,300,qs),
(305,286,o),
(294,261,o),
(284,252,qs),
(276,244,o),
(252,235,o),
(239,235,qs)
);
}
);
width = 479;
}
);
unicode = 8226;
},
{
glyphname = asterisk;
lastChange = "2024-08-09 09:08:37 +0000";
layers = (
{
layerId = m001;
shapes = (
{
closed = 1;
nodes = (
(128,434,l),
(128,504,l),
(113,495,o),
(82,478,o),
(67,469,q),
(25,542,l),
(41,550,o),
(71,568,o),
(87,576,q),
(72,585,o),
(41,604,o),
(26,613,q),
(65,682,l),
(81,673,o),
(112,654,o),
(128,645,q),
(128,720,l),
(212,720,l),
(212,701,o),
(211,664,o),
(211,645,q),
(227,654,o),
(259,672,o),
(275,681,q),
(315,612,l),
(298,603,o),
(267,584,o),
(250,575,q),
(313,539,l),
(271,466,l),
(255,475,o),
(225,494,o),
(209,503,q),
(209,486,o),
(208,451,o),
(208,434,q)
);
}
);
width = 335;
},
{
layerId = "51A9AA91-C68C-460C-8D6F-B89E075DCADB";
shapes = (
{
closed = 1;
nodes = (
(158,434,l),
(158,561,l),
(130,545,o),
(76,514,o),
(48,498,q),
(39,513,l),
(76,534,o),
(113,555,o),
(150,576,q),
(113,598,o),
(76,620,o),
(39,642,q),
(46,654,l),
(74,637,o),
(130,606,o),
(158,589,q),
(158,720,l),
(176,720,l),
(175,687,o),
(175,622,o),
(174,589,q),
(203,605,o),
(259,637,o),
(288,653,q),
(295,641,l),
(266,624,o),
(211,592,o),
(182,575,q),
(294,511,l),
(285,496,l),
(248,518,o),
(211,540,o),
(174,562,q),
(173,530,o),
(173,466,o),
(172,434,q)
);
}
);
width = 335;
}
);
unicode = 42;
},
{
glyphname = numbersign;
lastChange = "2024-08-09 09:08:37 +0000";
layers = (
{
layerId = m001;
shapes = (
{
closed = 1;
nodes = (
(211,269,l),
(311,269,l),
(323,371,l),
(223,371,l)
);
},
{
closed = 1;
nodes = (
(95,0,l),
(117,188,l),
(25,188,l),
(35,269,l),
(127,269,l),
(139,371,l),
(48,371,l),
(56,452,l),
(148,452,l),
(172,643,l),
(256,643,l),
(232,452,l),
(332,452,l),
(356,643,l),
(440,643,l),
(416,452,l),
(518,452,l),
(510,371,l),
(407,371,l),
(395,269,l),
(497,269,l),
(487,188,l),
(385,188,l),
(363,0,l),
(279,0,l),
(301,188,l),
(201,188,l),
(179,0,l)
);
}
);
width = 571;
},
{
layerId = "51A9AA91-C68C-460C-8D6F-B89E075DCADB";
shapes = (
{
closed = 1;
nodes = (
(162,239,l),
(332,239,l),
(352,407,l),
(182,407,l)
);
},
{
closed = 1;
nodes = (
(120,0,l),
(146,225,l),
(29,225,l),
(30,239,l),
(148,239,l),
(168,407,l),
(52,407,l),
(53,421,l),
(170,421,l),
(197,643,l),
(211,643,l),
(184,421,l),
(354,421,l),
(381,643,l),
(395,643,l),
(368,421,l),
(504,421,l),
(503,407,l),
(366,407,l),
(346,239,l),
(481,239,l),
(480,225,l),
(344,225,l),
(318,0,l),
(304,0,l),
(330,225,l),
(160,225,l),
(134,0,l)
);
}
);
width = 571;
}
);
unicode = 35;
},
{
glyphname = slash;
lastChange = "2024-08-09 09:08:37 +0000";
layers = (
{
layerId = m001;
shapes = (
{
closed = 1;
nodes = (
(17,-19,l),
(87,171,o),
(225,546,o),
(295,736,q),
(379,736,l),
(309,546,o),
(171,171,o),
(101,-19,q)
);
}
);
width = 380;
},
{
layerId = "51A9AA91-C68C-460C-8D6F-B89E075DCADB";
shapes = (
{
closed = 1;
nodes = (
(17,-19,l),
(87,171,o),
(225,546,o),
(295,736,q),
(309,736,l),
(239,546,o),
(101,171,o),
(31,-19,q)
);
}
);
width = 322;
}
);
unicode = 47;
},
{
glyphname = backslash;
lastChange = "2024-08-09 09:08:37 +0000";
layers = (
{
layerId = m001;
shapes = (
{
closed = 1;
nodes = (
(278,-19,l),
(208,171,o),
(70,546,o),
(0,736,q),
(94,736,l),
(164,546,o),
(302,171,o),
(372,-19,q)
);
}
);
width = 385;
},
{
layerId = "51A9AA91-C68C-460C-8D6F-B89E075DCADB";
shapes = (
{
closed = 1;
nodes = (
(295,-19,l),
(225,171,o),
(87,546,o),
(17,736,q),
(31,736,l),
(101,546,o),
(239,171,o),
(309,-19,q)
);
}
);
width = 320;
}
);
unicode = 92;
},
{
glyphname = hyphen;
lastChange = "2024-08-09 09:08:37 +0000";
layers = (
{
layerId = m001;
shapes = (
{
closed = 1;
nodes = (
(53,147,l),
(53,228,l),
(237,228,l),
(237,147,l)
);
}
);
width = 300;
},
{
layerId = "51A9AA91-C68C-460C-8D6F-B89E075DCADB";
shapes = (
{
closed = 1;
nodes = (
(53,184,l),
(53,198,l),
(237,198,l),
(237,184,l)
);
}
);
width = 300;
}
);
unicode = 45;
},
{
glyphname = endash;
lastChange = "2024-08-09 09:08:37 +0000";
layers = (
{
layerId = m001;
shapes = (
{
closed = 1;
nodes = (
(100,174,l),
(100,255,l),
(401,255,l),
(401,174,l)
);
}
);
width = 509;
},
{
layerId = "51A9AA91-C68C-460C-8D6F-B89E075DCADB";
shapes = (
{
closed = 1;
nodes = (
(100,179,l),
(100,193,l),
(401,193,l),
(401,179,l)
);
}
);
width = 509;
}
);
unicode = 8211;
},
{
glyphname = emdash;
lastChange = "2024-08-09 09:08:37 +0000";
layers = (
{
layerId = m001;
shapes = (
{
closed = 1;
nodes = (
(99,174,l),
(99,255,l),
(601,255,l),
(601,174,l)
);
}
);
width = 700;
},
{
layerId = "51A9AA91-C68C-460C-8D6F-B89E075DCADB";
shapes = (
{
closed = 1;
nodes = (
(99,179,l),
(99,193,l),
(601,193,l),
(601,179,l)
);
}
);
width = 700;
}
);
unicode = 8212;
},
{
glyphname = underscore;
lastChange = "2024-08-09 09:08:37 +0000";
layers = (
{
layerId = m001;
shapes = (
{
closed = 1;
nodes = (
(100,0,l),
(100,81,l),
(500,81,l),
(500,0,l)
);
}
);
width = 600;
},
{
layerId = "51A9AA91-C68C-460C-8D6F-B89E075DCADB";
shapes = (
{
closed = 1;
nodes = (
(100,0,l),
(100,14,l),
(500,14,l),
(500,0,l)
);
}
);
width = 600;
}
);
unicode = 95;
},
{
glyphname = parenleft;
lastChange = "2024-08-09 09:08:37 +0000";
layers = (
{
layerId = m001;
shapes = (
{
closed = 1;
nodes = (
(335,-147,o),
(298,-158,o),
(280,-164,q),
(248,-131,o),
(189,-36,o),
(166,22,qs,{
name = inserted;
}),
(143,80,o),
(115,216,o),
(115,291,qs),
(115,366,o),
(143,502,o),
(166,560,qs,{
name = inserted;
}),
(189,618,o),
(248,713,o),
(280,746,q),
(298,740,o),
(335,729,o),
(353,723,q),
(324,690,o),
(269,600,o),
(247,545,qs,{
name = inserted;
}),
(225,490,o),
(199,362,o),
(199,291,qs),
(199,220,o),
(225,92,o),
(247,37,qs,{
name = inserted;
}),
(269,-18,o),
(324,-108,o),
(353,-141,q)
);
}
);
width = 424;
},
{
layerId = "51A9AA91-C68C-460C-8D6F-B89E075DCADB";
shapes = (
{
closed = 1;
nodes = (
(314,-146,o),
(313,-157,o),
(312,-163,q),
(280,-130,o),
(221,-35,o),
(198,23,qs,{
name = inserted;
}),
(175,81,o),
(147,217,o),
(147,292,qs),
(147,367,o),
(175,503,o),
(198,561,qs,{
name = inserted;
}),
(221,619,o),
(280,714,o),
(312,747,q),
(313,741,o),
(314,730,o),
(315,724,q),
(286,691,o),
(231,601,o),
(209,546,qs,{
name = inserted;
}),
(187,491,o),
(161,363,o),
(161,292,qs),
(161,221,o),
(187,93,o),
(209,38,qs,{
name = inserted;
}),
(231,-17,o),
(286,-107,o),
(315,-140,q)
);
}
);
width = 394;
}
);
unicode = 40;
},
{
glyphname = parenright;
lastChange = "2024-08-09 09:08:37 +0000";
layers = (
{
layerId = m001;
shapes = (
{
closed = 1;
nodes = (
(238,-39,o),
(178,-134,o),
(147,-167,q),
(129,-162,o),
(92,-151,o),
(74,-146,q),
(103,-113,o),
(158,-23,o),
(180,32,qs,{
name = inserted;
}),
(202,87,o),
(228,215,o),
(228,286,qs),
(228,357,o),
(202,485,o),
(180,540,qs,{
name = inserted;
}),
(158,595,o),
(103,685,o),
(74,718,q),
(92,724,o),
(129,737,o),
(147,743,q),
(178,710,o),
(238,615,o),
(261,557,qs,{
name = inserted;
}),
(284,499,o),
(312,363,o),
(312,288,qs),
(312,213,o),
(284,77,o),
(261,19,qs,{
name = inserted;
})
);
}
);
width = 400;
},
{
layerId = "51A9AA91-C68C-460C-8D6F-B89E075DCADB";
shapes = (
{
closed = 1;
nodes = (
(205,-35,o),
(145,-130,o),
(114,-163,q),
(113,-157,o),
(112,-146,o),
(111,-140,q),
(140,-107,o),
(195,-17,o),
(217,38,qs,{
name = inserted;
}),
(239,93,o),
(265,221,o),
(265,292,qs),
(265,363,o),
(239,491,o),
(217,546,qs,{
name = inserted;
}),
(195,601,o),
(140,691,o),
(111,724,q),
(112,730,o),
(113,741,o),
(114,747,q),
(145,714,o),
(205,619,o),
(228,561,qs,{
name = inserted;
}),
(251,503,o),
(279,367,o),
(279,292,qs),
(279,217,o),
(251,81,o),
(228,23,qs,{
name = inserted;
})
);
}
);
width = 400;
}
);
unicode = 41;
},
{
glyphname = braceleft;
lastChange = "2024-08-09 09:08:37 +0000";
layers = (
{
layerId = m001;
shapes = (
{
closed = 1;
nodes = (
(227,-149,ls),
(204,-149,o),
(161,-147,o),
(144.5,-136.5,qs,{
name = inserted;
}),
(128,-126,o),
(109,-78,o),
(109,-31,qs),
(109,121,ls),
(109,141,o),
(103,188,o),
(94,208,qs,{
name = inserted;
}),
(85,228,o),
(54,255,o),
(30,256,q),
(30,337,l),
(54,338,o),
(85,365,o),
(94,385,qs,{
name = inserted;
}),
(103,405,o),
(109,452,o),
(109,472,qs),
(109,628,ls),
(109,674,o),
(128,723,o),
(144,733.5,qs,{
name = inserted;
}),
(160,744,o),
(203,746,o),
(227,746,qs),
(290,746,l),
(290,665,l),
(246,665,ls),
(231,665,o),
(211,657,o),
(205,645.5,qs,{
name = inserted;
}),
(199,634,o),
(194,594,o),
(194,562,qs),
(194,433,ls),
(194,402,o),
(181,357,o),
(171,341,qs,{
name = inserted;
}),
(161,325,o),
(139,304,o),
(129,298,q),
(139,292,o),
(161,271,o),
(171,254.5,qs,{
name = inserted;
}),
(181,238,o),
(194,194,o),
(194,164,qs),
(194,35,ls),
(194,3,o),
(199,-38,o),
(205,-49,qs,{
name = inserted;
}),
(211,-60,o),
(231,-68,o),
(246,-68,qs),
(290,-68,l),
(290,-149,l)
);
}
);
width = 320;
},
{
layerId = "51A9AA91-C68C-460C-8D6F-B89E075DCADB";
shapes = (
{
closed = 1;
nodes = (
(195,-148,ls),
(175,-148,o),
(140,-144,o),
(129,-130,qs,{
name = inserted;
}),
(118,-116,o),
(109,-53,o),
(109,6,qs),
(109,152,ls),
(109,172,o),
(103,219,o),
(94,239,qs,{
name = inserted;
}),
(85,259,o),
(54,286,o),
(30,287,q),
(30,311,l),
(54,312,o),
(85,339,o),
(94,359,qs,{
name = inserted;
}),
(103,379,o),
(109,426,o),
(109,446,qs),
(109,628,ls),
(109,673,o),
(124,722,o),
(136,732,qs,{
name = inserted;
}),
(148,743,o),
(179,746,o),
(195,746,qs),
(232,746,l),
(232,732,l),
(175,732,ls),
(164,732,o),
(147,726,o),
(141,719,qs),
(131,707,o),
(123,658,o),
(123,620,qs),
(123,470,ls),
(123,423,o),
(112,363,o),
(103,344,qs,{
name = inserted;
}),
(94,326,o),
(70,306,o),
(57,299,q),
(70,291,o),
(94,271,o),
(103,252,qs,{
name = inserted;
}),
(112,233,o),
(123,174,o),
(123,128,qs),
(123,-22,ls),
(123,-57,o),
(129,-104,o),
(138,-117,qs),
(144,-126,o),
(162,-134,o),
(175,-134,qs),
(232,-134,l),
(232,-148,l)
);
}
);
width = 272;
}
);
unicode = 123;
},
{
glyphname = braceright;
lastChange = "2024-08-09 09:08:37 +0000";
layers = (
{
layerId = m001;
shapes = (
{
closed = 1;
nodes = (
(30,-149,l),
(30,-68,l),
(74,-68,ls),
(89,-68,o),
(109,-60,o),
(115,-49,qs,{
name = inserted;
}),
(121,-38,o),
(126,3,o),
(126,35,qs),
(126,164,ls),
(126,194,o),
(139,239,o),
(149,255,qs,{
name = inserted;
}),
(159,271,o),
(182,292,o),
(191,298,q),
(181,304,o),
(158,325,o),
(148.5,341,qs,{
name = inserted;
}),
(139,357,o),
(126,402,o),
(126,433,qs),
(126,562,ls),
(126,594,o),
(121,634,o),
(115,645.5,qs,{
name = inserted;
}),
(109,657,o),
(89,665,o),
(74,665,qs),
(30,665,l),
(30,746,l),
(93,746,ls),
(116,746,o),
(159,744,o),
(175.5,733.5,qs,{
name = inserted;
}),
(192,723,o),
(211,675,o),
(211,628,qs),
(211,472,ls),
(211,452,o),
(218,405,o),
(226.5,385,qs,{
name = inserted;
}),
(235,365,o),
(266,338,o),
(290,337,q),
(290,256,l),
(266,255,o),
(235,228,o),
(226.5,208,qs,{
name = inserted;
}),
(218,188,o),
(211,141,o),
(211,121,qs),
(211,-31,ls),
(211,-78,o),
(192,-126,o),
(176,-136.5,qs,{
name = inserted;
}),
(160,-147,o),
(117,-149,o),
(93,-149,qs)
);
}
);
width = 320;
},
{
layerId = "51A9AA91-C68C-460C-8D6F-B89E075DCADB";
shapes = (
{
closed = 1;
nodes = (
(88,-148,l),
(88,-134,l),
(145,-134,ls),
(158,-134,o),
(177,-125,o),
(183,-115,qs),
(191,-102,o),
(197,-56,o),
(197,-22,qs),
(197,165,ls),
(197,199,o),
(211,245,o),
(221,260,qs,{
name = inserted;
}),
(231,276,o),
(254,294,o),
(263,299,q),
(250,306,o),
(226,326,o),
(217,344,qs,{
name = inserted;
}),
(208,363,o),
(197,423,o),
(197,470,qs),
(197,620,ls),
(197,654,o),
(191,699,o),
(184,712,qs),
(178,722,o),
(159,732,o),
(145,732,qs),
(88,732,l),
(88,746,l),
(125,746,ls),
(141,746,o),
(172,743,o),
(184,732,qs,{
name = inserted;
}),
(196,722,o),
(211,674,o),
(211,628,qs),
(211,482,ls),
(211,458,o),
(214,377,o),
(232,347,qs,{
name = inserted;
}),
(241,332,o),
(269,312,o),
(290,311,q),
(290,287,l),
(258,285,o),
(226,244,o),
(219,216,qs,{
name = inserted;
}),
(212,189,o),
(211,133,o),
(211,116,qs),
(211,-30,ls),
(211,-76,o),
(196,-125,o),
(184,-136,qs,{
name = inserted;
}),
(172,-146,o),
(141,-148,o),
(125,-148,qs)
);
}
);
width = 320;
}
);
unicode = 125;
},
{
glyphname = bracketleft;
lastChange = "2024-08-09 09:08:37 +0000";
layers = (
{
layerId = m001;
shapes = (
{
closed = 1;
nodes = (
(83,-149,l),
(83,746,l),
(275,746,l),
(275,665,l),
(166,665,l),
(166,-68,l),
(275,-68,l),
(275,-149,l)
);
}
);
width = 338;
},
{
layerId = "51A9AA91-C68C-460C-8D6F-B89E075DCADB";
shapes = (
{
closed = 1;
nodes = (
(83,-149,l),
(83,746,l),
(246,746,l),
(246,732,l),
(99,732,l),
(99,-135,l),
(246,-135,l),
(246,-149,l)
);
}
);
width = 338;
}
);
unicode = 91;
},
{
glyphname = bracketright;
lastChange = "2024-08-09 09:08:37 +0000";
layers = (
{
layerId = m001;
shapes = (
{
closed = 1;
nodes = (
(59,-149,l),
(59,-68,l),
(168,-68,l),
(168,665,l),
(59,665,l),
(59,746,l),
(251,746,l),
(251,-149,l)
);
}
);
width = 342;
},
{
layerId = "51A9AA91-C68C-460C-8D6F-B89E075DCADB";
shapes = (
{
closed = 1;
nodes = (
(88,-149,l),
(88,-135,l),
(235,-135,l),
(235,732,l),
(88,732,l),
(88,746,l),
(251,746,l),
(251,-149,l)
);
}
);
width = 342;
}
);
unicode = 93;
},
{
glyphname = quotesinglbase;
lastChange = "2024-08-09 09:08:37 +0000";
layers = (
{
layerId = m001;
shapes = (
{
closed = 1;
nodes = (
(112,50,o),
(88,-25,o),
(60,-53,q),
(19,-29,l),
(40,-9,o),
(59,50,o),
(52,85,q),
(65,87,o),
(91,90,o),
(104,92,q)
);
}
);
width = 146;
},
{
layerId = "51A9AA91-C68C-460C-8D6F-B89E075DCADB";
shapes = (
{
closed = 1;
nodes = (
(80,52,o),
(55,-21,o),
(26,-47,q),
(20,-29,l),
(41,-9,o),
(60,50,o),
(53,85,q),
(58,87,o),
(67,90,o),
(72,92,q)
);
}
);
width = 146;
}
);
unicode = 8218;
},
{
glyphname = quotedblbase;
lastChange = "2024-08-09 09:08:37 +0000";
layers = (
{
layerId = m001;
shapes = (
{
closed = 1;
nodes = (
(112,50,o),
(88,-25,o),
(60,-53,q),
(19,-29,l),
(40,-9,o),
(59,50,o),
(52,85,q),
(65,87,o),
(91,90,o),
(104,92,q)
);
},
{
closed = 1;
nodes = (
(216,50,o),
(192,-25,o),
(164,-53,q),
(123,-29,l),
(144,-9,o),
(163,50,o),
(156,85,q),
(169,87,o),
(195,90,o),
(208,92,q)
);
}
);
width = 341;
},
{
layerId = "51A9AA91-C68C-460C-8D6F-B89E075DCADB";
shapes = (
{
closed = 1;
nodes = (
(80,52,o),
(55,-21,o),
(26,-47,q),
(20,-29,l),
(41,-9,o),
(60,50,o),
(53,85,q),
(58,87,o),
(67,90,o),
(72,92,q)
);
},
{
closed = 1;
nodes = (
(184,52,o),
(159,-21,o),
(130,-47,q),
(124,-29,l),
(145,-9,o),
(164,50,o),
(157,85,q),
(162,87,o),
(171,90,o),
(176,92,q)
);
}
);
width = 234;
}
);
unicode = 8222;
},
{
glyphname = quotedblleft;
lastChange = "2024-08-09 09:08:37 +0000";
layers = (
{
layerId = m001;
shapes = (
{
closed = 1;
nodes = (
(179,566,l),
(151,594,o),
(127,669,o),
(135,711,q),
(148,709,o),
(174,706,o),
(187,704,q),
(180,669,o),
(199,610,o),
(220,590,q)
);
},
{
closed = 1;
nodes = (
(75,566,l),
(47,594,o),
(23,669,o),
(31,711,q),
(44,709,o),
(70,706,o),
(83,704,q),
(76,669,o),
(95,610,o),
(116,590,q)
);
}
);
width = 249;
},
{
layerId = "51A9AA91-C68C-460C-8D6F-B89E075DCADB";
shapes = (
{
closed = 1;
nodes = (
(181,572,l),
(152,598,o),
(127,671,o),
(135,711,q),
(140,709,o),
(149,706,o),
(154,704,q),
(147,669,o),
(166,610,o),
(187,590,q)
);
},
{
closed = 1;
nodes = (
(77,572,l),
(48,598,o),
(23,671,o),
(31,711,q),
(36,709,o),
(45,706,o),
(50,704,q),
(43,669,o),
(62,610,o),
(83,590,q)
);
}
);
width = 249;
}
);
unicode = 8220;
},
{
glyphname = quotedblright;
lastChange = "2024-08-09 09:08:37 +0000";
layers = (
{
layerId = m001;
shapes = (
{
closed = 1;
nodes = (
(104,669,o),
(80,594,o),
(52,566,q),
(11,590,l),
(32,610,o),
(51,669,o),
(44,704,q),
(57,706,o),
(83,709,o),
(96,711,q)
);
},
{
closed = 1;
nodes = (
(208,669,o),
(184,594,o),
(156,566,q),
(115,590,l),
(136,610,o),
(155,669,o),
(148,704,q),
(161,706,o),
(187,709,o),
(200,711,q)
);
}
);
width = 248;
},
{
layerId = "51A9AA91-C68C-460C-8D6F-B89E075DCADB";
shapes = (
{
closed = 1;
nodes = (
(104,671,o),
(79,598,o),
(50,572,q),
(44,590,l),
(65,610,o),
(84,669,o),
(77,704,q),
(82,706,o),
(91,709,o),
(96,711,q)
);
},
{
closed = 1;
nodes = (
(208,671,o),
(183,598,o),
(154,572,q),
(148,590,l),
(169,610,o),
(188,669,o),
(181,704,q),
(186,706,o),
(195,709,o),
(200,711,q)
);
}
);
width = 248;
}
);
unicode = 8221;
},
{
glyphname = quoteleft;
lastChange = "2024-08-09 09:08:37 +0000";
layers = (
{
layerId = m001;
shapes = (
{
closed = 1;
nodes = (
(75,566,l),
(47,594,o),
(23,669,o),
(31,711,q),
(44,709,o),
(70,706,o),
(83,704,q),
(76,669,o),
(95,610,o),
(116,590,q)
);
}
);
width = 164;
},
{
layerId = "51A9AA91-C68C-460C-8D6F-B89E075DCADB";
shapes = (
{
closed = 1;
nodes = (
(86,572,l),
(57,598,o),
(32,671,o),
(40,711,q),
(45,709,o),
(54,706,o),
(59,704,q),
(52,669,o),
(71,610,o),
(92,590,q)
);
}
);
width = 164;
}
);
unicode = 8216;
},
{
glyphname = quoteright;
lastChange = "2024-08-09 09:08:37 +0000";
layers = (
{
layerId = m001;
shapes = (
{
closed = 1;
nodes = (
(128,669,o),
(104,594,o),
(76,566,q),
(35,590,l),
(56,610,o),
(75,669,o),
(68,704,q),
(81,706,o),
(107,709,o),
(120,711,q)
);
}
);
width = 164;
},
{
layerId = "51A9AA91-C68C-460C-8D6F-B89E075DCADB";
shapes = (
{
closed = 1;
nodes = (
(119,671,o),
(94,598,o),
(65,572,q),
(59,590,l),
(80,610,o),
(99,669,o),
(92,704,q),
(97,706,o),
(106,709,o),
(111,711,q)
);
}
);
width = 164;
}
);
unicode = 8217;
},
{
glyphname = guillemetleft;
lastChange = "2024-08-09 09:33:05 +0000";
layers = (
{
layerId = m001;
shapes = (
{
closed = 1;
nodes = (
(331,280,o),
(416,359,o),
(459,400,q),
(459,306,l),
(442,289,o),
(411,256,o),
(394,239,q),
(411,222,o),
(442,189,o),
(459,172,q),
(459,77,l),
(288,239,l)
);
},
{
closed = 1;
nodes = (
(160,280,o),
(245,359,o),
(288,400,q),
(288,305,l),
(271,288,o),
(240,256,o),
(223,239,q),
(240,222,o),
(271,189,o),
(288,172,q),
(288,77,l),
(117,239,l)
);
}
);
width = 601;
},
{
layerId = "51A9AA91-C68C-460C-8D6F-B89E075DCADB";
shapes = (
{
closed = 1;
nodes = (
(331,280,o),
(416,359,o),
(459,400,q),
(459,383,l),
(424,347,o),
(352,275,o),
(317,239,q),
(352,202,o),
(424,130,o),
(459,93,q),
(459,77,l),
(288,239,l)
);
},
{
closed = 1;
nodes = (
(160,280,o),
(245,359,o),
(288,400,q),
(288,383,l),
(253,347,o),
(181,275,o),
(146,239,q),
(181,202,o),
(253,130,o),
(288,93,q),
(288,77,l),
(117,239,l)
);
}
);
width = 601;
}
);
unicode = 171;
},
{
glyphname = guilsinglleft;
lastChange = "2024-08-09 09:08:37 +0000";
layers = (
{
layerId = m001;
shapes = (
{
closed = 1;
nodes = (
(160,280,o),
(245,359,o),
(288,400,q),
(288,305,l),
(271,288,o),
(240,256,o),
(223,239,q),
(240,222,o),
(271,189,o),
(288,172,q),
(288,77,l),
(117,239,l)
);
}
);
width = 392;
},
{
layerId = "51A9AA91-C68C-460C-8D6F-B89E075DCADB";
shapes = (
{
closed = 1;
nodes = (
(160,280,o),
(245,359,o),
(288,400,q),
(288,383,l),
(253,347,o),
(181,275,o),
(146,239,q),
(181,202,o),
(253,130,o),
(288,93,q),
(288,77,l),
(117,239,l)
);
}
);
width = 392;
}
);
unicode = 8249;
},
{
glyphname = quotedbl;
lastChange = "2024-08-09 09:08:37 +0000";
layers = (
{
layerId = m001;
shapes = (
{
closed = 1;
nodes = (
(196,472,l),
(196,720,l),
(279,720,l),
(278,657,o),
(276,535,o),
(275,472,q)
);
},
{
closed = 1;
nodes = (
(63,472,l),
(63,720,l),
(146,720,l),
(145,657,o),
(143,535,o),
(142,472,q)
);
}
);
width = 335;
},
{
layerId = "51A9AA91-C68C-460C-8D6F-B89E075DCADB";
shapes = (
{
closed = 1;
nodes = (
(196,472,l),
(196,720,l),
(214,720,l),
(213,657,o),
(211,535,o),
(210,472,q)
);
},
{
closed = 1;
nodes = (
(63,472,l),
(63,720,l),
(81,720,l),
(80,657,o),
(78,535,o),
(77,472,q)
);
}
);
width = 293;
}
);
unicode = 34;
},
{
glyphname = quotesingle;
lastChange = "2024-08-09 09:08:37 +0000";
layers = (
{
layerId = m001;
shapes = (
{
closed = 1;
nodes = (
(42,472,l),
(42,720,l),
(126,720,l),
(125,657,o),
(123,535,o),
(122,472,q)
);
}
);
width = 163;
},
{
layerId = "51A9AA91-C68C-460C-8D6F-B89E075DCADB";
shapes = (
{
closed = 1;
nodes = (
(67,472,l),
(67,720,l),
(85,720,l),
(84,657,o),
(82,535,o),
(81,472,q)
);
}
);
width = 147;
}
);
unicode = 39;
},
{
glyphname = at;
lastChange = "2024-08-09 09:08:37 +0000";
layers = (
{
layerId = m001;
shapes = (
{
closed = 1;
nodes = (
(368,159,o),
(391,111,o),
(412,95,qs),
(426,84,o),
(464,72,o),
(485,72,qs),
(507,72,o),
(544,85,o),
(559,96,qs),
(579,112,o),
(602,160,o),
(602,188,qs),
(602,216,o),
(580,263,o),
(561,279,qs),
(546,290,o),
(507,303,o),
(485,303,qs),
(460,303,o),
(418,287,o),
(403,273,qs),
(386,258,o),
(368,214,o),
(368,188,qs)
);
},
{
closed = 1;
nodes = (
(697,-189,o),
(572,-232,o),
(489,-232,qs),
(401,-232,o),
(247,-166,o),
(189.5,-109,qs,{
name = inserted;
}),
(132,-52,o),
(65,102,o),
(65,189,qs),
(65,276,o),
(132,430,o),
(189.5,487,qs,{
name = inserted;
}),
(247,544,o),
(401,610,o),
(489,610,qs),
(576,610,o),
(730,544,o),
(787,487,qs,{
name = inserted;
}),
(844,430,o),
(910,276,o),
(910,188,q),
(906,135,o),
(865,64,o),
(837,41.5,qs,{
name = inserted;
}),
(809,19,o),
(745,0,o),
(718,0,qs),
(612,0,l),
(612,20,l),
(612,40,l),
(611,37,o),
(593,21,o),
(576.5,13,qs,{
name = inserted;
}),
(560,5,o),
(514,-9,o),
(485,-9,qs),
(443,-9,o),
(369,22,o),
(342,49,qs,{
name = inserted;
}),
(315,76,o),
(284,147,o),
(284,187,qs),
(284,226,o),
(315,297,o),
(342,324,qs,{
name = inserted;
}),
(369,351,o),
(443,382,o),
(485,382,qs),
(511,382,o),
(556,368,o),
(573,358.5,qs,{
name = inserted;
}),
(590,349,o),
(610,331,o),
(612,328,q),
(612,339,o),
(616,363,o),
(616,375,q),
(685,375,l),
(685,81,l),
(718,81,ls),
(738,81,o),
(776,92,o),
(791,104.5,qs,{
name = inserted;
}),
(806,117,o),
(824,158,o),
(826,188,q),
(826,259,o),
(773,383,o),
(727,429.5,qs,{
name = inserted;
}),
(681,476,o),
(559,529,o),
(489,529,qs),
(418,529,o),
(295,476,o),
(248.5,429.5,qs,{
name = inserted;
}),
(202,383,o),
(149,259,o),
(149,188,qs),
(149,117,o),
(202,-6,o),
(248.5,-52,qs,{
name = inserted;
}),
(295,-98,o),
(418,-151,o),
(489,-151,qs),
(548,-151,o),
(653,-116,o),
(698,-85,q),
(711,-100,o),
(735,-129,o),
(748,-144,q)
);
}
);
width = 990;
},
{
layerId = "51A9AA91-C68C-460C-8D6F-B89E075DCADB";
shapes = (
{
closed = 1;
nodes = (
(387,36,o),
(452,8,o),
(490,8,qs),
(527,8,o),
(593,36,o),
(618,60.5,qs,{
name = inserted;
}),
(643,85,o),
(671,150,o),
(671,188,qs),
(671,225,o),
(643,291,o),
(618,316,qs,{
name = inserted;
}),
(593,341,o),
(527,369,o),
(490,369,qs),
(452,369,o),
(387,341,o),
(362.5,316,qs,{
name = inserted;
}),
(338,291,o),
(310,225,o),
(310,188,qs),
(310,150,o),
(338,85,o),
(362.5,60.5,qs,{
name = inserted;
})
);
},
{
closed = 1;
nodes = (
(667,-168,o),
(555,-207,o),
(489,-207,qs),
(407,-207,o),
(263,-145,o),
(210,-91,qs,{
name = inserted;
}),
(156,-37,o),
(94,107,o),
(94,189,qs),
(94,271,o),
(156,415,o),
(210,469,qs,{
name = inserted;
}),
(263,523,o),
(407,585,o),
(489,585,qs),
(571,585,o),
(715,523,o),
(769,469,qs,{
name = inserted;
}),
(823,415,o),
(885,270,o),
(885,188,q),
(883,129,o),
(859,55,o),
(840,34,qs,{
name = inserted;
}),
(821,14,o),
(774,0,o),
(749,0,qs),
(671,0,l),
(671,54,l),
(672,117,l),
(661,90,o),
(625,45,o),
(602,28,qs,{
name = inserted;
}),
(578,12,o),
(521,-6,o),
(490,-6,qs),
(449,-6,o),
(379,24,o),
(352,50,qs,{
name = inserted;
}),
(326,77,o),
(296,147,o),
(296,188,qs),
(296,228,o),
(326,300,o),
(352,326,qs,{
name = inserted;
}),
(379,352,o),
(449,383,o),
(490,383,qs),
(530,383,o),
(599,354,o),
(625,328,qs),
(640,314,o),
(663,279,o),
(671,260,q),
(671,289,o),
(673,346,o),
(675,375,q),
(685,375,l),
(685,13,l),
(756,13,ls),
(781,13,o),
(820,30,o),
(834,47,qs),
(851,68,o),
(870,138,o),
(871,188,qs),
(871,267,o),
(811,407,o),
(759,459,qs,{
name = inserted;
}),
(707,511,o),
(568,571,o),
(489,571,qs),
(410,571,o),
(271,511,o),
(220,459,qs,{
name = inserted;
}),
(168,407,o),
(108,267,o),
(108,188,qs),
(108,109,o),
(168,-30,o),
(220,-82,qs,{
name = inserted;
}),
(271,-133,o),
(410,-193,o),
(489,-193,qs),
(551,-193,o),
(661,-155,o),
(708,-123,q),
(710,-126,o),
(715,-131,o),
(717,-134,q)
);
}
);
width = 990;
}
);
unicode = 64;
},
{
glyphname = ampersand;
lastChange = "2024-08-09 09:08:37 +0000";
layers = (
{
layerId = m001;
shapes = (
{
closed = 1;
nodes = (
(263,-9,o),
(190,22,o),
(163,49,qs,{
name = inserted;
}),
(136,76,o),
(105,147,o),
(105,188,qs),
(105,224,o),
(129,288,o),
(151,314,qs,{
name = inserted;
}),
(173,339,o),
(231,374,o),
(266,380,q),
(196,496,ls),
(182,520,o),
(166,571,o),
(166,596,qs),
(166,621,o),
(187,674,o),
(207,697,qs,{
name = inserted;
}),
(227,719,o),
(285,748,o),
(323,748,qs),
(361,748,o),
(429,721,o),
(454,705,q),
(421,640,l),
(406,648,o),
(357,669,o),
(333,669,qs),
(312,669,o),
(282,651,o),
(272,638,qs,{
name = inserted;
}),
(262,624,o),
(252,593,o),
(252,581,qs),
(252,564,o),
(263,531,o),
(273,515,qs),
(422,273,l),
(422,283,o),
(422,303,o),
(422,311,qs),
(422,375,l),
(601,375,l),
(601,294,l),
(506,294,l),
(506,214,ls),
(506,209,o),
(506,198,o),
(506,192,qs),
(506,180,o),
(503.4,155.8,o),
(501,145,q),
(576,24,l),
(511,-19,l),
(461,63,l),
(433,30,o),
(353,-9,o),
(305,-9,qs)
);
},
{
closed = 1;
nodes = (
(343,72,o),
(400,110,o),
(413,141,q),
(314,303,l),
(284,303,o),
(236,286,o),
(219,270,qs),
(204,255,o),
(188,214,o),
(188,188,qs),
(188,163,o),
(206,120,o),
(222,104,qs),
(237,89,o),
(280,72,o),
(305,72,qs)
);
}
);
width = 700;
},
{
layerId = "51A9AA91-C68C-460C-8D6F-B89E075DCADB";
shapes = (
{
closed = 1;
nodes = (
(259,-7,o),
(189,23,o),
(162.5,49.5,qs,{
name = inserted;
}),
(136,76,o),
(106,146,o),
(106,187,qs),
(106,223,o),
(131,288,o),
(152.5,313.5,qs,{
name = inserted;
}),
(174,339,o),
(234,373,o),
(269,379,q),
(197,496,ls),
(179,526,o),
(164,590,o),
(169,621,qs,{
name = inserted;
}),
(174,652,o),
(210,706,o),
(243,726,qs),
(271,743,o),
(330,750,o),
(358,745,qs,{
name = inserted;
}),
(386,740,o),
(435,718,o),
(454,706,q),
(448,693,l),
(425,706,o),
(377,728,o),
(352,733,qs,{
name = inserted;
}),
(327,738,o),
(276,731,o),
(251,715,qs),
(220,695,o),
(186,645,o),
(181.5,617.5,qs,{
name = inserted;
}),
(177,590,o),
(191,531,o),
(208,504,qs),
(457,98,l),
(468,118,o),
(481,162,o),
(481,187,qs),
(481,375,l),
(601,375,l),
(601,361,l),
(495,361,l),
(495,274,ls),
(495,249,o),
(496,200,o),
(493.5,176,qs,{
name = inserted;
}),
(491,152,o),
(479,106,o),
(466,84,q),
(525,-11,l),
(514,-19,l),
(457,72,l),
(431,36,o),
(349,-7,o),
(300,-7,qs)
);
},
{
closed = 1;
nodes = (
(347,7,o),
(425,50,o),
(449,85,q),
(277,366,l),
(244,362,o),
(186,331,o),
(165,307,qs,{
name = inserted;
}),
(144,283,o),
(120,221,o),
(120,187,qs),
(120,149,o),
(148,84,o),
(172.5,59.5,qs,{
name = inserted;
}),
(197,35,o),
(262,7,o),
(300,7,qs)
);
}
);
width = 700;
}
);
unicode = 38;
},
{
glyphname = paragraph;
lastChange = "2024-08-09 09:08:37 +0000";
layers = (
{
layerId = m001;
shapes = (
{
closed = 1;
nodes = (
(201,0,l),
(201,423,l),
(167,423,o),
(107,448,o),
(85,470,qs,{
name = inserted;
}),
(63,492,o),
(38,552,o),
(38,586,qs),
(38,620,o),
(63,680,o),
(85,702,qs,{
name = inserted;
}),
(107,724,o),
(167,750,o),
(201,750,qs),
(516,750,l),
(516,680,l),
(447,680,l),
(447,70,l),
(516,70,l),
(516,0,l),
(364,0,l),
(364,680,l),
(284,680,l),
(284,0,l)
);
}
);
width = 547;
},
{
layerId = "51A9AA91-C68C-460C-8D6F-B89E075DCADB";
shapes = (
{
closed = 1;
nodes = (
(201,0,l),
(201,423,l),
(167,423,o),
(107,448,o),
(85,470,qs,{
name = inserted;
}),
(63,492,o),
(38,552,o),
(38,586,qs),
(38,620,o),
(63,680,o),
(85,702,qs,{
name = inserted;
}),
(107,724,o),
(167,750,o),
(201,750,qs),
(486,750,l),
(486,736,l),
(378,736,l),
(378,14,l),
(486,14,l),
(486,0,l),
(364,0,l),
(364,736,l),
(215,736,l),
(215,0,l)
);
}
);
width = 525;
}
);
unicode = 182;
},
{
glyphname = section;
lastChange = "2024-08-09 09:08:37 +0000";
layers = (
{
layerId = m001;
shapes = (
{
closed = 1;
nodes = (
(194,344,o),
(208,317,o),
(219,309,qs),
(227,303,o),
(247,296,o),
(258,296,qs),
(271,296,o),
(293,305,o),
(302,313,qs),
(311,322,o),
(322,346,o),
(322,360,qs),
(322,375,o),
(309,401,o),
(299,409,qs),
(291,416,o),
(270,424,o),
(258,424,qs),
(244,424,o),
(219,413,o),
(210,403,qs),
(203,394,o),
(194,372,o),
(194,360,qs)
);
},
{
closed = 1;
nodes = (
(287,-18,o),
(246,-39,o),
(228,-50,q),
(217,-33,o),
(197,3,o),
(186,20,q),
(199,28,o),
(212,35,o),
(225,43,qs),
(236,50,o),
(249,64,o),
(249,75,qs),
(249,86,o,{
name = inserted;
}),
(233,122,o),
(217,148,qs),
(150,258,ls,{
name = inserted;
}),
(135,283,o,{
name = inserted;
}),
(117,333.294,o),
(117,358,qs),
(117,383,o),
(133,432,o),
(148,452,qs,{
name = inserted;
}),
(159,465,o),
(188,486,o),
(205,492,qs),
(213,495,o),
(231,499,o),
(240,500,q),
(226,521,o),
(202,564,o),
(192,584,qs,{
name = inserted;
}),
(183,605,o),
(172,640,o),
(172,652,qs),
(172,673,o),
(196,704,o),
(214,716,qs,{
name = inserted;
}),
(231,729,o),
(273,751,o),
(291,762,q),
(302,745,o),
(322,709,o),
(333,692,q),
(320,685,o),
(307,677,o),
(294,670,qs),
(281,662,o),
(268,646,o),
(268,635,q),
(269,625,o),
(279,599,o),
(290,580,qs),
(380,431,ls),
(390,414,o,{
name = inserted;
}),
(400,378,o),
(400,357,qs),
(400,331,o),
(383,284,o),
(367,264,qs,{
name = inserted;
}),
(356,251,o),
(327,229,o),
(309,223,qs),
(301,220,o),
(284,215,o),
(275,214,q),
(310,157,ls),
(327,129,o),
(346,77,o),
(346,60,qs),
(346,39,o),
(323,7,o),
(305,-6,qs,{
name = inserted;
})
);
}
);
width = 500;
},
{
layerId = "51A9AA91-C68C-460C-8D6F-B89E075DCADB";
shapes = (
{
closed = 1;
nodes = (
(187,286,o),
(234,262,o),
(261,262,qs),
(281,262,o),
(316,278,o),
(328.5,291.5,qs,{
name = inserted;
}),
(341,305,o),
(355,340,o),
(355,358,qs),
(355,382,o),
(336,420,o),
(321,432.5,qs,{
name = inserted;
}),
(306,445,o),
(269,459,o),
(250,459,qs),
(228,459,o),
(194,442,o),
(182.5,428,qs,{
name = inserted;
}),
(171,414,o),
(159,380,o),
(159,363,qs),
(159,349.5,o,{
name = inserted;
}),
(166,323.5,o),
(173,311,qs)
);
},
{
closed = 1;
nodes = (
(257,9,o),
(229,-4,o),
(216,-10,q),
(214,-7,o),
(211,-1,o),
(209,2,q),
(220,9,o),
(245,22,o),
(256,29,qs,{
name = inserted;
}),
(267,36,o),
(282,55,o),
(282,68,qs),
(282,83,o),
(265,125,o),
(248,154,qs),
(161,304,ls),
(153,317,o,{
name = inserted;
}),
(145,346,o),
(145,362,qs),
(145,382,o),
(160,422,o),
(174,437.5,qs,{
name = inserted;
}),
(188,453,o),
(228,472,o),
(252,472,qs),
(268.5,472,o,{
name = inserted;
}),
(299,464,o),
(313,456,q),
(296,483,o),
(262,542,o),
(248.5,569,qs,{
name = inserted;
}),
(235,596,o),
(218,641,o),
(218,653,qs),
(218,668,o),
(233,691,o),
(245,700,qs,{
name = inserted;
}),
(257,709,o),
(285,723,o),
(298,730,q),
(300,727,o),
(303,721,o),
(305,718,q),
(294,711,o),
(269,698,o),
(258,691,qs,{
name = inserted;
}),
(247,684,o),
(232,665,o),
(232,652,qs),
(232,637,o),
(249,595,o),
(266,566,qs),
(353,415,ls),
(360.5,401.5,o,{
name = inserted;
}),
(368,373.5,o),
(368,359,qs),
(368,338,o),
(352,298,o),
(337.5,282,qs,{
name = inserted;
}),
(323,266,o),
(283,247,o),
(259,247,qs),
(243.5,247,o,{
name = inserted;
}),
(214,255.5,o),
(200,264,q),
(264,154,ls),
(281,124,o),
(295,82,o),
(295,68,qs),
(295,51,o),
(280,27,o),
(268.5,18,qs,{
name = inserted;
})
);
}
);
width = 500;
}
);
unicode = 167;
},
{
glyphname = copyright;
lastChange = "2024-08-09 09:08:37 +0000";
layers = (
{
layerId = m001;
shapes = (
{
closed = 1;
nodes = (
(271,182,o),
(353,148,o),
(400,148,qs),
(447,148,o),
(529,182,o),
(559,212,qs,{
name = inserted;
}),
(589,242,o),
(623,324,o),
(623,372,qs),
(623,421,o),
(589,503,o),
(559,533,qs,{
name = inserted;
}),
(529,563,o),
(447,597,o),
(400,597,qs),
(353,597,o),
(271,563,o),
(241,533,qs,{
name = inserted;
}),
(211,503,o),
(177,421,o),
(177,372,qs),
(177,324,o),
(211,242,o),
(241,212,qs,{
name = inserted;
})
);
},
{
closed = 1;
nodes = (
(550,151,o),
(454,111,o),
(400,111,qs),
(346,111,o),
(250,151,o),
(214.5,186,qs,{
name = inserted;
}),
(179,221,o),
(137,316,o),
(137,372,qs),
(137,429,o),
(179,525,o),
(214.5,560,qs,{
name = inserted;
}),
(250,595,o),
(346,634,o),
(400,634,qs),
(454,634,o),
(550,595,o),
(585.5,560,qs,{
name = inserted;
}),
(621,525,o),
(663,429,o),
(663,372,qs),
(663,316,o),
(621,221,o),
(585.5,186,qs,{
name = inserted;
})
);
},
{
closed = 1;
nodes = (
(482,225,o),
(441,213,o),
(418,213,qs),
(385,213,o),
(326,239,o),
(304,261,qs,{
name = inserted;
}),
(282,283,o),
(257,342,o),
(257,375,qs),
(257,409,o),
(282,468,o),
(304,490,qs,{
name = inserted;
}),
(326,512,o),
(385,537,o),
(418,537,qs),
(440,537,o,{
name = inserted;
}),
(481.5,526,o),
(501,515,q),
(501,464,l),
(465,464,l),
(465,492,l),
(453.5,497,o,{
name = inserted;
}),
(430,502,o),
(418,502,qs),
(392,502,o),
(347,482,o),
(330.5,464.5,qs,{
name = inserted;
}),
(314,447,o),
(294,401,o),
(294,375,qs),
(294,349,o),
(314,303,o),
(330.5,286,qs,{
name = inserted;
}),
(347,269,o),
(392,249,o),
(418,249,qs),
(435,249,o,{
name = inserted;
}),
(466,257.5,o),
(480,266,q),
(500,236,l)
);
}
);
width = 793;
},
{
layerId = "51A9AA91-C68C-460C-8D6F-B89E075DCADB";
shapes = (
{
closed = 1;
nodes = (
(263,168,o),
(350,132,o),
(399,132,qs),
(449,132,o),
(537,168,o),
(570,200.5,qs,{
name = inserted;
}),
(603,233,o),
(641,320,o),
(641,371,qs),
(641,423,o),
(603,512,o),
(570,544.5,qs,{
name = inserted;
}),
(537,577,o),
(449,613,o),
(399,613,qs),
(350,613,o),
(263,577,o),
(230,544.5,qs,{
name = inserted;
}),
(197,512,o),
(159,423,o),
(159,371,qs),
(159,320,o),
(197,233,o),
(230,200.5,qs,{
name = inserted;
})
);
},
{
closed = 1;
nodes = (
(547,156,o),
(454,118,o),
(400,118,qs),
(346,118,o),
(253,156,o),
(218.5,190,qs,{
name = inserted;
}),
(184,224,o),
(145,317,o),
(145,372,qs),
(145,427,o),
(184,521,o),
(218.5,555,qs,{
name = inserted;
}),
(253,589,o),
(346,627,o),
(400,627,qs),
(454,627,o),
(547,589,o),
(581.5,555,qs,{
name = inserted;
}),
(616,521,o),
(655,427,o),
(655,372,qs),
(655,317,o),
(616,224,o),
(581.5,190,qs,{
name = inserted;
})
);
},
{
closed = 1;
nodes = (
(483,225,o),
(442,213,o),
(419,213,qs),
(386,213,o),
(326,237,o),
(304,259,qs,{
name = inserted;
}),
(282,281,o),
(256,341,o),
(256,374,qs),
(256,408,o),
(283,468,o),
(305,490,qs,{
name = inserted;
}),
(327,512,o),
(386,537,o),
(419,537,qs),
(441,537,o,{
name = inserted;
}),
(482.5,526,o),
(502,515,q),
(502,464,l),
(495,464,l),
(495,511,l),
(478,521,o,{
name = inserted;
}),
(440,531,o),
(419,531,qs),
(387,531,o),
(331,506,o),
(310,484.5,qs,{
name = inserted;
}),
(289,463,o),
(264,406,o),
(264,374,qs),
(264,342,o),
(288,286,o),
(309,265,qs,{
name = inserted;
}),
(330,244,o),
(386,220,o),
(418,220,qs),
(440,220,o),
(480,231,o),
(497,241,q),
(501,236,l)
);
}
);
width = 793;
}
);
unicode = 169;
},
{
glyphname = registered;
lastChange = "2024-08-09 09:08:37 +0000";
layers = (
{
layerId = m001;
shapes = (
{
closed = 1;
nodes = (
(271,182,o),
(353,148,o),
(400,148,qs),
(447,148,o),
(529,182,o),
(559,212,qs,{
name = inserted;
}),
(589,242,o),
(623,324,o),
(623,372,qs),
(623,421,o),
(589,503,o),
(559,533,qs,{
name = inserted;
}),
(529,563,o),
(447,597,o),
(400,597,qs),
(353,597,o),
(271,563,o),
(241,533,qs,{
name = inserted;
}),
(211,503,o),
(177,421,o),
(177,372,qs),
(177,324,o),
(211,242,o),
(241,212,qs,{
name = inserted;
})
);
},
{
closed = 1;
nodes = (
(550,151,o),
(454,111,o),
(400,111,qs),
(346,111,o),
(250,151,o),
(214.5,186,qs,{
name = inserted;
}),
(179,221,o),
(137,316,o),
(137,372,qs),
(137,429,o),
(179,525,o),
(214.5,560,qs,{
name = inserted;
}),
(250,595,o),
(346,634,o),
(400,634,qs),
(454,634,o),
(550,595,o),
(585.5,560,qs,{
name = inserted;
}),
(621,525,o),
(663,429,o),
(663,372,qs),
(663,316,o),
(621,221,o),
(585.5,186,qs,{
name = inserted;
})
);
},
{
closed = 1;
nodes = (
(300,210,l),
(300,247,l),
(321,247,l),
(321,504,l),
(300,504,l),
(300,541,l),
(399,541,ls),
(415,541,o),
(454,531,o),
(472,520,qs,{
name = inserted;
}),
(489,509,o),
(512,475,o),
(512,451,qs),
(512,416,o),
(476,368,o),
(442,360,q),
(495,247,l),
(539,247,l),
(539,210,l),
(470,210,l),
(401,358,l),
(394,358,o),
(387,358,o),
(380,358,q),
(360,358,l),
(360,247,l),
(414,247,l),
(414,210,l)
);
},
{
closed = 1;
nodes = (
(360,395,l),
(402,395,ls),
(423,395,o),
(450,406,o),
(458,414,qs,{
name = inserted;
}),
(466,422,o),
(472,442,o),
(472,451,qs),
(472,472,o),
(432,504,o),
(402,504,qs),
(360,504,l)
);
}
);
width = 801;
},
{
layerId = "51A9AA91-C68C-460C-8D6F-B89E075DCADB";
shapes = (
{
closed = 1;
nodes = (
(263,168,o),
(350,132,o),
(399,132,qs),
(449,132,o),
(537,168,o),
(570,200.5,qs,{
name = inserted;
}),
(603,233,o),
(641,320,o),
(641,371,qs),
(641,423,o),
(603,512,o),
(570,544.5,qs,{
name = inserted;
}),
(537,577,o),
(449,613,o),
(399,613,qs),
(350,613,o),
(263,577,o),
(230,544.5,qs,{
name = inserted;
}),
(197,512,o),
(159,423,o),
(159,371,qs),
(159,320,o),
(197,233,o),
(230,200.5,qs,{
name = inserted;
})
);
},
{
closed = 1;
nodes = (
(547,156,o),
(454,118,o),
(400,118,qs),
(346,118,o),
(253,156,o),
(218.5,190,qs,{
name = inserted;
}),
(184,224,o),
(145,317,o),
(145,372,qs),
(145,427,o),
(184,521,o),
(218.5,555,qs,{
name = inserted;
}),
(253,589,o),
(346,627,o),
(400,627,qs),
(454,627,o),
(547,589,o),
(581.5,555,qs,{
name = inserted;
}),
(616,521,o),
(655,427,o),
(655,372,qs),
(655,317,o),
(616,224,o),
(581.5,190,qs,{
name = inserted;
})
);
},
{
closed = 1;
nodes = (
(311,210,l),
(311,217,l),
(344,217,l),
(344,534,l),
(311,534,l),
(311,541,l),
(410,541,ls),
(423,541,o),
(456,532,o),
(470.5,521.5,qs,{
name = inserted;
}),
(485,511,o),
(504,479,o),
(504,457,qs),
(504,424,o),
(468,381,o),
(433,374,q),
(506,217,l),
(546,217,l),
(546,210,l),
(503,210,l),
(426,373,l),
(421,372,o),
(409,371,o),
(403,371,qs),
(351,371,l),
(351,217,l),
(393,217,l),
(393,210,l)
);
},
{
closed = 1;
nodes = (
(351,378,l),
(405,378,ls),
(432,378,o),
(468,393,o),
(478.5,404.5,qs,{
name = inserted;
}),
(489,416,o),
(498,444,o),
(498,457,qs),
(498,488,o),
(445,534,o),
(405,534,qs),
(351,534,l)
);
}
);
width = 801;
}
);
unicode = 174;
},
{
glyphname = degree;
lastChange = "2024-08-09 09:08:37 +0000";
layers = (
{
layerId = m001;
shapes = (
{
closed = 1;
nodes = (
(90,548,o),
(98,530,o),
(105,524,qs),
(112,518,o),
(129,511,o),
(138,511,qs),
(147,511,o),
(163,517,o),
(170,523,qs),
(178,529,o),
(187,548,o),
(187,559,qs),
(187,569,o),
(179,587,o),
(172,594,qs),
(165,601,o),
(148,608,o),
(138,608,qs),
(128,608,o),
(110,600,o),
(104,593,qs),
(97,587,o),
(90,569,o),
(90,559,qs)
);
},
{
closed = 1;
nodes = (
(238,539,o),
(222,502,o),
(208.5,488.5,qs,{
name = inserted;
}),
(195,475,o),
(159,460,o),
(138,460,qs),
(117,460,o),
(79,475,o),
(65.5,488.5,qs,{
name = inserted;
}),
(52,502,o),
(36,539,o),
(36,560,qs),
(36,581,o),
(52,617,o),
(65.5,630.5,qs,{
name = inserted;
}),
(79,644,o),
(117,660,o),
(138,660,qs),
(159,660,o),
(195,644,o),
(208.5,630.5,qs,{
name = inserted;
}),
(222,617,o),
(238,581,o),
(238,560,qs)
);
}
);
width = 282;
},
{
layerId = "51A9AA91-C68C-460C-8D6F-B89E075DCADB";
shapes = (
{
closed = 1;
nodes = (
(75,546,o),
(87,522,o),
(96,513,qs),
(105,506,o),
(126,498,o),
(138,498,qs),
(151,498,o),
(174,508,o),
(182,516,qs),
(191,525,o),
(200,547,o),
(200,560,qs),
(200,573,o),
(190,596,o),
(182,604,qs),
(174,612,o),
(151,622,o),
(138,622,qs),
(125,622,o),
(102,612,o),
(93,604,qs),
(85,595,o),
(75,573,o),
(75,560,qs)
);
},
{
closed = 1;
nodes = (
(214,542,o),
(201,513,o),
(190,503,qs),
(180,494,o),
(153,484,o),
(138,484,qs),
(122,484,o),
(95,494,o),
(85,504,qs),
(74,514,o),
(61,542,o),
(61,559,qs),
(61,577,o),
(75,608,o),
(87,618,qs),
(97,627,o),
(123,636,o),
(138,636,qs),
(153,636,o),
(179,626,o),
(188,617,qs),
(200,607,o),
(214,577,o),
(214,559,qs)
);
}
);
width = 282;
}
);
unicode = 176;
},
{
glyphname = bar;
lastChange = "2024-08-09 09:08:37 +0000";
layers = (
{
layerId = m001;
shapes = (
{
closed = 1;
nodes = (
(91,-232,l),
(91,700,l),
(175,700,l),
(175,-232,l)
);
}
);
width = 271;
},
{
layerId = "51A9AA91-C68C-460C-8D6F-B89E075DCADB";
shapes = (
{
closed = 1;
nodes = (
(99,-232,l),
(99,700,l),
(113,700,l),
(113,-232,l)
);
}
);
width = 219;
}
);
unicode = 124;
},
{
glyphname = brokenbar;
lastChange = "2024-08-09 09:08:37 +0000";
layers = (
{
layerId = m001;
shapes = (
{
closed = 1;
nodes = (
(69,-233,l),
(69,117,l),
(153,117,l),
(153,-233,l)
);
},
{
closed = 1;
nodes = (
(69,350,l),
(69,700,l),
(153,700,l),
(153,350,l)
);
}
);
width = 215;
},
{
layerId = "51A9AA91-C68C-460C-8D6F-B89E075DCADB";
shapes = (
{
closed = 1;
nodes = (
(102,-233,l),
(102,117,l),
(116,117,l),
(116,-233,l)
);
},
{
closed = 1;
nodes = (
(102,350,l),
(102,700,l),
(116,700,l),
(116,350,l)
);
}
);
width = 215;
}
);
unicode = 166;
},
{
glyphname = cent;
lastChange = "2024-08-09 09:08:37 +0000";
layers = (
{
layerId = m001;
shapes = (
{
closed = 1;
nodes = (
(179,-68,l),
(179,0,l),
(148,9,o),
(95,45,o),
(76,69.5,qs,{
name = inserted;
}),
(57,94,o),
(36,155,o),
(36,188,qs),
(36,221,o),
(57,281,o),
(76,306,qs,{
name = inserted;
}),
(95,331,o),
(148,367,o),
(179,376,q),
(179,438,l),
(263,438,l),
(263,382,l),
(292,379,o),
(341,357,o),
(362,341,q),
(362,225,l),
(288,225,l),
(288,292,l),
(282,295,o),
(270,298,o),
(263,300,q),
(263,74,l),
(276,77,o),
(301,89,o),
(311,97,q),
(361,34,l),
(339,17,o),
(293,-2,o),
(263,-7,q),
(263,-68,l)
);
},
{
closed = 1;
nodes = (
(119,165,o),
(134,124,o),
(148,109,qs),
(154,102,o),
(170,90,o),
(179,85,q),
(179,289,l),
(165,282,o),
(143,262,o),
(135,249,qs),
(128,237,o),
(119,205,o),
(119,188,qs)
);
}
);
width = 385;
},
{
layerId = "51A9AA91-C68C-460C-8D6F-B89E075DCADB";
shapes = (
{
closed = 1;
nodes = (
(215,-68,l),
(215,-5,l),
(177,-2,o),
(112,30,o),
(88,55.5,qs,{
name = inserted;
}),
(64,81,o),
(36,149,o),
(36,188,qs),
(36,227,o),
(64,295,o),
(88,321,qs,{
name = inserted;
}),
(112,347,o),
(177,379,o),
(215,382,q),
(215,438,l),
(229,438,l),
(229,383,l),
(264,383,o),
(328,360,o),
(353,340,q),
(353,252,l),
(339,252,l),
(339,332,l),
(316,349,o),
(260,369,o),
(229,369,q),
(229,8,l),
(261,8,o),
(320,29,o),
(343,47,q),
(353,37,l),
(327,17,o),
(264,-6,o),
(229,-6,q),
(229,-68,l)
);
},
{
closed = 1;
nodes = (
(50,152,o),
(75,89,o),
(97.5,65,qs,{
name = inserted;
}),
(120,41,o),
(180,11,o),
(215,8,q),
(215,368,l),
(180,365,o),
(120,335,o),
(97.5,311,qs,{
name = inserted;
}),
(75,287,o),
(50,224,o),
(50,188,qs)
);
}
);
width = 385;
}
);
unicode = 162;
},
{
glyphname = currency;
lastChange = "2024-08-09 09:08:37 +0000";
layers = (
{
layerId = m001;
shapes = (
{
closed = 1;
nodes = (
(171,343,o),
(184,313,o),
(196,303,qs),
(206,294,o),
(233,283,o),
(248,283,qs),
(264,283,o),
(293,295,o),
(304,306,qs,{
name = inserted;
}),
(314,316,o),
(326,344,o),
(326,360,qs),
(326,377,o),
(312,408,o),
(299,419,qs),
(289,428,o),
(263,438,o),
(248,438,qs),
(232,438,o),
(204,426,o),
(194,416,qs,{
name = inserted;
}),
(183,405,o),
(171,376,o),
(171,360,qs)
);
},
{
closed = 1;
nodes = (
(144,196,l),
(85,255,l),
(109,279,l),
(98,298,o,{
name = inserted;
}),
(87,339,o),
(87,361,qs),
(87,383,o),
(98,422,o),
(108,439,q),
(85,463,l),
(144,522,l),
(168,498,l),
(187,507,o),
(225,519,o),
(247,519,qs),
(269,519,o),
(309,508,o),
(327,498,q),
(351,522,l),
(410,463,l),
(388,441,l),
(399,422,o,{
name = inserted;
}),
(410,382,o),
(410,361,qs),
(410,339,o,{
name = inserted;
}),
(398.5,298.5,o),
(387,280,q),
(411,256,l),
(352,197,l),
(326,222,l),
(308.5,212,o,{
name = inserted;
}),
(269,202,o),
(247,202,qs),
(226,202,o,{
name = inserted;
}),
(187,211.5,o),
(169,221,q)
);
}
);
width = 500;
},
{
layerId = "51A9AA91-C68C-460C-8D6F-B89E075DCADB";
shapes = (
{
closed = 1;
nodes = (
(129,336,o),
(148,293,o),
(164,277,qs,{
name = inserted;
}),
(180,261,o),
(223,242,o),
(247,242,qs),
(271,242,o),
(314,261,o),
(330,277,qs,{
name = inserted;
}),
(346,293,o),
(365,336,o),
(365,361,qs),
(365,386,o),
(346,429,o),
(330,445,qs,{
name = inserted;
}),
(314,461,o),
(271,480,o),
(247,480,qs),
(223,480,o),
(180,461,o),
(164,445,qs,{
name = inserted;
}),
(148,429,o),
(129,386,o),
(129,361,qs)
);
},
{
closed = 1;
nodes = (
(119,219,l),
(109,229,l),
(150,270,l),
(132.5,289,o,{
name = inserted;
}),
(115,334.5,o),
(115,361,qs),
(115,386,o),
(132,430,o),
(147,448,q),
(109,486,l),
(119,496,l),
(157,458,l),
(174,475,o),
(221,494,o),
(247,494,qs),
(273,494,o),
(320,474,o),
(337,457,q),
(375,495,l),
(385,485,l),
(347,447,l),
(362,430,o),
(379,386,o),
(379,361,qs),
(379,335,o),
(360,289,o),
(344,271,q),
(385,230,l),
(375,220,l),
(334,261,l),
(316,244.5,o,{
name = inserted;
}),
(272.5,228,o),
(247,228,qs),
(222,228,o),
(177,245,o),
(160,260,q)
);
}
);
width = 500;
}
);
unicode = 164;
},
{
glyphname = dollar;
lastChange = "2024-08-09 09:08:37 +0000";
layers = (
{
layerId = m001;
shapes = (
{
closed = 1;
nodes = (
(197,-68,l),
(197,-3,l),
(169,1,o),
(118,18,o),
(96,30,qs),
(71,43,o),
(33,75,o),
(21,93,q),
(21,209,l),
(100,209,l),
(100,120,l),
(120,105,o),
(168,81,o),
(197,75,q),
(197,343,l),
(168,352,o),
(116,376,o),
(96,396,qs,{
name = inserted;
}),
(75,415,o),
(50,473,o),
(49,517,qs),
(48,545,o),
(63,604,o),
(81,630,qs,{
name = inserted;
}),
(99,655,o),
(156,692,o),
(197,700,q),
(197,764,l),
(281,764,l),
(281,702,l),
(313,699,o),
(386,675,o),
(424,644,q),
(424,546,l),
(345,546,l),
(345,605,l),
(331,611,o),
(300,621,o),
(281,623,q),
(281,398,l),
(313,387,o),
(377,359,o),
(402,336,qs,{
name = inserted;
}),
(428,313,o),
(459,241,o),
(459,187,qs),
(459,146,o),
(431,79,o),
(407,54,qs,{
name = inserted;
}),
(383,29,o),
(318,-2,o),
(281,-6,q),
(281,-68,l)
);
},
{
closed = 1;
nodes = (
(281,75,l),
(295,78,o),
(320,89,o),
(330,96,qs),
(351,110,o),
(376,156,o),
(376,188,qs),
(376,216,o),
(361,257,o),
(348,272,qs,{
name = inserted;
}),
(336,287,o),
(301,308,o),
(281,316,q)
);
},
{
closed = 1;
nodes = (
(132,492,o),
(148,461,o),
(161,449,qs),
(169,443,o),
(187,432,o),
(197,427,q),
(197,616,l),
(185,611,o),
(165,597,o),
(157,588,qs),
(144,574,o),
(132,535,o),
(132,514,qs)
);
}
);
width = 567;
},
{
layerId = "51A9AA91-C68C-460C-8D6F-B89E075DCADB";
shapes = (
{
closed = 1;
nodes = (
(232,-68,l),
(232,-8,l),
(193,-7,o),
(132,9,o),
(109,20,qs,{
name = inserted;
}),
(86,31,o),
(55,55,o),
(46,64,q),
(46,164,l),
(60,164,l),
(60,74,l),
(88,45,o),
(172,7,o),
(232,6,q),
(232,367,l),
(201,376,o),
(143,397,o),
(120,413.5,qs,{
name = inserted;
}),
(97,430,o),
(68,479,o),
(66,517,qs),
(64,550,o),
(82,615,o),
(102,642,qs,{
name = inserted;
}),
(122,669,o),
(187,703,o),
(232,704,q),
(232,764,l),
(245,764,l),
(245,704,l),
(277,703,o),
(356,686,o),
(386,660,q),
(386,546,l),
(372,546,l),
(372,653,l),
(353,667,o),
(290,688,o),
(245,690,q),
(245,380,l),
(281,369,o),
(354,345,o),
(383,324.5,qs,{
name = inserted;
}),
(412,304,o),
(449,238,o),
(450,186,qs),
(451,142,o),
(419,72,o),
(391,46.5,qs,{
name = inserted;
}),
(363,21,o),
(288,-7,o),
(245,-8,q),
(245,-68,l)
);
},
{
closed = 1;
nodes = (
(245,6,l),
(282,7,o),
(351,34,o),
(377.5,56.5,qs,{
name = inserted;
}),
(404,79,o),
(436,143,o),
(436,182,qs),
(436,230,o),
(403,292,o),
(376,311.5,qs,{
name = inserted;
}),
(349,331,o),
(280,353,o),
(245,363,q)
);
},
{
closed = 1;
nodes = (
(80,494,o),
(105,446,o),
(126,429.5,qs,{
name = inserted;
}),
(147,413,o),
(202,392,o),
(232,383,q),
(232,690,l),
(194,689,o),
(137,662,o),
(118,639.5,qs,{
name = inserted;
}),
(99,617,o),
(80,560,o),
(80,530,qs)
);
}
);
width = 567;
}
);
unicode = 36;
},
{
glyphname = euro;
lastChange = "2024-08-09 09:33:05 +0000";
layers = (
{
background = {
shapes = (
{
closed = 1;
nodes = (
(122,440,l),
(132,478,o),
(166,543,o),
(188,569,qs,{
name = inserted;
}),
(224,612,o),
(322,658,o),
(378,658,qs),
(408,658,o),
(457,648,o),
(482,634,q,{
name = inserted;
}),
(449,560,l),
(433,568,o),
(396,577,o),
(376,577,qs),
(337,577,o),
(275,550,o),
(248,516,qs),
(236,500,o),
(216,462,o),
(209,440,q),
(382,440,l),
(382,359,l),
(195,359,l),
(195,351,o),
(194,335,o),
(194,326,qs),
(194,321,o),
(194,311,o),
(194,306,q),
(382,306,l),
(382,225,l),
(208,225,l),
(214,203,o),
(233,164,o),
(245,147,qs,{
name = inserted;
}),
(270,113,o),
(336,73,o),
(374,73,qs),
(393,73,o),
(432,81,o),
(448,94,q),
(502,33,l),
(473,13,o),
(408,-8,o),
(374,-8,qs),
(323,-8,o),
(227,40,o),
(190,84,qs,{
name = inserted;
}),
(166,112,o),
(130,183,o),
(120,225,q),
(48,225,l),
(48,306,l),
(108,306,l),
(108,311,o),
(108,322,o),
(108,327,qs),
(108,335,o),
(109,351,o),
(109,359,q),
(48,359,l),
(48,440,l)
);
}
);
};
layerId = m001;
shapes = (
{
closed = 1;
nodes = (
(122,440,l),
(132,478,o),
(166,543,o),
(188,569,qs,{
name = inserted;
}),
(224,612,o),
(322,658,o),
(378,658,qs),
(408,658,o),
(457,648,o),
(482,634,q,{
name = inserted;
}),
(449,560,l),
(433,568,o),
(396,577,o),
(376,577,qs),
(337,577,o),
(275,550,o),
(248,516,qs),
(236,500,o),
(216,462,o),
(209,440,q),
(382,440,l),
(382,359,l),
(195,359,l),
(195,351,o),
(194,335,o),
(194,326,qs),
(194,321,o),
(194,311,o),
(194,306,q),
(382,306,l),
(382,225,l),
(208,225,l),
(214,203,o),
(233,164,o),
(245,147,qs,{
name = inserted;
}),
(270,113,o),
(336,73,o),
(374,73,qs),
(393,73,o),
(432,81,o),
(448,94,q),
(502,33,l),
(473,13,o),
(408,-8,o),
(374,-8,qs),
(323,-8,o),
(227,40,o),
(190,84,qs,{
name = inserted;
}),
(166,112,o),
(130,183,o),
(120,225,q),
(48,225,l),
(48,306,l),
(108,306,l),
(108,311,o),
(108,322,o),
(108,327,qs),
(108,335,o),
(109,351,o),
(109,359,q),
(48,359,l),
(48,440,l)
);
}
);
width = 547;
},
{
layerId = "51A9AA91-C68C-460C-8D6F-B89E075DCADB";
shapes = (
{
closed = 1;
nodes = (
(116,393,l),
(124,438,o),
(161,533,o),
(194,571,qs,{
name = inserted;
}),
(226,609,o),
(319,658,o),
(382,658,q),
(422,658,o),
(476,638,o),
(481,634,q),
(475,624,l),
(453,634,o,{
name = inserted;
}),
(406,644,o),
(381,644,q),
(333,644,o),
(249,610,o),
(216,578,qs,{
name = inserted;
}),
(183,545,o),
(139,451,o),
(130,393,q),
(375,393,l),
(375,379,l),
(128,379,l),
(127,366,o,{
name = inserted;
}),
(125,341,o),
(125,328,q),
(125,317,o),
(126,297,o),
(127,287,q),
(375,287,l),
(375,273,l),
(128,273,l),
(135,212,o),
(182,114,o),
(216,80,qs,{
name = inserted;
}),
(250,45,o),
(333,7,o),
(377,7,q),
(405,7,o,{
name = inserted;
}),
(458,21,o),
(483,35,q),
(495,27,l),
(467,10,o,{
name = inserted;
}),
(407,-7,o),
(375,-7,q),
(325,-7,o),
(237,36,o),
(202,74,qs,{
name = inserted;
}),
(167,111,o),
(120,213,o),
(113,273,q),
(49,273,l),
(49,287,l),
(111,287,l),
(110,297,o),
(110,316,o),
(110,327,q),
(110,339,o,{
name = inserted;
}),
(112,365,o),
(113,379,q),
(48,379,l),
(48,393,l)
);
}
);
width = 556;
}
);
unicode = 8364;
},
{
glyphname = sterling;
lastChange = "2024-08-09 09:08:37 +0000";
layers = (
{
layerId = m001;
shapes = (
{
closed = 1;
nodes = (
(29,0,l),
(29,81,l),
(73,81,ls),
(89,81,o),
(109,88,o),
(115,99,qs,{
name = inserted;
}),
(121,110,o),
(125,149,o),
(125,181,qs),
(125,273,l),
(60,273,l),
(60,354,l),
(125,354,l),
(125,500,ls),
(125,569,o),
(226,634,o),
(331,634,qs),
(407,634,o),
(493,574,o),
(513,534,q),
(450,497,l),
(445,504,o),
(431,522,o),
(420,531,qs,{
name = inserted;
}),
(409,540,o),
(364,553,o),
(336,553,qs),
(302,553,o),
(261,547,o),
(244,539,qs),
(227,531,o),
(209,502,o),
(209,478,qs),
(209,354,l),
(326,354,l),
(326,273,l),
(209,273,l),
(209,163,ls),
(209,134,o),
(204,95,o),
(188,81,q),
(463,81,l),
(463,178,l),
(547,178,l),
(547,0,l)
);
}
);
width = 574;
},
{
layerId = "51A9AA91-C68C-460C-8D6F-B89E075DCADB";
shapes = (
{
closed = 1;
nodes = (
(26,0,l),
(26,14,l),
(70,14,ls),
(88,14,o),
(109,29,o),
(114,46,qs,{
name = inserted;
}),
(119,63,o),
(122,121,o),
(122,164,qs),
(122,311,l),
(57,311,l),
(57,325,l),
(122,325,l),
(122,500,ls),
(122,570,o),
(209,634,o),
(281,634,qs),
(348,634,o),
(417,585,o),
(437,545,q),
(427,539,l),
(414,563,o),
(388,594,o),
(371,603,qs,{
name = inserted;
}),
(354,612,o),
(311,620,o),
(281,620,qs),
(239,620,o),
(183,601,o),
(166.5,585,qs,{
name = inserted;
}),
(150,569,o),
(136,527,o),
(136,504,qs),
(136,325,l),
(265,325,l),
(265,311,l),
(136,311,l),
(136,109,ls),
(136,80,o),
(127,28,o),
(113,14,q),
(472,14,l),
(472,123,l),
(486,123,l),
(486,0,l)
);
}
);
width = 574;
}
);
unicode = 163;
},
{
glyphname = yen;
lastChange = "2024-08-09 09:08:37 +0000";
layers = (
{
layerId = m001;
shapes = (
{
closed = 1;
nodes = (
(207,79,l),
(274,79,l),
(274,130,l),
(159,130,l),
(159,211,l),
(274,211,l),
(274,263,l),
(159,263,l),
(159,344,l),
(230,344,l),
(66,621,l),
(-35,621,l),
(-35,700,l),
(207,700,l),
(207,621,l),
(167,621,l),
(313,377,l),
(324,346,l),
(325,346,l),
(337,377,l),
(481,621,l),
(442,621,l),
(442,700,l),
(684,700,l),
(684,621,l),
(583,621,l),
(420,344,l),
(492,344,l),
(492,263,l),
(376,263,l),
(376,211,l),
(493,211,l),
(493,130,l),
(376,130,l),
(376,79,l),
(449,79,l),
(449,0,l),
(207,0,l)
);
}
);
width = 638;
},
{
background = {
shapes = (
{
closed = 1;
nodes = (
(251,14,l),
(330,14,l),
(330,100,l),
(170,100,l),
(170,114,l),
(330,114,l),
(330,263,l),
(170,263,l),
(170,277,l),
(321,277,l),
(75,686,l),
(13,686,l),
(13,700,l),
(187,700,l),
(187,686,l),
(92,686,l),
(325,298,l),
(337,272,l),
(338,272,l),
(349,298,l),
(580,686,l),
(487,686,l),
(487,700,l),
(661,700,l),
(661,686,l),
(597,686,l),
(353,277,l),
(503,277,l),
(503,263,l),
(344,263,l),
(344,114,l),
(503,114,l),
(503,100,l),
(344,100,l),
(344,14,l),
(425,14,l),
(425,0,l),
(251,0,l)
);
}
);
};
layerId = "51A9AA91-C68C-460C-8D6F-B89E075DCADB";
shapes = (
{
closed = 1;
nodes = (
(251,14,l),
(330,14,l),
(330,100,l),
(170,100,l),
(170,114,l),
(330,114,l),
(330,263,l),
(170,263,l),
(170,277,l),
(321,277,l),
(75,686,l),
(13,686,l),
(13,700,l),
(187,700,l),
(187,686,l),
(92,686,l),
(325,298,l),
(337,272,l),
(338,272,l),
(349,298,l),
(580,686,l),
(487,686,l),
(487,700,l),
(661,700,l),
(661,686,l),
(597,686,l),
(353,277,l),
(503,277,l),
(503,263,l),
(344,263,l),
(344,114,l),
(503,114,l),
(503,100,l),
(344,100,l),
(344,14,l),
(425,14,l),
(425,0,l),
(251,0,l)
);
}
);
width = 638;
}
);
unicode = 165;
},
{
glyphname = divisionslash;
lastChange = "2024-08-09 09:08:37 +0000";
layers = (
{
layerId = m001;
shapes = (
{
closed = 1;
nodes = (
(9,-19,l),
(287,735,l),
(373,735,l),
(95,-19,l)
);
}
);
width = 310;
},
{
layerId = "51A9AA91-C68C-460C-8D6F-B89E075DCADB";
shapes = (
{
closed = 1;
nodes = (
(10,-19,l),
(288,735,l),
(302,735,l),
(24,-19,l)
);
}
);
width = 312;
}
);
unicode = 8725;
},
{
glyphname = plus;
lastChange = "2024-08-09 09:08:37 +0000";
layers = (
{
layerId = m001;
shapes = (
{
closed = 1;
nodes = (
(224,51,l),
(224,190,l),
(86,190,l),
(86,271,l),
(224,271,l),
(224,411,l),
(308,411,l),
(308,271,l),
(446,271,l),
(446,190,l),
(308,190,l),
(308,51,l)
);
}
);
width = 543;
},
{
layerId = "51A9AA91-C68C-460C-8D6F-B89E075DCADB";
shapes = (
{
closed = 1;
nodes = (
(259,51,l),
(259,225,l),
(86,225,l),
(86,239,l),
(259,239,l),
(259,411,l),
(273,411,l),
(273,239,l),
(446,239,l),
(446,225,l),
(273,225,l),
(273,51,l)
);
}
);
width = 543;
}
);
unicode = 43;
},
{
glyphname = minus;
lastChange = "2024-08-09 09:08:37 +0000";
layers = (
{
layerId = m001;
shapes = (
{
closed = 1;
nodes = (
(82,190,l),
(82,271,l),
(442,271,l),
(442,190,l)
);
}
);
width = 524;
},
{
layerId = "51A9AA91-C68C-460C-8D6F-B89E075DCADB";
shapes = (
{
closed = 1;
nodes = (
(82,186,l),
(82,200,l),
(442,200,l),
(442,186,l)
);
}
);
width = 524;
}
);
unicode = 8722;
},
{
glyphname = multiply;
lastChange = "2024-08-09 09:08:37 +0000";
layers = (
{
layerId = m001;
shapes = (
{
closed = 1;
nodes = (
(168,1,l),
(110,58,l),
(208,156,l),
(109,255,l),
(168,314,l),
(267,215,l),
(365,313,l),
(422,255,l),
(325,158,l),
(423,59,l),
(364,0,l),
(265,98,l)
);
}
);
width = 500;
},
{
layerId = "51A9AA91-C68C-460C-8D6F-B89E075DCADB";
shapes = (
{
closed = 1;
nodes = (
(140,0,l),
(130,10,l),
(252,133,l),
(131,254,l),
(141,264,l),
(262,143,l),
(385,265,l),
(395,255,l),
(272,133,l),
(395,10,l),
(385,0,l),
(262,123,l)
);
}
);
width = 500;
}
);
unicode = 215;
},
